%TF.GenerationSoftware,KiCad,Pcbnew,(6.0.11)*%
%TF.CreationDate,2023-03-01T16:43:23-07:00*%
%TF.ProjectId,Wirless-Module,5769726c-6573-4732-9d4d-6f64756c652e,rev?*%
%TF.SameCoordinates,Original*%
%TF.FileFunction,Soldermask,Top*%
%TF.FilePolarity,Negative*%
%FSLAX46Y46*%
G04 Gerber Fmt 4.6, Leading zero omitted, Abs format (unit mm)*
G04 Created by KiCad (PCBNEW (6.0.11)) date 2023-03-01 16:43:23*
%MOMM*%
%LPD*%
G01*
G04 APERTURE LIST*
%ADD10C,0.010000*%
%ADD11C,1.008000*%
%ADD12R,1.008000X1.008000*%
%ADD13R,1.020000X0.940000*%
%ADD14C,4.300000*%
%ADD15R,0.965200X1.295400*%
%ADD16R,1.000000X1.100000*%
G04 APERTURE END LIST*
%TO.C,P1*%
G36*
X183086200Y-118466200D02*
G01*
X181733800Y-118466200D01*
X181733800Y-116513800D01*
X183086200Y-116513800D01*
X183086200Y-118466200D01*
G37*
D10*
X183086200Y-118466200D02*
X181733800Y-118466200D01*
X181733800Y-116513800D01*
X183086200Y-116513800D01*
X183086200Y-118466200D01*
G36*
X179486200Y-114416200D02*
G01*
X178733800Y-114416200D01*
X178733800Y-112763800D01*
X179486200Y-112763800D01*
X179486200Y-114416200D01*
G37*
X179486200Y-114416200D02*
X178733800Y-114416200D01*
X178733800Y-112763800D01*
X179486200Y-112763800D01*
X179486200Y-114416200D01*
G36*
X181486200Y-114416200D02*
G01*
X180733800Y-114416200D01*
X180733800Y-112763800D01*
X181486200Y-112763800D01*
X181486200Y-114416200D01*
G37*
X181486200Y-114416200D02*
X180733800Y-114416200D01*
X180733800Y-112763800D01*
X181486200Y-112763800D01*
X181486200Y-114416200D01*
G36*
X177486200Y-114416200D02*
G01*
X176733800Y-114416200D01*
X176733800Y-112763800D01*
X177486200Y-112763800D01*
X177486200Y-114416200D01*
G37*
X177486200Y-114416200D02*
X176733800Y-114416200D01*
X176733800Y-112763800D01*
X177486200Y-112763800D01*
X177486200Y-114416200D01*
G36*
X180486200Y-114416200D02*
G01*
X179733800Y-114416200D01*
X179733800Y-112763800D01*
X180486200Y-112763800D01*
X180486200Y-114416200D01*
G37*
X180486200Y-114416200D02*
X179733800Y-114416200D01*
X179733800Y-112763800D01*
X180486200Y-112763800D01*
X180486200Y-114416200D01*
G36*
X174486200Y-114416200D02*
G01*
X173733800Y-114416200D01*
X173733800Y-112763800D01*
X174486200Y-112763800D01*
X174486200Y-114416200D01*
G37*
X174486200Y-114416200D02*
X173733800Y-114416200D01*
X173733800Y-112763800D01*
X174486200Y-112763800D01*
X174486200Y-114416200D01*
G36*
X178486200Y-114416200D02*
G01*
X177733800Y-114416200D01*
X177733800Y-112763800D01*
X178486200Y-112763800D01*
X178486200Y-114416200D01*
G37*
X178486200Y-114416200D02*
X177733800Y-114416200D01*
X177733800Y-112763800D01*
X178486200Y-112763800D01*
X178486200Y-114416200D01*
G36*
X175486200Y-114416200D02*
G01*
X174733800Y-114416200D01*
X174733800Y-112763800D01*
X175486200Y-112763800D01*
X175486200Y-114416200D01*
G37*
X175486200Y-114416200D02*
X174733800Y-114416200D01*
X174733800Y-112763800D01*
X175486200Y-112763800D01*
X175486200Y-114416200D01*
G36*
X176486200Y-114416200D02*
G01*
X175733800Y-114416200D01*
X175733800Y-112763800D01*
X176486200Y-112763800D01*
X176486200Y-114416200D01*
G37*
X176486200Y-114416200D02*
X175733800Y-114416200D01*
X175733800Y-112763800D01*
X176486200Y-112763800D01*
X176486200Y-114416200D01*
G36*
X173486200Y-118466200D02*
G01*
X172133800Y-118466200D01*
X172133800Y-116513800D01*
X173486200Y-116513800D01*
X173486200Y-118466200D01*
G37*
X173486200Y-118466200D02*
X172133800Y-118466200D01*
X172133800Y-116513800D01*
X173486200Y-116513800D01*
X173486200Y-118466200D01*
%TD*%
D11*
%TO.C,U1*%
X188839000Y-82171500D03*
X188839000Y-84171500D03*
X188839000Y-86171500D03*
X188839000Y-88171500D03*
X188839000Y-90171500D03*
X188839000Y-92171500D03*
X188839000Y-94171500D03*
X188839000Y-96171500D03*
X188839000Y-98171500D03*
X188839000Y-100171500D03*
X166839000Y-100171500D03*
X166839000Y-98171500D03*
X166839000Y-96171500D03*
X166839000Y-94171500D03*
X166839000Y-92171500D03*
X166839000Y-90171500D03*
X166839000Y-88171500D03*
X166839000Y-86171500D03*
X166839000Y-84171500D03*
D12*
X166839000Y-82171500D03*
%TD*%
D13*
%TO.C,R1*%
X165820000Y-106040000D03*
X165820000Y-104460000D03*
%TD*%
D14*
%TO.C,H4*%
X166560500Y-116141500D03*
%TD*%
%TO.C,H3*%
X188785500Y-74866500D03*
%TD*%
%TO.C,H2*%
X188785500Y-116141500D03*
%TD*%
%TO.C,H1*%
X166560500Y-74866500D03*
%TD*%
D15*
%TO.C,D1*%
X168636000Y-104820000D03*
X171684000Y-104820000D03*
%TD*%
D16*
%TO.C,C2*%
X164270000Y-82610000D03*
X164270000Y-80910000D03*
%TD*%
%TO.C,C1*%
X164520000Y-85070000D03*
X164520000Y-86770000D03*
%TD*%
M02*
