%TF.GenerationSoftware,KiCad,Pcbnew,(6.0.11)*%
%TF.CreationDate,2023-03-01T16:43:23-07:00*%
%TF.ProjectId,Wirless-Module,5769726c-6573-4732-9d4d-6f64756c652e,rev?*%
%TF.SameCoordinates,Original*%
%TF.FileFunction,Legend,Top*%
%TF.FilePolarity,Positive*%
%FSLAX46Y46*%
G04 Gerber Fmt 4.6, Leading zero omitted, Abs format (unit mm)*
G04 Created by KiCad (PCBNEW (6.0.11)) date 2023-03-01 16:43:23*
%MOMM*%
%LPD*%
G01*
G04 APERTURE LIST*
%ADD10C,0.203200*%
%ADD11C,0.150000*%
%ADD12C,0.076200*%
%ADD13C,0.120000*%
%ADD14C,0.127000*%
%ADD15C,0.010000*%
G04 APERTURE END LIST*
D10*
X192349619Y-110826285D02*
X192349619Y-111310095D01*
X191333619Y-111310095D01*
X191333619Y-110294095D02*
X191333619Y-110197333D01*
X191382000Y-110100571D01*
X191430380Y-110052190D01*
X191527142Y-110003809D01*
X191720666Y-109955428D01*
X191962571Y-109955428D01*
X192156095Y-110003809D01*
X192252857Y-110052190D01*
X192301238Y-110100571D01*
X192349619Y-110197333D01*
X192349619Y-110294095D01*
X192301238Y-110390857D01*
X192252857Y-110439238D01*
X192156095Y-110487619D01*
X191962571Y-110536000D01*
X191720666Y-110536000D01*
X191527142Y-110487619D01*
X191430380Y-110439238D01*
X191382000Y-110390857D01*
X191333619Y-110294095D01*
X191333619Y-109326476D02*
X191333619Y-109229714D01*
X191382000Y-109132952D01*
X191430380Y-109084571D01*
X191527142Y-109036190D01*
X191720666Y-108987809D01*
X191962571Y-108987809D01*
X192156095Y-109036190D01*
X192252857Y-109084571D01*
X192301238Y-109132952D01*
X192349619Y-109229714D01*
X192349619Y-109326476D01*
X192301238Y-109423238D01*
X192252857Y-109471619D01*
X192156095Y-109520000D01*
X191962571Y-109568380D01*
X191720666Y-109568380D01*
X191527142Y-109520000D01*
X191430380Y-109471619D01*
X191382000Y-109423238D01*
X191333619Y-109326476D01*
X191333619Y-108358857D02*
X191333619Y-108262095D01*
X191382000Y-108165333D01*
X191430380Y-108116952D01*
X191527142Y-108068571D01*
X191720666Y-108020190D01*
X191962571Y-108020190D01*
X192156095Y-108068571D01*
X192252857Y-108116952D01*
X192301238Y-108165333D01*
X192349619Y-108262095D01*
X192349619Y-108358857D01*
X192301238Y-108455619D01*
X192252857Y-108504000D01*
X192156095Y-108552380D01*
X191962571Y-108600761D01*
X191720666Y-108600761D01*
X191527142Y-108552380D01*
X191430380Y-108504000D01*
X191382000Y-108455619D01*
X191333619Y-108358857D01*
X191333619Y-107681523D02*
X191333619Y-107004190D01*
X192349619Y-107439619D01*
X191333619Y-105939809D02*
X192349619Y-105697904D01*
X191623904Y-105504380D01*
X192349619Y-105310857D01*
X191333619Y-105068952D01*
X192349619Y-104681904D02*
X191672285Y-104681904D01*
X191333619Y-104681904D02*
X191382000Y-104730285D01*
X191430380Y-104681904D01*
X191382000Y-104633523D01*
X191333619Y-104681904D01*
X191430380Y-104681904D01*
X192349619Y-104198095D02*
X191672285Y-104198095D01*
X191865809Y-104198095D02*
X191769047Y-104149714D01*
X191720666Y-104101333D01*
X191672285Y-104004571D01*
X191672285Y-103907809D01*
X192301238Y-103182095D02*
X192349619Y-103278857D01*
X192349619Y-103472380D01*
X192301238Y-103569142D01*
X192204476Y-103617523D01*
X191817428Y-103617523D01*
X191720666Y-103569142D01*
X191672285Y-103472380D01*
X191672285Y-103278857D01*
X191720666Y-103182095D01*
X191817428Y-103133714D01*
X191914190Y-103133714D01*
X192010952Y-103617523D01*
X192349619Y-102553142D02*
X192301238Y-102649904D01*
X192204476Y-102698285D01*
X191333619Y-102698285D01*
X192301238Y-101779047D02*
X192349619Y-101875809D01*
X192349619Y-102069333D01*
X192301238Y-102166095D01*
X192204476Y-102214476D01*
X191817428Y-102214476D01*
X191720666Y-102166095D01*
X191672285Y-102069333D01*
X191672285Y-101875809D01*
X191720666Y-101779047D01*
X191817428Y-101730666D01*
X191914190Y-101730666D01*
X192010952Y-102214476D01*
X192301238Y-101343619D02*
X192349619Y-101246857D01*
X192349619Y-101053333D01*
X192301238Y-100956571D01*
X192204476Y-100908190D01*
X192156095Y-100908190D01*
X192059333Y-100956571D01*
X192010952Y-101053333D01*
X192010952Y-101198476D01*
X191962571Y-101295238D01*
X191865809Y-101343619D01*
X191817428Y-101343619D01*
X191720666Y-101295238D01*
X191672285Y-101198476D01*
X191672285Y-101053333D01*
X191720666Y-100956571D01*
X192301238Y-100521142D02*
X192349619Y-100424380D01*
X192349619Y-100230857D01*
X192301238Y-100134095D01*
X192204476Y-100085714D01*
X192156095Y-100085714D01*
X192059333Y-100134095D01*
X192010952Y-100230857D01*
X192010952Y-100376000D01*
X191962571Y-100472761D01*
X191865809Y-100521142D01*
X191817428Y-100521142D01*
X191720666Y-100472761D01*
X191672285Y-100376000D01*
X191672285Y-100230857D01*
X191720666Y-100134095D01*
X192349619Y-98876190D02*
X191333619Y-98876190D01*
X192059333Y-98537523D01*
X191333619Y-98198857D01*
X192349619Y-98198857D01*
X192349619Y-97569904D02*
X192301238Y-97666666D01*
X192252857Y-97715047D01*
X192156095Y-97763428D01*
X191865809Y-97763428D01*
X191769047Y-97715047D01*
X191720666Y-97666666D01*
X191672285Y-97569904D01*
X191672285Y-97424761D01*
X191720666Y-97328000D01*
X191769047Y-97279619D01*
X191865809Y-97231238D01*
X192156095Y-97231238D01*
X192252857Y-97279619D01*
X192301238Y-97328000D01*
X192349619Y-97424761D01*
X192349619Y-97569904D01*
X192349619Y-96360380D02*
X191333619Y-96360380D01*
X192301238Y-96360380D02*
X192349619Y-96457142D01*
X192349619Y-96650666D01*
X192301238Y-96747428D01*
X192252857Y-96795809D01*
X192156095Y-96844190D01*
X191865809Y-96844190D01*
X191769047Y-96795809D01*
X191720666Y-96747428D01*
X191672285Y-96650666D01*
X191672285Y-96457142D01*
X191720666Y-96360380D01*
X191672285Y-95441142D02*
X192349619Y-95441142D01*
X191672285Y-95876571D02*
X192204476Y-95876571D01*
X192301238Y-95828190D01*
X192349619Y-95731428D01*
X192349619Y-95586285D01*
X192301238Y-95489523D01*
X192252857Y-95441142D01*
X192349619Y-94812190D02*
X192301238Y-94908952D01*
X192204476Y-94957333D01*
X191333619Y-94957333D01*
X192301238Y-94038095D02*
X192349619Y-94134857D01*
X192349619Y-94328380D01*
X192301238Y-94425142D01*
X192204476Y-94473523D01*
X191817428Y-94473523D01*
X191720666Y-94425142D01*
X191672285Y-94328380D01*
X191672285Y-94134857D01*
X191720666Y-94038095D01*
X191817428Y-93989714D01*
X191914190Y-93989714D01*
X192010952Y-94473523D01*
X192349619Y-92199619D02*
X191865809Y-92538285D01*
X192349619Y-92780190D02*
X191333619Y-92780190D01*
X191333619Y-92393142D01*
X191382000Y-92296380D01*
X191430380Y-92248000D01*
X191527142Y-92199619D01*
X191672285Y-92199619D01*
X191769047Y-92248000D01*
X191817428Y-92296380D01*
X191865809Y-92393142D01*
X191865809Y-92780190D01*
X192301238Y-91377142D02*
X192349619Y-91473904D01*
X192349619Y-91667428D01*
X192301238Y-91764190D01*
X192204476Y-91812571D01*
X191817428Y-91812571D01*
X191720666Y-91764190D01*
X191672285Y-91667428D01*
X191672285Y-91473904D01*
X191720666Y-91377142D01*
X191817428Y-91328761D01*
X191914190Y-91328761D01*
X192010952Y-91812571D01*
X191672285Y-90990095D02*
X192349619Y-90748190D01*
X191672285Y-90506285D01*
X192349619Y-88812952D02*
X192349619Y-89393523D01*
X192349619Y-89103238D02*
X191333619Y-89103238D01*
X191478761Y-89200000D01*
X191575523Y-89296761D01*
X191623904Y-89393523D01*
X192252857Y-88377523D02*
X192301238Y-88329142D01*
X192349619Y-88377523D01*
X192301238Y-88425904D01*
X192252857Y-88377523D01*
X192349619Y-88377523D01*
X191333619Y-87700190D02*
X191333619Y-87603428D01*
X191382000Y-87506666D01*
X191430380Y-87458285D01*
X191527142Y-87409904D01*
X191720666Y-87361523D01*
X191962571Y-87361523D01*
X192156095Y-87409904D01*
X192252857Y-87458285D01*
X192301238Y-87506666D01*
X192349619Y-87603428D01*
X192349619Y-87700190D01*
X192301238Y-87796952D01*
X192252857Y-87845333D01*
X192156095Y-87893714D01*
X191962571Y-87942095D01*
X191720666Y-87942095D01*
X191527142Y-87893714D01*
X191430380Y-87845333D01*
X191382000Y-87796952D01*
X191333619Y-87700190D01*
X167893523Y-107489619D02*
X167893523Y-106473619D01*
X168280571Y-106473619D01*
X168377333Y-106522000D01*
X168425714Y-106570380D01*
X168474095Y-106667142D01*
X168474095Y-106812285D01*
X168425714Y-106909047D01*
X168377333Y-106957428D01*
X168280571Y-107005809D01*
X167893523Y-107005809D01*
X169103047Y-106473619D02*
X169296571Y-106473619D01*
X169393333Y-106522000D01*
X169490095Y-106618761D01*
X169538476Y-106812285D01*
X169538476Y-107150952D01*
X169490095Y-107344476D01*
X169393333Y-107441238D01*
X169296571Y-107489619D01*
X169103047Y-107489619D01*
X169006285Y-107441238D01*
X168909523Y-107344476D01*
X168861142Y-107150952D01*
X168861142Y-106812285D01*
X168909523Y-106618761D01*
X169006285Y-106522000D01*
X169103047Y-106473619D01*
X169877142Y-106473619D02*
X170119047Y-107489619D01*
X170312571Y-106763904D01*
X170506095Y-107489619D01*
X170748000Y-106473619D01*
X171135047Y-106957428D02*
X171473714Y-106957428D01*
X171618857Y-107489619D02*
X171135047Y-107489619D01*
X171135047Y-106473619D01*
X171618857Y-106473619D01*
X172634857Y-107489619D02*
X172296190Y-107005809D01*
X172054285Y-107489619D02*
X172054285Y-106473619D01*
X172441333Y-106473619D01*
X172538095Y-106522000D01*
X172586476Y-106570380D01*
X172634857Y-106667142D01*
X172634857Y-106812285D01*
X172586476Y-106909047D01*
X172538095Y-106957428D01*
X172441333Y-107005809D01*
X172054285Y-107005809D01*
D11*
%TO.C,U1*%
X177515074Y-74009303D02*
X177515074Y-74646724D01*
X177552570Y-74721715D01*
X177590065Y-74759210D01*
X177665056Y-74796705D01*
X177815037Y-74796705D01*
X177890028Y-74759210D01*
X177927523Y-74721715D01*
X177965018Y-74646724D01*
X177965018Y-74009303D01*
X178752420Y-74796705D02*
X178302476Y-74796705D01*
X178527448Y-74796705D02*
X178527448Y-74009303D01*
X178452458Y-74121789D01*
X178377467Y-74196780D01*
X178302476Y-74234275D01*
D12*
%TO.C,R1*%
X165566666Y-103341904D02*
X165300000Y-102960952D01*
X165109523Y-103341904D02*
X165109523Y-102541904D01*
X165414285Y-102541904D01*
X165490476Y-102580000D01*
X165528571Y-102618095D01*
X165566666Y-102694285D01*
X165566666Y-102808571D01*
X165528571Y-102884761D01*
X165490476Y-102922857D01*
X165414285Y-102960952D01*
X165109523Y-102960952D01*
X166328571Y-103341904D02*
X165871428Y-103341904D01*
X166100000Y-103341904D02*
X166100000Y-102541904D01*
X166023809Y-102656190D01*
X165947619Y-102732380D01*
X165871428Y-102770476D01*
D11*
%TO.C,P1*%
X169381904Y-113052380D02*
X169381904Y-112052380D01*
X169762857Y-112052380D01*
X169858095Y-112100000D01*
X169905714Y-112147619D01*
X169953333Y-112242857D01*
X169953333Y-112385714D01*
X169905714Y-112480952D01*
X169858095Y-112528571D01*
X169762857Y-112576190D01*
X169381904Y-112576190D01*
X170905714Y-113052380D02*
X170334285Y-113052380D01*
X170620000Y-113052380D02*
X170620000Y-112052380D01*
X170524761Y-112195238D01*
X170429523Y-112290476D01*
X170334285Y-112338095D01*
%TO.C,D1*%
X167161904Y-103192380D02*
X167161904Y-102192380D01*
X167400000Y-102192380D01*
X167542857Y-102240000D01*
X167638095Y-102335238D01*
X167685714Y-102430476D01*
X167733333Y-102620952D01*
X167733333Y-102763809D01*
X167685714Y-102954285D01*
X167638095Y-103049523D01*
X167542857Y-103144761D01*
X167400000Y-103192380D01*
X167161904Y-103192380D01*
X168685714Y-103192380D02*
X168114285Y-103192380D01*
X168400000Y-103192380D02*
X168400000Y-102192380D01*
X168304761Y-102335238D01*
X168209523Y-102430476D01*
X168114285Y-102478095D01*
D12*
%TO.C,C2*%
X162406666Y-82375714D02*
X162368571Y-82413809D01*
X162254285Y-82451904D01*
X162178095Y-82451904D01*
X162063809Y-82413809D01*
X161987619Y-82337619D01*
X161949523Y-82261428D01*
X161911428Y-82109047D01*
X161911428Y-81994761D01*
X161949523Y-81842380D01*
X161987619Y-81766190D01*
X162063809Y-81690000D01*
X162178095Y-81651904D01*
X162254285Y-81651904D01*
X162368571Y-81690000D01*
X162406666Y-81728095D01*
X162711428Y-81728095D02*
X162749523Y-81690000D01*
X162825714Y-81651904D01*
X163016190Y-81651904D01*
X163092380Y-81690000D01*
X163130476Y-81728095D01*
X163168571Y-81804285D01*
X163168571Y-81880476D01*
X163130476Y-81994761D01*
X162673333Y-82451904D01*
X163168571Y-82451904D01*
%TO.C,C1*%
X162686666Y-84835714D02*
X162648571Y-84873809D01*
X162534285Y-84911904D01*
X162458095Y-84911904D01*
X162343809Y-84873809D01*
X162267619Y-84797619D01*
X162229523Y-84721428D01*
X162191428Y-84569047D01*
X162191428Y-84454761D01*
X162229523Y-84302380D01*
X162267619Y-84226190D01*
X162343809Y-84150000D01*
X162458095Y-84111904D01*
X162534285Y-84111904D01*
X162648571Y-84150000D01*
X162686666Y-84188095D01*
X163448571Y-84911904D02*
X162991428Y-84911904D01*
X163220000Y-84911904D02*
X163220000Y-84111904D01*
X163143809Y-84226190D01*
X163067619Y-84302380D01*
X162991428Y-84340476D01*
D13*
%TO.C,U1*%
X182365000Y-75250500D02*
X173105000Y-75250500D01*
X189965000Y-101652700D02*
X189955000Y-81770500D01*
X173105000Y-75250500D02*
X165585000Y-81770500D01*
X165585000Y-81770500D02*
X165585000Y-101630500D01*
X189985000Y-81780500D02*
X182365000Y-75250500D01*
X165585000Y-101652700D02*
X189965000Y-101652700D01*
D14*
%TO.C,R1*%
X165130000Y-106050000D02*
X165130000Y-104450000D01*
X166510000Y-106050000D02*
X166510000Y-104450000D01*
%TO.C,P1*%
X172610000Y-118740000D02*
X172610000Y-119090000D01*
X182610000Y-119090000D02*
X182610000Y-118740000D01*
X174110000Y-112490000D02*
X173810000Y-112040000D01*
X172610000Y-119090000D02*
X182610000Y-119090000D01*
X181730000Y-113740000D02*
X182610000Y-113740000D01*
X174410000Y-112040000D02*
X174110000Y-112490000D01*
X182610000Y-113740000D02*
X182610000Y-116240000D01*
X172610000Y-113740000D02*
X173490000Y-113740000D01*
X172610000Y-116240000D02*
X172610000Y-113740000D01*
X173810000Y-112040000D02*
X174410000Y-112040000D01*
%TO.C,LOGO1*%
G36*
X180756097Y-108411410D02*
G01*
X181104077Y-108414084D01*
X181106911Y-108548704D01*
X181109746Y-108683324D01*
X180733237Y-108683324D01*
X180733237Y-108886524D01*
X181088837Y-108886524D01*
X181088837Y-109150684D01*
X180733237Y-109150684D01*
X180733237Y-109353425D01*
X180918657Y-109356194D01*
X181104077Y-109358964D01*
X181106911Y-109493584D01*
X181109746Y-109628204D01*
X180408117Y-109628204D01*
X180408117Y-108408737D01*
X180756097Y-108411410D01*
G37*
D15*
X180756097Y-108411410D02*
X181104077Y-108414084D01*
X181106911Y-108548704D01*
X181109746Y-108683324D01*
X180733237Y-108683324D01*
X180733237Y-108886524D01*
X181088837Y-108886524D01*
X181088837Y-109150684D01*
X180733237Y-109150684D01*
X180733237Y-109353425D01*
X180918657Y-109356194D01*
X181104077Y-109358964D01*
X181106911Y-109493584D01*
X181109746Y-109628204D01*
X180408117Y-109628204D01*
X180408117Y-108408737D01*
X180756097Y-108411410D01*
G36*
X183302118Y-104141806D02*
G01*
X183294570Y-104161394D01*
X183276931Y-104193887D01*
X183248517Y-104240906D01*
X183237677Y-104258267D01*
X183212202Y-104299712D01*
X183191290Y-104335376D01*
X183177063Y-104361525D01*
X183171641Y-104374421D01*
X183171637Y-104374557D01*
X183165199Y-104385167D01*
X183162578Y-104385644D01*
X183153404Y-104394195D01*
X183147731Y-104408706D01*
X183136354Y-104434503D01*
X183123770Y-104452403D01*
X183104030Y-104477910D01*
X183090900Y-104497921D01*
X183081077Y-104514282D01*
X183062681Y-104544684D01*
X183037724Y-104585821D01*
X183008216Y-104634387D01*
X182976168Y-104687076D01*
X182943590Y-104740583D01*
X182912493Y-104791603D01*
X182884889Y-104836828D01*
X182862787Y-104872954D01*
X182861450Y-104875135D01*
X182842695Y-104903081D01*
X182825030Y-104918930D01*
X182800515Y-104928070D01*
X182775911Y-104933199D01*
X182745165Y-104939246D01*
X182700020Y-104948514D01*
X182645924Y-104959866D01*
X182588326Y-104972168D01*
X182572197Y-104975653D01*
X182514046Y-104988236D01*
X182457345Y-105000475D01*
X182407730Y-105011154D01*
X182370842Y-105019060D01*
X182363917Y-105020536D01*
X182288776Y-105036516D01*
X182230242Y-105048972D01*
X182185045Y-105058602D01*
X182149915Y-105066104D01*
X182121582Y-105072177D01*
X182096777Y-105077518D01*
X182079437Y-105081266D01*
X181996359Y-105099224D01*
X181930526Y-105113406D01*
X181879327Y-105124366D01*
X181840154Y-105132654D01*
X181810395Y-105138825D01*
X181787442Y-105143429D01*
X181769557Y-105146858D01*
X181743028Y-105152175D01*
X181701698Y-105160883D01*
X181650585Y-105171908D01*
X181594710Y-105184174D01*
X181576517Y-105188213D01*
X181520174Y-105200668D01*
X181466976Y-105212262D01*
X181421944Y-105221910D01*
X181390098Y-105228531D01*
X181383477Y-105229840D01*
X181344020Y-105237915D01*
X181304398Y-105246708D01*
X181297117Y-105248430D01*
X181267117Y-105255277D01*
X181225551Y-105264305D01*
X181180775Y-105273703D01*
X181175197Y-105274849D01*
X181123348Y-105285604D01*
X181064082Y-105298099D01*
X181009830Y-105309711D01*
X181007557Y-105310204D01*
X180953856Y-105321733D01*
X180894544Y-105334313D01*
X180842051Y-105345305D01*
X180839917Y-105345748D01*
X180791144Y-105356022D01*
X180740493Y-105366965D01*
X180698696Y-105376255D01*
X180697677Y-105376488D01*
X180651363Y-105386736D01*
X180600097Y-105397625D01*
X180573606Y-105403049D01*
X180510496Y-105415708D01*
X179715480Y-106211316D01*
X179609796Y-106317008D01*
X179508086Y-106418586D01*
X179411277Y-106515134D01*
X179320291Y-106605736D01*
X179236055Y-106689477D01*
X179159491Y-106765440D01*
X179091526Y-106832708D01*
X179033082Y-106890367D01*
X178985086Y-106937500D01*
X178948462Y-106973191D01*
X178924133Y-106996524D01*
X178913026Y-107006583D01*
X178912450Y-107006924D01*
X178904637Y-106999155D01*
X178904437Y-106996939D01*
X178910718Y-106983452D01*
X178926200Y-106963022D01*
X178929892Y-106958839D01*
X178945955Y-106939954D01*
X178971583Y-106908504D01*
X179003957Y-106868031D01*
X179040257Y-106822079D01*
X179077664Y-106774192D01*
X179105867Y-106737684D01*
X179127417Y-106709757D01*
X179155581Y-106673446D01*
X179187807Y-106632016D01*
X179221546Y-106588736D01*
X179254247Y-106546872D01*
X179283359Y-106509690D01*
X179306333Y-106480458D01*
X179320618Y-106462441D01*
X179323638Y-106458739D01*
X179335084Y-106444637D01*
X179357504Y-106416417D01*
X179389391Y-106375995D01*
X179429238Y-106325287D01*
X179475537Y-106266212D01*
X179526782Y-106200685D01*
X179562447Y-106155006D01*
X179596974Y-106110844D01*
X179634980Y-106062365D01*
X179669110Y-106018950D01*
X179673982Y-106012766D01*
X179702509Y-105976584D01*
X179722490Y-105951185D01*
X179737945Y-105931388D01*
X179752895Y-105912007D01*
X179771360Y-105887859D01*
X179797360Y-105853759D01*
X179801229Y-105848684D01*
X179828223Y-105813533D01*
X179851792Y-105783303D01*
X179868377Y-105762538D01*
X179872833Y-105757244D01*
X179886432Y-105740787D01*
X179906806Y-105714945D01*
X179921168Y-105696284D01*
X179941081Y-105670404D01*
X179955887Y-105651642D01*
X179961077Y-105645484D01*
X179969234Y-105635554D01*
X179986434Y-105613645D01*
X180009401Y-105583938D01*
X180016749Y-105574364D01*
X180043864Y-105539563D01*
X180069299Y-105507932D01*
X180088198Y-105485491D01*
X180090409Y-105483027D01*
X180106083Y-105464192D01*
X180113405Y-105452152D01*
X180113477Y-105451588D01*
X180119532Y-105440670D01*
X180134545Y-105421310D01*
X180139141Y-105415924D01*
X180156947Y-105394422D01*
X180182493Y-105362312D01*
X180211317Y-105325233D01*
X180222817Y-105310204D01*
X180248596Y-105276572D01*
X180269783Y-105249360D01*
X180283357Y-105232426D01*
X180286448Y-105228924D01*
X180292522Y-105221979D01*
X180305959Y-105205163D01*
X180327978Y-105176914D01*
X180359793Y-105135671D01*
X180402620Y-105079875D01*
X180404872Y-105076936D01*
X180434374Y-105039883D01*
X180457964Y-105015447D01*
X180481158Y-104999447D01*
X180509472Y-104987698D01*
X180531621Y-104980830D01*
X180576904Y-104967307D01*
X180624684Y-104952593D01*
X180651957Y-104943943D01*
X180689139Y-104932153D01*
X180741272Y-104915931D01*
X180803837Y-104896667D01*
X180872313Y-104875751D01*
X180942183Y-104854572D01*
X180966917Y-104847118D01*
X180996639Y-104838097D01*
X181038952Y-104825158D01*
X181087035Y-104810389D01*
X181114237Y-104802006D01*
X181171536Y-104784357D01*
X181235566Y-104764687D01*
X181295149Y-104746429D01*
X181312357Y-104741169D01*
X181360497Y-104726432D01*
X181420450Y-104708033D01*
X181484614Y-104688305D01*
X181545387Y-104669585D01*
X181546037Y-104669385D01*
X181624029Y-104645338D01*
X181686448Y-104626117D01*
X181737135Y-104610547D01*
X181779930Y-104597453D01*
X181818675Y-104585661D01*
X181857210Y-104573996D01*
X181899377Y-104561284D01*
X181911797Y-104557546D01*
X181968623Y-104540357D01*
X182030680Y-104521445D01*
X182087931Y-104503874D01*
X182109917Y-104497076D01*
X182161572Y-104481150D01*
X182222659Y-104462465D01*
X182283139Y-104444086D01*
X182308037Y-104436566D01*
X182354340Y-104422529D01*
X182395683Y-104409843D01*
X182426777Y-104400137D01*
X182440117Y-104395819D01*
X182459486Y-104389608D01*
X182493542Y-104379025D01*
X182537510Y-104365543D01*
X182586615Y-104350634D01*
X182587437Y-104350386D01*
X182649369Y-104331559D01*
X182720615Y-104309716D01*
X182791109Y-104287951D01*
X182836357Y-104273875D01*
X182894359Y-104255908D01*
X182955116Y-104237350D01*
X183010934Y-104220536D01*
X183049717Y-104209079D01*
X183101682Y-104193761D01*
X183155206Y-104177631D01*
X183205696Y-104162110D01*
X183248561Y-104148619D01*
X183279211Y-104138578D01*
X183289670Y-104134860D01*
X183300257Y-104133501D01*
X183302118Y-104141806D01*
G37*
X183302118Y-104141806D02*
X183294570Y-104161394D01*
X183276931Y-104193887D01*
X183248517Y-104240906D01*
X183237677Y-104258267D01*
X183212202Y-104299712D01*
X183191290Y-104335376D01*
X183177063Y-104361525D01*
X183171641Y-104374421D01*
X183171637Y-104374557D01*
X183165199Y-104385167D01*
X183162578Y-104385644D01*
X183153404Y-104394195D01*
X183147731Y-104408706D01*
X183136354Y-104434503D01*
X183123770Y-104452403D01*
X183104030Y-104477910D01*
X183090900Y-104497921D01*
X183081077Y-104514282D01*
X183062681Y-104544684D01*
X183037724Y-104585821D01*
X183008216Y-104634387D01*
X182976168Y-104687076D01*
X182943590Y-104740583D01*
X182912493Y-104791603D01*
X182884889Y-104836828D01*
X182862787Y-104872954D01*
X182861450Y-104875135D01*
X182842695Y-104903081D01*
X182825030Y-104918930D01*
X182800515Y-104928070D01*
X182775911Y-104933199D01*
X182745165Y-104939246D01*
X182700020Y-104948514D01*
X182645924Y-104959866D01*
X182588326Y-104972168D01*
X182572197Y-104975653D01*
X182514046Y-104988236D01*
X182457345Y-105000475D01*
X182407730Y-105011154D01*
X182370842Y-105019060D01*
X182363917Y-105020536D01*
X182288776Y-105036516D01*
X182230242Y-105048972D01*
X182185045Y-105058602D01*
X182149915Y-105066104D01*
X182121582Y-105072177D01*
X182096777Y-105077518D01*
X182079437Y-105081266D01*
X181996359Y-105099224D01*
X181930526Y-105113406D01*
X181879327Y-105124366D01*
X181840154Y-105132654D01*
X181810395Y-105138825D01*
X181787442Y-105143429D01*
X181769557Y-105146858D01*
X181743028Y-105152175D01*
X181701698Y-105160883D01*
X181650585Y-105171908D01*
X181594710Y-105184174D01*
X181576517Y-105188213D01*
X181520174Y-105200668D01*
X181466976Y-105212262D01*
X181421944Y-105221910D01*
X181390098Y-105228531D01*
X181383477Y-105229840D01*
X181344020Y-105237915D01*
X181304398Y-105246708D01*
X181297117Y-105248430D01*
X181267117Y-105255277D01*
X181225551Y-105264305D01*
X181180775Y-105273703D01*
X181175197Y-105274849D01*
X181123348Y-105285604D01*
X181064082Y-105298099D01*
X181009830Y-105309711D01*
X181007557Y-105310204D01*
X180953856Y-105321733D01*
X180894544Y-105334313D01*
X180842051Y-105345305D01*
X180839917Y-105345748D01*
X180791144Y-105356022D01*
X180740493Y-105366965D01*
X180698696Y-105376255D01*
X180697677Y-105376488D01*
X180651363Y-105386736D01*
X180600097Y-105397625D01*
X180573606Y-105403049D01*
X180510496Y-105415708D01*
X179715480Y-106211316D01*
X179609796Y-106317008D01*
X179508086Y-106418586D01*
X179411277Y-106515134D01*
X179320291Y-106605736D01*
X179236055Y-106689477D01*
X179159491Y-106765440D01*
X179091526Y-106832708D01*
X179033082Y-106890367D01*
X178985086Y-106937500D01*
X178948462Y-106973191D01*
X178924133Y-106996524D01*
X178913026Y-107006583D01*
X178912450Y-107006924D01*
X178904637Y-106999155D01*
X178904437Y-106996939D01*
X178910718Y-106983452D01*
X178926200Y-106963022D01*
X178929892Y-106958839D01*
X178945955Y-106939954D01*
X178971583Y-106908504D01*
X179003957Y-106868031D01*
X179040257Y-106822079D01*
X179077664Y-106774192D01*
X179105867Y-106737684D01*
X179127417Y-106709757D01*
X179155581Y-106673446D01*
X179187807Y-106632016D01*
X179221546Y-106588736D01*
X179254247Y-106546872D01*
X179283359Y-106509690D01*
X179306333Y-106480458D01*
X179320618Y-106462441D01*
X179323638Y-106458739D01*
X179335084Y-106444637D01*
X179357504Y-106416417D01*
X179389391Y-106375995D01*
X179429238Y-106325287D01*
X179475537Y-106266212D01*
X179526782Y-106200685D01*
X179562447Y-106155006D01*
X179596974Y-106110844D01*
X179634980Y-106062365D01*
X179669110Y-106018950D01*
X179673982Y-106012766D01*
X179702509Y-105976584D01*
X179722490Y-105951185D01*
X179737945Y-105931388D01*
X179752895Y-105912007D01*
X179771360Y-105887859D01*
X179797360Y-105853759D01*
X179801229Y-105848684D01*
X179828223Y-105813533D01*
X179851792Y-105783303D01*
X179868377Y-105762538D01*
X179872833Y-105757244D01*
X179886432Y-105740787D01*
X179906806Y-105714945D01*
X179921168Y-105696284D01*
X179941081Y-105670404D01*
X179955887Y-105651642D01*
X179961077Y-105645484D01*
X179969234Y-105635554D01*
X179986434Y-105613645D01*
X180009401Y-105583938D01*
X180016749Y-105574364D01*
X180043864Y-105539563D01*
X180069299Y-105507932D01*
X180088198Y-105485491D01*
X180090409Y-105483027D01*
X180106083Y-105464192D01*
X180113405Y-105452152D01*
X180113477Y-105451588D01*
X180119532Y-105440670D01*
X180134545Y-105421310D01*
X180139141Y-105415924D01*
X180156947Y-105394422D01*
X180182493Y-105362312D01*
X180211317Y-105325233D01*
X180222817Y-105310204D01*
X180248596Y-105276572D01*
X180269783Y-105249360D01*
X180283357Y-105232426D01*
X180286448Y-105228924D01*
X180292522Y-105221979D01*
X180305959Y-105205163D01*
X180327978Y-105176914D01*
X180359793Y-105135671D01*
X180402620Y-105079875D01*
X180404872Y-105076936D01*
X180434374Y-105039883D01*
X180457964Y-105015447D01*
X180481158Y-104999447D01*
X180509472Y-104987698D01*
X180531621Y-104980830D01*
X180576904Y-104967307D01*
X180624684Y-104952593D01*
X180651957Y-104943943D01*
X180689139Y-104932153D01*
X180741272Y-104915931D01*
X180803837Y-104896667D01*
X180872313Y-104875751D01*
X180942183Y-104854572D01*
X180966917Y-104847118D01*
X180996639Y-104838097D01*
X181038952Y-104825158D01*
X181087035Y-104810389D01*
X181114237Y-104802006D01*
X181171536Y-104784357D01*
X181235566Y-104764687D01*
X181295149Y-104746429D01*
X181312357Y-104741169D01*
X181360497Y-104726432D01*
X181420450Y-104708033D01*
X181484614Y-104688305D01*
X181545387Y-104669585D01*
X181546037Y-104669385D01*
X181624029Y-104645338D01*
X181686448Y-104626117D01*
X181737135Y-104610547D01*
X181779930Y-104597453D01*
X181818675Y-104585661D01*
X181857210Y-104573996D01*
X181899377Y-104561284D01*
X181911797Y-104557546D01*
X181968623Y-104540357D01*
X182030680Y-104521445D01*
X182087931Y-104503874D01*
X182109917Y-104497076D01*
X182161572Y-104481150D01*
X182222659Y-104462465D01*
X182283139Y-104444086D01*
X182308037Y-104436566D01*
X182354340Y-104422529D01*
X182395683Y-104409843D01*
X182426777Y-104400137D01*
X182440117Y-104395819D01*
X182459486Y-104389608D01*
X182493542Y-104379025D01*
X182537510Y-104365543D01*
X182586615Y-104350634D01*
X182587437Y-104350386D01*
X182649369Y-104331559D01*
X182720615Y-104309716D01*
X182791109Y-104287951D01*
X182836357Y-104273875D01*
X182894359Y-104255908D01*
X182955116Y-104237350D01*
X183010934Y-104220536D01*
X183049717Y-104209079D01*
X183101682Y-104193761D01*
X183155206Y-104177631D01*
X183205696Y-104162110D01*
X183248561Y-104148619D01*
X183279211Y-104138578D01*
X183289670Y-104134860D01*
X183300257Y-104133501D01*
X183302118Y-104141806D01*
G36*
X182780770Y-104990564D02*
G01*
X182785405Y-104997546D01*
X182785557Y-105000130D01*
X182780753Y-105013783D01*
X182776581Y-105015564D01*
X182766156Y-105023809D01*
X182761440Y-105033344D01*
X182753835Y-105048327D01*
X182737484Y-105076505D01*
X182714690Y-105114021D01*
X182687759Y-105157017D01*
X182684026Y-105162884D01*
X182656366Y-105206784D01*
X182632164Y-105246151D01*
X182613852Y-105276960D01*
X182603863Y-105295187D01*
X182603362Y-105296284D01*
X182593608Y-105314738D01*
X182576041Y-105344577D01*
X182553992Y-105380192D01*
X182547512Y-105390368D01*
X182526282Y-105424608D01*
X182510150Y-105452758D01*
X182501723Y-105470186D01*
X182501077Y-105472867D01*
X182494494Y-105482658D01*
X182492551Y-105482924D01*
X182483314Y-105491223D01*
X182470140Y-105512102D01*
X182464703Y-105522648D01*
X182448647Y-105550055D01*
X182432166Y-105569956D01*
X182427872Y-105573308D01*
X182412240Y-105577831D01*
X182380122Y-105583392D01*
X182335291Y-105589464D01*
X182281518Y-105595523D01*
X182239819Y-105599541D01*
X182165514Y-105606276D01*
X182081649Y-105613988D01*
X181997440Y-105621824D01*
X181922099Y-105628931D01*
X181906717Y-105630399D01*
X181757999Y-105644605D01*
X181624549Y-105657283D01*
X181501415Y-105668897D01*
X181383642Y-105679906D01*
X181266277Y-105690774D01*
X181144366Y-105701963D01*
X181012955Y-105713934D01*
X180936437Y-105720873D01*
X180871933Y-105726889D01*
X180806787Y-105733266D01*
X180747054Y-105739391D01*
X180698788Y-105744653D01*
X180682437Y-105746574D01*
X180634592Y-105751629D01*
X180587082Y-105755378D01*
X180549030Y-105757120D01*
X180544195Y-105757166D01*
X180520701Y-105757908D01*
X180501496Y-105761599D01*
X180482216Y-105770555D01*
X180458499Y-105787095D01*
X180425983Y-105813537D01*
X180405406Y-105830904D01*
X180361251Y-105868168D01*
X180308609Y-105912350D01*
X180254665Y-105957431D01*
X180214406Y-105990924D01*
X180165277Y-106031834D01*
X180112035Y-106076413D01*
X180061653Y-106118811D01*
X180026710Y-106148404D01*
X179991766Y-106177955D01*
X179945378Y-106216927D01*
X179891762Y-106261792D01*
X179835134Y-106309023D01*
X179781913Y-106353264D01*
X179731870Y-106394812D01*
X179685973Y-106432969D01*
X179646963Y-106465453D01*
X179617581Y-106489980D01*
X179600569Y-106504268D01*
X179598930Y-106505664D01*
X179581035Y-106520659D01*
X179552622Y-106544110D01*
X179518960Y-106571676D01*
X179508496Y-106580204D01*
X179474076Y-106608420D01*
X179443138Y-106634129D01*
X179421051Y-106652860D01*
X179417006Y-106656404D01*
X179398559Y-106672235D01*
X179369697Y-106696376D01*
X179335790Y-106724344D01*
X179325691Y-106732604D01*
X179289379Y-106762608D01*
X179244047Y-106800604D01*
X179196024Y-106841264D01*
X179159720Y-106872304D01*
X179115224Y-106910110D01*
X179083729Y-106935596D01*
X179063214Y-106950120D01*
X179051657Y-106955042D01*
X179047036Y-106951724D01*
X179046677Y-106948337D01*
X179053711Y-106940227D01*
X179074178Y-106918732D01*
X179107123Y-106884818D01*
X179151590Y-106839450D01*
X179206624Y-106783592D01*
X179271271Y-106718209D01*
X179344575Y-106644267D01*
X179425581Y-106562730D01*
X179513334Y-106474563D01*
X179606879Y-106380732D01*
X179705262Y-106282200D01*
X179778248Y-106209197D01*
X179902480Y-106085101D01*
X180013157Y-105974770D01*
X180111000Y-105877507D01*
X180196728Y-105792617D01*
X180271062Y-105719403D01*
X180334722Y-105657169D01*
X180388430Y-105605218D01*
X180432904Y-105562856D01*
X180468865Y-105529385D01*
X180497034Y-105504110D01*
X180518131Y-105486333D01*
X180532876Y-105475360D01*
X180541990Y-105470493D01*
X180542788Y-105470275D01*
X180569175Y-105464372D01*
X180607427Y-105455996D01*
X180649533Y-105446901D01*
X180651957Y-105446381D01*
X180700100Y-105436023D01*
X180750611Y-105425089D01*
X180789117Y-105416695D01*
X180832924Y-105407183D01*
X180883926Y-105396236D01*
X180921197Y-105388317D01*
X180957838Y-105380471D01*
X181008257Y-105369527D01*
X181066399Y-105356807D01*
X181126209Y-105343630D01*
X181139637Y-105340658D01*
X181231555Y-105320368D01*
X181306731Y-105303957D01*
X181368229Y-105290767D01*
X181419114Y-105280144D01*
X181462452Y-105271430D01*
X181469837Y-105269985D01*
X181487726Y-105266451D01*
X181507364Y-105262443D01*
X181531354Y-105257399D01*
X181562303Y-105250755D01*
X181602816Y-105241948D01*
X181655498Y-105230415D01*
X181722956Y-105215593D01*
X181802577Y-105198068D01*
X181850145Y-105187754D01*
X181895980Y-105178093D01*
X181932475Y-105170678D01*
X181942277Y-105168787D01*
X181968806Y-105163460D01*
X182010140Y-105154751D01*
X182061257Y-105143734D01*
X182117135Y-105131485D01*
X182135317Y-105127455D01*
X182194644Y-105114323D01*
X182253706Y-105101348D01*
X182306447Y-105089853D01*
X182346814Y-105081163D01*
X182353757Y-105079690D01*
X182402733Y-105069300D01*
X182455831Y-105057964D01*
X182490917Y-105050428D01*
X182536715Y-105040751D01*
X182584770Y-105030907D01*
X182612837Y-105025340D01*
X182650548Y-105017509D01*
X182684993Y-105009517D01*
X182699197Y-105005782D01*
X182741077Y-104994459D01*
X182767131Y-104989461D01*
X182780770Y-104990564D01*
G37*
X182780770Y-104990564D02*
X182785405Y-104997546D01*
X182785557Y-105000130D01*
X182780753Y-105013783D01*
X182776581Y-105015564D01*
X182766156Y-105023809D01*
X182761440Y-105033344D01*
X182753835Y-105048327D01*
X182737484Y-105076505D01*
X182714690Y-105114021D01*
X182687759Y-105157017D01*
X182684026Y-105162884D01*
X182656366Y-105206784D01*
X182632164Y-105246151D01*
X182613852Y-105276960D01*
X182603863Y-105295187D01*
X182603362Y-105296284D01*
X182593608Y-105314738D01*
X182576041Y-105344577D01*
X182553992Y-105380192D01*
X182547512Y-105390368D01*
X182526282Y-105424608D01*
X182510150Y-105452758D01*
X182501723Y-105470186D01*
X182501077Y-105472867D01*
X182494494Y-105482658D01*
X182492551Y-105482924D01*
X182483314Y-105491223D01*
X182470140Y-105512102D01*
X182464703Y-105522648D01*
X182448647Y-105550055D01*
X182432166Y-105569956D01*
X182427872Y-105573308D01*
X182412240Y-105577831D01*
X182380122Y-105583392D01*
X182335291Y-105589464D01*
X182281518Y-105595523D01*
X182239819Y-105599541D01*
X182165514Y-105606276D01*
X182081649Y-105613988D01*
X181997440Y-105621824D01*
X181922099Y-105628931D01*
X181906717Y-105630399D01*
X181757999Y-105644605D01*
X181624549Y-105657283D01*
X181501415Y-105668897D01*
X181383642Y-105679906D01*
X181266277Y-105690774D01*
X181144366Y-105701963D01*
X181012955Y-105713934D01*
X180936437Y-105720873D01*
X180871933Y-105726889D01*
X180806787Y-105733266D01*
X180747054Y-105739391D01*
X180698788Y-105744653D01*
X180682437Y-105746574D01*
X180634592Y-105751629D01*
X180587082Y-105755378D01*
X180549030Y-105757120D01*
X180544195Y-105757166D01*
X180520701Y-105757908D01*
X180501496Y-105761599D01*
X180482216Y-105770555D01*
X180458499Y-105787095D01*
X180425983Y-105813537D01*
X180405406Y-105830904D01*
X180361251Y-105868168D01*
X180308609Y-105912350D01*
X180254665Y-105957431D01*
X180214406Y-105990924D01*
X180165277Y-106031834D01*
X180112035Y-106076413D01*
X180061653Y-106118811D01*
X180026710Y-106148404D01*
X179991766Y-106177955D01*
X179945378Y-106216927D01*
X179891762Y-106261792D01*
X179835134Y-106309023D01*
X179781913Y-106353264D01*
X179731870Y-106394812D01*
X179685973Y-106432969D01*
X179646963Y-106465453D01*
X179617581Y-106489980D01*
X179600569Y-106504268D01*
X179598930Y-106505664D01*
X179581035Y-106520659D01*
X179552622Y-106544110D01*
X179518960Y-106571676D01*
X179508496Y-106580204D01*
X179474076Y-106608420D01*
X179443138Y-106634129D01*
X179421051Y-106652860D01*
X179417006Y-106656404D01*
X179398559Y-106672235D01*
X179369697Y-106696376D01*
X179335790Y-106724344D01*
X179325691Y-106732604D01*
X179289379Y-106762608D01*
X179244047Y-106800604D01*
X179196024Y-106841264D01*
X179159720Y-106872304D01*
X179115224Y-106910110D01*
X179083729Y-106935596D01*
X179063214Y-106950120D01*
X179051657Y-106955042D01*
X179047036Y-106951724D01*
X179046677Y-106948337D01*
X179053711Y-106940227D01*
X179074178Y-106918732D01*
X179107123Y-106884818D01*
X179151590Y-106839450D01*
X179206624Y-106783592D01*
X179271271Y-106718209D01*
X179344575Y-106644267D01*
X179425581Y-106562730D01*
X179513334Y-106474563D01*
X179606879Y-106380732D01*
X179705262Y-106282200D01*
X179778248Y-106209197D01*
X179902480Y-106085101D01*
X180013157Y-105974770D01*
X180111000Y-105877507D01*
X180196728Y-105792617D01*
X180271062Y-105719403D01*
X180334722Y-105657169D01*
X180388430Y-105605218D01*
X180432904Y-105562856D01*
X180468865Y-105529385D01*
X180497034Y-105504110D01*
X180518131Y-105486333D01*
X180532876Y-105475360D01*
X180541990Y-105470493D01*
X180542788Y-105470275D01*
X180569175Y-105464372D01*
X180607427Y-105455996D01*
X180649533Y-105446901D01*
X180651957Y-105446381D01*
X180700100Y-105436023D01*
X180750611Y-105425089D01*
X180789117Y-105416695D01*
X180832924Y-105407183D01*
X180883926Y-105396236D01*
X180921197Y-105388317D01*
X180957838Y-105380471D01*
X181008257Y-105369527D01*
X181066399Y-105356807D01*
X181126209Y-105343630D01*
X181139637Y-105340658D01*
X181231555Y-105320368D01*
X181306731Y-105303957D01*
X181368229Y-105290767D01*
X181419114Y-105280144D01*
X181462452Y-105271430D01*
X181469837Y-105269985D01*
X181487726Y-105266451D01*
X181507364Y-105262443D01*
X181531354Y-105257399D01*
X181562303Y-105250755D01*
X181602816Y-105241948D01*
X181655498Y-105230415D01*
X181722956Y-105215593D01*
X181802577Y-105198068D01*
X181850145Y-105187754D01*
X181895980Y-105178093D01*
X181932475Y-105170678D01*
X181942277Y-105168787D01*
X181968806Y-105163460D01*
X182010140Y-105154751D01*
X182061257Y-105143734D01*
X182117135Y-105131485D01*
X182135317Y-105127455D01*
X182194644Y-105114323D01*
X182253706Y-105101348D01*
X182306447Y-105089853D01*
X182346814Y-105081163D01*
X182353757Y-105079690D01*
X182402733Y-105069300D01*
X182455831Y-105057964D01*
X182490917Y-105050428D01*
X182536715Y-105040751D01*
X182584770Y-105030907D01*
X182612837Y-105025340D01*
X182650548Y-105017509D01*
X182684993Y-105009517D01*
X182699197Y-105005782D01*
X182741077Y-104994459D01*
X182767131Y-104989461D01*
X182780770Y-104990564D01*
G36*
X185634068Y-110643476D02*
G01*
X185650654Y-110615900D01*
X185661352Y-110597616D01*
X185679870Y-110565462D01*
X185704022Y-110523251D01*
X185731623Y-110474798D01*
X185746487Y-110448624D01*
X185825734Y-110308924D01*
X185876452Y-110308924D01*
X185906633Y-110310047D01*
X185920437Y-110314300D01*
X185921727Y-110323011D01*
X185921265Y-110324312D01*
X185914649Y-110337234D01*
X185899341Y-110365017D01*
X185876868Y-110404957D01*
X185848755Y-110454352D01*
X185816530Y-110510499D01*
X185798258Y-110542151D01*
X185681157Y-110744601D01*
X185681157Y-111081084D01*
X185589717Y-111081084D01*
X185589717Y-110747542D01*
X185337873Y-110308924D01*
X185443350Y-110308924D01*
X185634068Y-110643476D01*
G37*
X185634068Y-110643476D02*
X185650654Y-110615900D01*
X185661352Y-110597616D01*
X185679870Y-110565462D01*
X185704022Y-110523251D01*
X185731623Y-110474798D01*
X185746487Y-110448624D01*
X185825734Y-110308924D01*
X185876452Y-110308924D01*
X185906633Y-110310047D01*
X185920437Y-110314300D01*
X185921727Y-110323011D01*
X185921265Y-110324312D01*
X185914649Y-110337234D01*
X185899341Y-110365017D01*
X185876868Y-110404957D01*
X185848755Y-110454352D01*
X185816530Y-110510499D01*
X185798258Y-110542151D01*
X185681157Y-110744601D01*
X185681157Y-111081084D01*
X185589717Y-111081084D01*
X185589717Y-110747542D01*
X185337873Y-110308924D01*
X185443350Y-110308924D01*
X185634068Y-110643476D01*
G36*
X178678377Y-108411312D02*
G01*
X178762006Y-108412693D01*
X178828229Y-108414082D01*
X178879958Y-108415728D01*
X178920104Y-108417883D01*
X178951581Y-108420797D01*
X178977300Y-108424721D01*
X179000173Y-108429907D01*
X179023112Y-108436605D01*
X179041597Y-108442601D01*
X179140221Y-108485333D01*
X179230032Y-108544336D01*
X179308564Y-108617198D01*
X179373350Y-108701508D01*
X179421921Y-108794855D01*
X179433407Y-108825564D01*
X179450318Y-108893995D01*
X179459818Y-108973300D01*
X179461533Y-109055289D01*
X179455091Y-109131773D01*
X179448841Y-109164773D01*
X179415950Y-109261685D01*
X179365352Y-109352688D01*
X179299381Y-109435214D01*
X179220372Y-109506697D01*
X179130662Y-109564567D01*
X179054020Y-109598876D01*
X179034598Y-109605602D01*
X179015441Y-109610938D01*
X178993878Y-109615086D01*
X178967237Y-109618243D01*
X178932846Y-109620611D01*
X178888033Y-109622388D01*
X178830127Y-109623774D01*
X178756456Y-109624969D01*
X178693617Y-109625804D01*
X178396437Y-109629580D01*
X178396437Y-109356369D01*
X178721557Y-109356369D01*
X178810457Y-109351799D01*
X178877449Y-109345199D01*
X178930637Y-109332430D01*
X178952328Y-109324064D01*
X179008455Y-109290533D01*
X179057684Y-109244184D01*
X179095104Y-109190369D01*
X179111950Y-109150094D01*
X179120414Y-109110555D01*
X179126215Y-109062339D01*
X179127957Y-109023684D01*
X179122612Y-108945660D01*
X179105620Y-108881011D01*
X179075538Y-108825542D01*
X179048701Y-108792868D01*
X179018327Y-108763457D01*
X178987088Y-108738015D01*
X178965647Y-108724254D01*
X178916064Y-108705294D01*
X178855480Y-108691207D01*
X178793000Y-108683915D01*
X178771856Y-108683324D01*
X178721557Y-108683324D01*
X178721557Y-109356369D01*
X178396437Y-109356369D01*
X178396437Y-108406896D01*
X178678377Y-108411312D01*
G37*
X178678377Y-108411312D02*
X178762006Y-108412693D01*
X178828229Y-108414082D01*
X178879958Y-108415728D01*
X178920104Y-108417883D01*
X178951581Y-108420797D01*
X178977300Y-108424721D01*
X179000173Y-108429907D01*
X179023112Y-108436605D01*
X179041597Y-108442601D01*
X179140221Y-108485333D01*
X179230032Y-108544336D01*
X179308564Y-108617198D01*
X179373350Y-108701508D01*
X179421921Y-108794855D01*
X179433407Y-108825564D01*
X179450318Y-108893995D01*
X179459818Y-108973300D01*
X179461533Y-109055289D01*
X179455091Y-109131773D01*
X179448841Y-109164773D01*
X179415950Y-109261685D01*
X179365352Y-109352688D01*
X179299381Y-109435214D01*
X179220372Y-109506697D01*
X179130662Y-109564567D01*
X179054020Y-109598876D01*
X179034598Y-109605602D01*
X179015441Y-109610938D01*
X178993878Y-109615086D01*
X178967237Y-109618243D01*
X178932846Y-109620611D01*
X178888033Y-109622388D01*
X178830127Y-109623774D01*
X178756456Y-109624969D01*
X178693617Y-109625804D01*
X178396437Y-109629580D01*
X178396437Y-109356369D01*
X178721557Y-109356369D01*
X178810457Y-109351799D01*
X178877449Y-109345199D01*
X178930637Y-109332430D01*
X178952328Y-109324064D01*
X179008455Y-109290533D01*
X179057684Y-109244184D01*
X179095104Y-109190369D01*
X179111950Y-109150094D01*
X179120414Y-109110555D01*
X179126215Y-109062339D01*
X179127957Y-109023684D01*
X179122612Y-108945660D01*
X179105620Y-108881011D01*
X179075538Y-108825542D01*
X179048701Y-108792868D01*
X179018327Y-108763457D01*
X178987088Y-108738015D01*
X178965647Y-108724254D01*
X178916064Y-108705294D01*
X178855480Y-108691207D01*
X178793000Y-108683915D01*
X178771856Y-108683324D01*
X178721557Y-108683324D01*
X178721557Y-109356369D01*
X178396437Y-109356369D01*
X178396437Y-108406896D01*
X178678377Y-108411312D01*
G36*
X175818222Y-110300447D02*
G01*
X175896155Y-110320919D01*
X175932414Y-110337459D01*
X175961325Y-110353811D01*
X175976862Y-110367665D01*
X175983661Y-110385934D01*
X175986356Y-110415531D01*
X175986507Y-110418144D01*
X175987435Y-110447918D01*
X175986528Y-110467279D01*
X175984988Y-110471484D01*
X175974816Y-110466253D01*
X175952916Y-110452633D01*
X175928050Y-110436255D01*
X175870093Y-110403347D01*
X175813394Y-110385526D01*
X175749369Y-110380101D01*
X175749026Y-110380100D01*
X175676146Y-110389816D01*
X175607772Y-110417774D01*
X175547001Y-110461944D01*
X175496931Y-110520299D01*
X175473690Y-110560503D01*
X175449810Y-110630539D01*
X175444173Y-110701669D01*
X175455117Y-110771178D01*
X175480983Y-110836350D01*
X175520107Y-110894470D01*
X175570829Y-110942825D01*
X175631489Y-110978699D01*
X175700424Y-110999377D01*
X175744677Y-111003355D01*
X175811014Y-110999187D01*
X175867020Y-110983037D01*
X175920301Y-110952469D01*
X175933172Y-110942988D01*
X175958780Y-110924065D01*
X175977364Y-110911488D01*
X175983524Y-110908364D01*
X175986411Y-110917491D01*
X175988214Y-110940757D01*
X175988517Y-110957589D01*
X175984759Y-110996839D01*
X175972789Y-111020850D01*
X175970365Y-111023241D01*
X175926457Y-111051641D01*
X175868874Y-111072531D01*
X175803124Y-111085107D01*
X175734713Y-111088565D01*
X175669148Y-111082100D01*
X175631991Y-111072640D01*
X175550934Y-111036136D01*
X175482923Y-110986236D01*
X175428561Y-110925428D01*
X175388451Y-110856196D01*
X175363195Y-110781030D01*
X175353397Y-110702414D01*
X175359659Y-110622837D01*
X175382585Y-110544784D01*
X175422777Y-110470743D01*
X175471808Y-110411975D01*
X175507238Y-110380642D01*
X175546974Y-110351561D01*
X175577206Y-110333795D01*
X175653361Y-110306830D01*
X175735495Y-110295732D01*
X175818222Y-110300447D01*
G37*
X175818222Y-110300447D02*
X175896155Y-110320919D01*
X175932414Y-110337459D01*
X175961325Y-110353811D01*
X175976862Y-110367665D01*
X175983661Y-110385934D01*
X175986356Y-110415531D01*
X175986507Y-110418144D01*
X175987435Y-110447918D01*
X175986528Y-110467279D01*
X175984988Y-110471484D01*
X175974816Y-110466253D01*
X175952916Y-110452633D01*
X175928050Y-110436255D01*
X175870093Y-110403347D01*
X175813394Y-110385526D01*
X175749369Y-110380101D01*
X175749026Y-110380100D01*
X175676146Y-110389816D01*
X175607772Y-110417774D01*
X175547001Y-110461944D01*
X175496931Y-110520299D01*
X175473690Y-110560503D01*
X175449810Y-110630539D01*
X175444173Y-110701669D01*
X175455117Y-110771178D01*
X175480983Y-110836350D01*
X175520107Y-110894470D01*
X175570829Y-110942825D01*
X175631489Y-110978699D01*
X175700424Y-110999377D01*
X175744677Y-111003355D01*
X175811014Y-110999187D01*
X175867020Y-110983037D01*
X175920301Y-110952469D01*
X175933172Y-110942988D01*
X175958780Y-110924065D01*
X175977364Y-110911488D01*
X175983524Y-110908364D01*
X175986411Y-110917491D01*
X175988214Y-110940757D01*
X175988517Y-110957589D01*
X175984759Y-110996839D01*
X175972789Y-111020850D01*
X175970365Y-111023241D01*
X175926457Y-111051641D01*
X175868874Y-111072531D01*
X175803124Y-111085107D01*
X175734713Y-111088565D01*
X175669148Y-111082100D01*
X175631991Y-111072640D01*
X175550934Y-111036136D01*
X175482923Y-110986236D01*
X175428561Y-110925428D01*
X175388451Y-110856196D01*
X175363195Y-110781030D01*
X175353397Y-110702414D01*
X175359659Y-110622837D01*
X175382585Y-110544784D01*
X175422777Y-110470743D01*
X175471808Y-110411975D01*
X175507238Y-110380642D01*
X175546974Y-110351561D01*
X175577206Y-110333795D01*
X175653361Y-110306830D01*
X175735495Y-110295732D01*
X175818222Y-110300447D01*
G36*
X183781687Y-103366667D02*
G01*
X183774980Y-103385336D01*
X183758740Y-103411172D01*
X183757016Y-103413501D01*
X183739224Y-103440687D01*
X183726936Y-103465519D01*
X183725851Y-103468704D01*
X183716950Y-103486439D01*
X183709432Y-103491564D01*
X183701022Y-103499803D01*
X183699957Y-103506804D01*
X183695824Y-103520348D01*
X183692337Y-103522054D01*
X183683735Y-103530224D01*
X183669125Y-103551430D01*
X183654917Y-103575394D01*
X183634234Y-103611053D01*
X183607874Y-103654660D01*
X183581308Y-103697176D01*
X183579604Y-103699844D01*
X183553028Y-103742463D01*
X183526153Y-103787326D01*
X183504567Y-103825096D01*
X183503611Y-103826844D01*
X183480520Y-103866933D01*
X183452867Y-103911839D01*
X183433903Y-103940941D01*
X183412992Y-103973032D01*
X183396396Y-104000429D01*
X183387946Y-104016691D01*
X183373878Y-104041826D01*
X183355280Y-104062077D01*
X183338408Y-104070676D01*
X183338022Y-104070684D01*
X183324338Y-104073615D01*
X183295284Y-104081643D01*
X183254827Y-104093617D01*
X183206933Y-104108388D01*
X183195500Y-104111992D01*
X183142479Y-104128706D01*
X183092152Y-104144457D01*
X183049902Y-104157568D01*
X183021112Y-104166361D01*
X183019237Y-104166922D01*
X182981076Y-104178351D01*
X182937639Y-104191444D01*
X182920177Y-104196733D01*
X182807718Y-104230652D01*
X182716977Y-104257746D01*
X182688618Y-104266311D01*
X182643493Y-104280113D01*
X182584235Y-104298339D01*
X182513477Y-104320176D01*
X182433851Y-104344811D01*
X182347990Y-104371431D01*
X182258526Y-104399223D01*
X182221677Y-104410687D01*
X182161785Y-104429231D01*
X182094555Y-104449900D01*
X182030670Y-104469412D01*
X182003237Y-104477736D01*
X181945481Y-104495307D01*
X181881594Y-104514905D01*
X181822071Y-104533304D01*
X181800037Y-104540167D01*
X181754226Y-104554426D01*
X181711726Y-104567553D01*
X181678933Y-104577577D01*
X181667957Y-104580874D01*
X181633567Y-104591282D01*
X181596216Y-104602880D01*
X181591757Y-104604288D01*
X181556432Y-104615284D01*
X181515414Y-104627789D01*
X181500317Y-104632322D01*
X181462225Y-104643808D01*
X181407492Y-104660482D01*
X181338880Y-104681496D01*
X181259149Y-104706003D01*
X181171061Y-104733155D01*
X181077378Y-104762104D01*
X181073597Y-104763274D01*
X181019636Y-104779957D01*
X180967806Y-104795958D01*
X180923680Y-104809556D01*
X180892837Y-104819032D01*
X180890717Y-104819680D01*
X180851365Y-104831850D01*
X180812100Y-104844197D01*
X180799277Y-104848293D01*
X180768926Y-104857703D01*
X180727707Y-104870030D01*
X180684309Y-104882679D01*
X180682437Y-104883216D01*
X180642514Y-104895022D01*
X180607646Y-104905966D01*
X180584653Y-104913899D01*
X180582898Y-104914594D01*
X180554929Y-104922842D01*
X180535644Y-104922556D01*
X180530037Y-104915920D01*
X180538632Y-104908361D01*
X180561751Y-104894709D01*
X180595389Y-104877219D01*
X180618937Y-104865831D01*
X180651966Y-104850233D01*
X180690687Y-104831876D01*
X180736978Y-104809861D01*
X180792722Y-104783293D01*
X180859798Y-104751274D01*
X180940087Y-104712907D01*
X181035469Y-104667296D01*
X181114237Y-104629615D01*
X181153988Y-104610571D01*
X181206955Y-104585159D01*
X181268046Y-104555823D01*
X181332167Y-104525009D01*
X181382106Y-104500995D01*
X181436911Y-104474703D01*
X181485097Y-104451724D01*
X181523809Y-104433408D01*
X181550194Y-104421104D01*
X181561399Y-104416161D01*
X181561567Y-104416124D01*
X181571159Y-104411881D01*
X181596485Y-104399964D01*
X181635005Y-104381587D01*
X181684181Y-104357964D01*
X181741473Y-104330311D01*
X181784557Y-104309444D01*
X181845992Y-104279709D01*
X181901077Y-104253165D01*
X181947272Y-104231027D01*
X181982035Y-104214508D01*
X182002826Y-104204825D01*
X182007698Y-104202764D01*
X182017383Y-104198555D01*
X182042585Y-104186806D01*
X182080533Y-104168831D01*
X182128456Y-104145944D01*
X182183581Y-104119460D01*
X182197559Y-104112722D01*
X182261670Y-104081837D01*
X182326474Y-104050686D01*
X182387169Y-104021572D01*
X182438956Y-103996798D01*
X182475677Y-103979310D01*
X182511070Y-103962489D01*
X182562171Y-103938158D01*
X182626352Y-103907569D01*
X182700987Y-103871976D01*
X182783451Y-103832632D01*
X182871116Y-103790789D01*
X182961356Y-103747700D01*
X183051546Y-103704620D01*
X183139058Y-103662800D01*
X183141157Y-103661797D01*
X183182099Y-103642200D01*
X183235376Y-103616659D01*
X183295012Y-103588041D01*
X183355033Y-103559213D01*
X183374837Y-103549694D01*
X183475071Y-103501581D01*
X183562624Y-103459710D01*
X183636555Y-103424522D01*
X183695927Y-103396463D01*
X183739801Y-103375976D01*
X183767238Y-103363504D01*
X183777242Y-103359484D01*
X183781687Y-103366667D01*
G37*
X183781687Y-103366667D02*
X183774980Y-103385336D01*
X183758740Y-103411172D01*
X183757016Y-103413501D01*
X183739224Y-103440687D01*
X183726936Y-103465519D01*
X183725851Y-103468704D01*
X183716950Y-103486439D01*
X183709432Y-103491564D01*
X183701022Y-103499803D01*
X183699957Y-103506804D01*
X183695824Y-103520348D01*
X183692337Y-103522054D01*
X183683735Y-103530224D01*
X183669125Y-103551430D01*
X183654917Y-103575394D01*
X183634234Y-103611053D01*
X183607874Y-103654660D01*
X183581308Y-103697176D01*
X183579604Y-103699844D01*
X183553028Y-103742463D01*
X183526153Y-103787326D01*
X183504567Y-103825096D01*
X183503611Y-103826844D01*
X183480520Y-103866933D01*
X183452867Y-103911839D01*
X183433903Y-103940941D01*
X183412992Y-103973032D01*
X183396396Y-104000429D01*
X183387946Y-104016691D01*
X183373878Y-104041826D01*
X183355280Y-104062077D01*
X183338408Y-104070676D01*
X183338022Y-104070684D01*
X183324338Y-104073615D01*
X183295284Y-104081643D01*
X183254827Y-104093617D01*
X183206933Y-104108388D01*
X183195500Y-104111992D01*
X183142479Y-104128706D01*
X183092152Y-104144457D01*
X183049902Y-104157568D01*
X183021112Y-104166361D01*
X183019237Y-104166922D01*
X182981076Y-104178351D01*
X182937639Y-104191444D01*
X182920177Y-104196733D01*
X182807718Y-104230652D01*
X182716977Y-104257746D01*
X182688618Y-104266311D01*
X182643493Y-104280113D01*
X182584235Y-104298339D01*
X182513477Y-104320176D01*
X182433851Y-104344811D01*
X182347990Y-104371431D01*
X182258526Y-104399223D01*
X182221677Y-104410687D01*
X182161785Y-104429231D01*
X182094555Y-104449900D01*
X182030670Y-104469412D01*
X182003237Y-104477736D01*
X181945481Y-104495307D01*
X181881594Y-104514905D01*
X181822071Y-104533304D01*
X181800037Y-104540167D01*
X181754226Y-104554426D01*
X181711726Y-104567553D01*
X181678933Y-104577577D01*
X181667957Y-104580874D01*
X181633567Y-104591282D01*
X181596216Y-104602880D01*
X181591757Y-104604288D01*
X181556432Y-104615284D01*
X181515414Y-104627789D01*
X181500317Y-104632322D01*
X181462225Y-104643808D01*
X181407492Y-104660482D01*
X181338880Y-104681496D01*
X181259149Y-104706003D01*
X181171061Y-104733155D01*
X181077378Y-104762104D01*
X181073597Y-104763274D01*
X181019636Y-104779957D01*
X180967806Y-104795958D01*
X180923680Y-104809556D01*
X180892837Y-104819032D01*
X180890717Y-104819680D01*
X180851365Y-104831850D01*
X180812100Y-104844197D01*
X180799277Y-104848293D01*
X180768926Y-104857703D01*
X180727707Y-104870030D01*
X180684309Y-104882679D01*
X180682437Y-104883216D01*
X180642514Y-104895022D01*
X180607646Y-104905966D01*
X180584653Y-104913899D01*
X180582898Y-104914594D01*
X180554929Y-104922842D01*
X180535644Y-104922556D01*
X180530037Y-104915920D01*
X180538632Y-104908361D01*
X180561751Y-104894709D01*
X180595389Y-104877219D01*
X180618937Y-104865831D01*
X180651966Y-104850233D01*
X180690687Y-104831876D01*
X180736978Y-104809861D01*
X180792722Y-104783293D01*
X180859798Y-104751274D01*
X180940087Y-104712907D01*
X181035469Y-104667296D01*
X181114237Y-104629615D01*
X181153988Y-104610571D01*
X181206955Y-104585159D01*
X181268046Y-104555823D01*
X181332167Y-104525009D01*
X181382106Y-104500995D01*
X181436911Y-104474703D01*
X181485097Y-104451724D01*
X181523809Y-104433408D01*
X181550194Y-104421104D01*
X181561399Y-104416161D01*
X181561567Y-104416124D01*
X181571159Y-104411881D01*
X181596485Y-104399964D01*
X181635005Y-104381587D01*
X181684181Y-104357964D01*
X181741473Y-104330311D01*
X181784557Y-104309444D01*
X181845992Y-104279709D01*
X181901077Y-104253165D01*
X181947272Y-104231027D01*
X181982035Y-104214508D01*
X182002826Y-104204825D01*
X182007698Y-104202764D01*
X182017383Y-104198555D01*
X182042585Y-104186806D01*
X182080533Y-104168831D01*
X182128456Y-104145944D01*
X182183581Y-104119460D01*
X182197559Y-104112722D01*
X182261670Y-104081837D01*
X182326474Y-104050686D01*
X182387169Y-104021572D01*
X182438956Y-103996798D01*
X182475677Y-103979310D01*
X182511070Y-103962489D01*
X182562171Y-103938158D01*
X182626352Y-103907569D01*
X182700987Y-103871976D01*
X182783451Y-103832632D01*
X182871116Y-103790789D01*
X182961356Y-103747700D01*
X183051546Y-103704620D01*
X183139058Y-103662800D01*
X183141157Y-103661797D01*
X183182099Y-103642200D01*
X183235376Y-103616659D01*
X183295012Y-103588041D01*
X183355033Y-103559213D01*
X183374837Y-103549694D01*
X183475071Y-103501581D01*
X183562624Y-103459710D01*
X183636555Y-103424522D01*
X183695927Y-103396463D01*
X183739801Y-103375976D01*
X183767238Y-103363504D01*
X183777242Y-103359484D01*
X183781687Y-103366667D01*
G36*
X182382692Y-105637658D02*
G01*
X182385693Y-105638473D01*
X182382551Y-105648485D01*
X182370303Y-105672124D01*
X182350857Y-105705943D01*
X182326122Y-105746495D01*
X182323997Y-105749887D01*
X182298368Y-105791596D01*
X182277294Y-105827576D01*
X182262884Y-105854102D01*
X182257250Y-105867447D01*
X182257237Y-105867699D01*
X182250240Y-105878591D01*
X182247077Y-105879164D01*
X182237353Y-105887008D01*
X182236917Y-105890203D01*
X182231515Y-105904394D01*
X182217744Y-105928312D01*
X182207688Y-105943543D01*
X182188520Y-105972353D01*
X182163520Y-106011374D01*
X182137300Y-106053384D01*
X182130436Y-106064584D01*
X182082413Y-106143324D01*
X181786285Y-106141370D01*
X181705344Y-106140723D01*
X181608790Y-106139765D01*
X181501324Y-106138554D01*
X181387650Y-106137147D01*
X181272470Y-106135603D01*
X181160486Y-106133978D01*
X181073597Y-106132615D01*
X180970550Y-106131005D01*
X180862780Y-106129454D01*
X180754515Y-106128012D01*
X180649981Y-106126733D01*
X180553406Y-106125667D01*
X180469018Y-106124866D01*
X180405577Y-106124408D01*
X180326623Y-106123824D01*
X180265751Y-106122965D01*
X180220724Y-106121682D01*
X180189305Y-106119828D01*
X180169255Y-106117254D01*
X180158337Y-106113812D01*
X180154314Y-106109355D01*
X180154117Y-106107764D01*
X180159123Y-106094236D01*
X180163374Y-106092524D01*
X180174028Y-106086159D01*
X180197749Y-106068299D01*
X180232284Y-106040796D01*
X180275379Y-106005503D01*
X180324780Y-105964272D01*
X180378234Y-105918955D01*
X180433486Y-105871404D01*
X180451555Y-105855690D01*
X180480498Y-105832031D01*
X180506262Y-105813665D01*
X180520498Y-105805825D01*
X180536977Y-105802537D01*
X180569993Y-105798109D01*
X180615824Y-105792966D01*
X180670748Y-105787529D01*
X180720899Y-105783068D01*
X180797232Y-105776541D01*
X180883518Y-105769032D01*
X180970727Y-105761336D01*
X181049830Y-105754246D01*
X181073597Y-105752085D01*
X181239928Y-105737033D01*
X181389098Y-105723839D01*
X181520338Y-105712570D01*
X181632883Y-105703290D01*
X181723837Y-105696225D01*
X181783119Y-105691489D01*
X181844063Y-105686078D01*
X181899096Y-105680694D01*
X181937197Y-105676465D01*
X181988288Y-105670914D01*
X182047782Y-105665462D01*
X182103787Y-105661188D01*
X182109917Y-105660793D01*
X182166508Y-105656561D01*
X182229813Y-105650808D01*
X182286873Y-105644718D01*
X182290992Y-105644226D01*
X182331424Y-105639943D01*
X182363612Y-105637656D01*
X182382692Y-105637658D01*
G37*
X182382692Y-105637658D02*
X182385693Y-105638473D01*
X182382551Y-105648485D01*
X182370303Y-105672124D01*
X182350857Y-105705943D01*
X182326122Y-105746495D01*
X182323997Y-105749887D01*
X182298368Y-105791596D01*
X182277294Y-105827576D01*
X182262884Y-105854102D01*
X182257250Y-105867447D01*
X182257237Y-105867699D01*
X182250240Y-105878591D01*
X182247077Y-105879164D01*
X182237353Y-105887008D01*
X182236917Y-105890203D01*
X182231515Y-105904394D01*
X182217744Y-105928312D01*
X182207688Y-105943543D01*
X182188520Y-105972353D01*
X182163520Y-106011374D01*
X182137300Y-106053384D01*
X182130436Y-106064584D01*
X182082413Y-106143324D01*
X181786285Y-106141370D01*
X181705344Y-106140723D01*
X181608790Y-106139765D01*
X181501324Y-106138554D01*
X181387650Y-106137147D01*
X181272470Y-106135603D01*
X181160486Y-106133978D01*
X181073597Y-106132615D01*
X180970550Y-106131005D01*
X180862780Y-106129454D01*
X180754515Y-106128012D01*
X180649981Y-106126733D01*
X180553406Y-106125667D01*
X180469018Y-106124866D01*
X180405577Y-106124408D01*
X180326623Y-106123824D01*
X180265751Y-106122965D01*
X180220724Y-106121682D01*
X180189305Y-106119828D01*
X180169255Y-106117254D01*
X180158337Y-106113812D01*
X180154314Y-106109355D01*
X180154117Y-106107764D01*
X180159123Y-106094236D01*
X180163374Y-106092524D01*
X180174028Y-106086159D01*
X180197749Y-106068299D01*
X180232284Y-106040796D01*
X180275379Y-106005503D01*
X180324780Y-105964272D01*
X180378234Y-105918955D01*
X180433486Y-105871404D01*
X180451555Y-105855690D01*
X180480498Y-105832031D01*
X180506262Y-105813665D01*
X180520498Y-105805825D01*
X180536977Y-105802537D01*
X180569993Y-105798109D01*
X180615824Y-105792966D01*
X180670748Y-105787529D01*
X180720899Y-105783068D01*
X180797232Y-105776541D01*
X180883518Y-105769032D01*
X180970727Y-105761336D01*
X181049830Y-105754246D01*
X181073597Y-105752085D01*
X181239928Y-105737033D01*
X181389098Y-105723839D01*
X181520338Y-105712570D01*
X181632883Y-105703290D01*
X181723837Y-105696225D01*
X181783119Y-105691489D01*
X181844063Y-105686078D01*
X181899096Y-105680694D01*
X181937197Y-105676465D01*
X181988288Y-105670914D01*
X182047782Y-105665462D01*
X182103787Y-105661188D01*
X182109917Y-105660793D01*
X182166508Y-105656561D01*
X182229813Y-105650808D01*
X182286873Y-105644718D01*
X182290992Y-105644226D01*
X182331424Y-105639943D01*
X182363612Y-105637656D01*
X182382692Y-105637658D01*
G36*
X174741377Y-105638968D02*
G01*
X174767895Y-105642122D01*
X174809277Y-105646194D01*
X174860115Y-105650684D01*
X174915002Y-105655093D01*
X174921717Y-105655602D01*
X174983073Y-105660512D01*
X175047185Y-105666140D01*
X175106234Y-105671771D01*
X175150317Y-105676452D01*
X175199054Y-105681617D01*
X175259499Y-105687364D01*
X175323085Y-105692906D01*
X175368757Y-105696533D01*
X175454303Y-105703224D01*
X175557309Y-105711729D01*
X175675020Y-105721810D01*
X175804678Y-105733229D01*
X175943528Y-105745750D01*
X176008837Y-105751731D01*
X176079778Y-105758172D01*
X176162530Y-105765547D01*
X176248649Y-105773110D01*
X176329696Y-105780118D01*
X176361944Y-105782866D01*
X176422359Y-105788283D01*
X176476670Y-105793716D01*
X176521261Y-105798759D01*
X176552517Y-105803006D01*
X176566354Y-105805848D01*
X176575170Y-105810082D01*
X176587051Y-105817808D01*
X176604214Y-105830807D01*
X176628875Y-105850861D01*
X176663251Y-105879748D01*
X176709557Y-105919250D01*
X176739817Y-105945204D01*
X176771271Y-105971904D01*
X176810634Y-106004892D01*
X176850070Y-106037605D01*
X176855072Y-106041724D01*
X176885777Y-106068177D01*
X176909287Y-106090702D01*
X176921927Y-106105681D01*
X176923116Y-106108686D01*
X176915391Y-106111670D01*
X176891698Y-106114419D01*
X176851368Y-106116959D01*
X176793729Y-106119315D01*
X176718108Y-106121513D01*
X176623835Y-106123577D01*
X176510237Y-106125533D01*
X176448257Y-106126446D01*
X176328448Y-106128128D01*
X176193976Y-106130011D01*
X176050498Y-106132016D01*
X175903669Y-106134065D01*
X175759145Y-106136079D01*
X175622580Y-106137979D01*
X175499631Y-106139686D01*
X175489817Y-106139822D01*
X175006357Y-106146521D01*
X174988963Y-106122062D01*
X174975615Y-106102230D01*
X174955315Y-106070859D01*
X174931776Y-106033706D01*
X174924082Y-106021404D01*
X174901983Y-105986936D01*
X174883390Y-105959752D01*
X174871202Y-105944016D01*
X174868675Y-105941817D01*
X174860837Y-105930210D01*
X174860757Y-105928803D01*
X174855644Y-105917221D01*
X174841558Y-105891702D01*
X174820374Y-105855488D01*
X174793969Y-105811823D01*
X174779477Y-105788340D01*
X174751128Y-105741924D01*
X174727086Y-105701062D01*
X174709236Y-105669080D01*
X174699464Y-105649302D01*
X174698197Y-105645076D01*
X174705190Y-105637631D01*
X174727870Y-105637280D01*
X174741377Y-105638968D01*
G37*
X174741377Y-105638968D02*
X174767895Y-105642122D01*
X174809277Y-105646194D01*
X174860115Y-105650684D01*
X174915002Y-105655093D01*
X174921717Y-105655602D01*
X174983073Y-105660512D01*
X175047185Y-105666140D01*
X175106234Y-105671771D01*
X175150317Y-105676452D01*
X175199054Y-105681617D01*
X175259499Y-105687364D01*
X175323085Y-105692906D01*
X175368757Y-105696533D01*
X175454303Y-105703224D01*
X175557309Y-105711729D01*
X175675020Y-105721810D01*
X175804678Y-105733229D01*
X175943528Y-105745750D01*
X176008837Y-105751731D01*
X176079778Y-105758172D01*
X176162530Y-105765547D01*
X176248649Y-105773110D01*
X176329696Y-105780118D01*
X176361944Y-105782866D01*
X176422359Y-105788283D01*
X176476670Y-105793716D01*
X176521261Y-105798759D01*
X176552517Y-105803006D01*
X176566354Y-105805848D01*
X176575170Y-105810082D01*
X176587051Y-105817808D01*
X176604214Y-105830807D01*
X176628875Y-105850861D01*
X176663251Y-105879748D01*
X176709557Y-105919250D01*
X176739817Y-105945204D01*
X176771271Y-105971904D01*
X176810634Y-106004892D01*
X176850070Y-106037605D01*
X176855072Y-106041724D01*
X176885777Y-106068177D01*
X176909287Y-106090702D01*
X176921927Y-106105681D01*
X176923116Y-106108686D01*
X176915391Y-106111670D01*
X176891698Y-106114419D01*
X176851368Y-106116959D01*
X176793729Y-106119315D01*
X176718108Y-106121513D01*
X176623835Y-106123577D01*
X176510237Y-106125533D01*
X176448257Y-106126446D01*
X176328448Y-106128128D01*
X176193976Y-106130011D01*
X176050498Y-106132016D01*
X175903669Y-106134065D01*
X175759145Y-106136079D01*
X175622580Y-106137979D01*
X175499631Y-106139686D01*
X175489817Y-106139822D01*
X175006357Y-106146521D01*
X174988963Y-106122062D01*
X174975615Y-106102230D01*
X174955315Y-106070859D01*
X174931776Y-106033706D01*
X174924082Y-106021404D01*
X174901983Y-105986936D01*
X174883390Y-105959752D01*
X174871202Y-105944016D01*
X174868675Y-105941817D01*
X174860837Y-105930210D01*
X174860757Y-105928803D01*
X174855644Y-105917221D01*
X174841558Y-105891702D01*
X174820374Y-105855488D01*
X174793969Y-105811823D01*
X174779477Y-105788340D01*
X174751128Y-105741924D01*
X174727086Y-105701062D01*
X174709236Y-105669080D01*
X174699464Y-105649302D01*
X174698197Y-105645076D01*
X174705190Y-105637631D01*
X174727870Y-105637280D01*
X174741377Y-105638968D01*
G36*
X174323842Y-104991735D02*
G01*
X174361617Y-104998759D01*
X174390413Y-105004922D01*
X174474992Y-105023826D01*
X174546402Y-105039576D01*
X174611268Y-105053617D01*
X174676212Y-105067393D01*
X174693117Y-105070940D01*
X174733900Y-105079524D01*
X174768924Y-105086971D01*
X174791846Y-105091931D01*
X174794717Y-105092573D01*
X174824526Y-105099253D01*
X174869076Y-105109134D01*
X174923318Y-105121107D01*
X174982208Y-105134064D01*
X175040697Y-105146894D01*
X175093740Y-105158490D01*
X175136290Y-105167742D01*
X175160477Y-105172944D01*
X175236471Y-105189099D01*
X175295988Y-105201768D01*
X175342428Y-105211680D01*
X175379191Y-105219562D01*
X175409677Y-105226143D01*
X175437286Y-105232150D01*
X175450037Y-105234938D01*
X175494869Y-105244427D01*
X175547909Y-105255180D01*
X175595657Y-105264482D01*
X175633978Y-105272135D01*
X175664360Y-105278928D01*
X175681426Y-105283640D01*
X175682951Y-105284331D01*
X175696609Y-105288543D01*
X175723479Y-105294280D01*
X175745611Y-105298243D01*
X175780504Y-105304710D01*
X175831508Y-105315062D01*
X175894956Y-105328513D01*
X175967181Y-105344281D01*
X176044518Y-105361581D01*
X176085037Y-105370809D01*
X176115010Y-105377481D01*
X176156539Y-105386478D01*
X176201285Y-105395997D01*
X176206957Y-105397190D01*
X176260323Y-105408530D01*
X176320002Y-105421412D01*
X176369517Y-105432264D01*
X176418618Y-105443043D01*
X176470030Y-105454176D01*
X176512828Y-105463297D01*
X176513759Y-105463493D01*
X176576722Y-105476717D01*
X177304963Y-106205010D01*
X177405942Y-106306141D01*
X177502697Y-106403325D01*
X177594277Y-106495590D01*
X177679730Y-106581965D01*
X177758104Y-106661477D01*
X177828447Y-106733156D01*
X177889806Y-106796029D01*
X177941231Y-106849125D01*
X177981770Y-106891473D01*
X178010469Y-106922099D01*
X178026379Y-106940034D01*
X178029400Y-106944503D01*
X178020552Y-106943935D01*
X178000650Y-106932176D01*
X177973706Y-106911671D01*
X177968905Y-106907653D01*
X177931325Y-106875931D01*
X177891284Y-106842328D01*
X177863273Y-106818964D01*
X177797651Y-106764427D01*
X177743234Y-106719079D01*
X177695549Y-106679177D01*
X177650129Y-106640976D01*
X177602502Y-106600734D01*
X177582830Y-106584071D01*
X177547248Y-106554157D01*
X177507508Y-106521088D01*
X177486795Y-106504004D01*
X177451377Y-106474729D01*
X177414458Y-106443907D01*
X177395355Y-106427804D01*
X177362886Y-106400506D01*
X177325285Y-106369227D01*
X177303915Y-106351604D01*
X177268400Y-106322308D01*
X177231278Y-106291469D01*
X177212072Y-106275404D01*
X177187750Y-106255075D01*
X177152413Y-106225672D01*
X177110715Y-106191060D01*
X177067307Y-106155104D01*
X177065348Y-106153484D01*
X177016150Y-106112618D01*
X176962861Y-106068084D01*
X176912443Y-106025715D01*
X176877332Y-105996004D01*
X176833355Y-105958723D01*
X176781352Y-105914820D01*
X176728905Y-105870688D01*
X176696609Y-105843604D01*
X176599512Y-105762324D01*
X176469274Y-105750675D01*
X176412146Y-105745579D01*
X176342088Y-105739351D01*
X176266410Y-105732640D01*
X176192424Y-105726095D01*
X176161237Y-105723341D01*
X176100046Y-105717813D01*
X176043015Y-105712420D01*
X175994443Y-105707587D01*
X175958623Y-105703738D01*
X175942797Y-105701765D01*
X175916353Y-105698578D01*
X175875499Y-105694410D01*
X175826085Y-105689831D01*
X175780237Y-105685920D01*
X175741760Y-105682733D01*
X175701678Y-105679307D01*
X175657677Y-105675428D01*
X175607444Y-105670883D01*
X175548665Y-105665458D01*
X175479027Y-105658939D01*
X175396215Y-105651113D01*
X175297917Y-105641767D01*
X175181819Y-105630686D01*
X175175717Y-105630102D01*
X175102234Y-105623149D01*
X175019474Y-105615431D01*
X174936643Y-105607800D01*
X174862943Y-105601108D01*
X174849783Y-105599929D01*
X174793229Y-105594615D01*
X174742162Y-105589340D01*
X174700788Y-105584573D01*
X174673310Y-105580784D01*
X174665991Y-105579377D01*
X174646739Y-105567965D01*
X174624221Y-105541481D01*
X174597913Y-105500010D01*
X174570104Y-105452489D01*
X174550685Y-105419707D01*
X174537907Y-105398797D01*
X174530019Y-105386891D01*
X174525477Y-105381324D01*
X174511923Y-105363086D01*
X174497144Y-105337391D01*
X174488437Y-105317824D01*
X174479704Y-105302837D01*
X174474485Y-105300044D01*
X174465442Y-105291680D01*
X174455269Y-105272104D01*
X174443040Y-105247106D01*
X174424589Y-105214988D01*
X174414174Y-105198444D01*
X174390230Y-105160517D01*
X174365194Y-105118997D01*
X174356760Y-105104464D01*
X174340085Y-105077772D01*
X174326383Y-105060245D01*
X174320662Y-105056204D01*
X174312972Y-105048002D01*
X174312117Y-105041689D01*
X174305424Y-105023330D01*
X174295667Y-105010725D01*
X174285070Y-104995787D01*
X174285064Y-104988429D01*
X174296825Y-104988057D01*
X174323842Y-104991735D01*
G37*
X174323842Y-104991735D02*
X174361617Y-104998759D01*
X174390413Y-105004922D01*
X174474992Y-105023826D01*
X174546402Y-105039576D01*
X174611268Y-105053617D01*
X174676212Y-105067393D01*
X174693117Y-105070940D01*
X174733900Y-105079524D01*
X174768924Y-105086971D01*
X174791846Y-105091931D01*
X174794717Y-105092573D01*
X174824526Y-105099253D01*
X174869076Y-105109134D01*
X174923318Y-105121107D01*
X174982208Y-105134064D01*
X175040697Y-105146894D01*
X175093740Y-105158490D01*
X175136290Y-105167742D01*
X175160477Y-105172944D01*
X175236471Y-105189099D01*
X175295988Y-105201768D01*
X175342428Y-105211680D01*
X175379191Y-105219562D01*
X175409677Y-105226143D01*
X175437286Y-105232150D01*
X175450037Y-105234938D01*
X175494869Y-105244427D01*
X175547909Y-105255180D01*
X175595657Y-105264482D01*
X175633978Y-105272135D01*
X175664360Y-105278928D01*
X175681426Y-105283640D01*
X175682951Y-105284331D01*
X175696609Y-105288543D01*
X175723479Y-105294280D01*
X175745611Y-105298243D01*
X175780504Y-105304710D01*
X175831508Y-105315062D01*
X175894956Y-105328513D01*
X175967181Y-105344281D01*
X176044518Y-105361581D01*
X176085037Y-105370809D01*
X176115010Y-105377481D01*
X176156539Y-105386478D01*
X176201285Y-105395997D01*
X176206957Y-105397190D01*
X176260323Y-105408530D01*
X176320002Y-105421412D01*
X176369517Y-105432264D01*
X176418618Y-105443043D01*
X176470030Y-105454176D01*
X176512828Y-105463297D01*
X176513759Y-105463493D01*
X176576722Y-105476717D01*
X177304963Y-106205010D01*
X177405942Y-106306141D01*
X177502697Y-106403325D01*
X177594277Y-106495590D01*
X177679730Y-106581965D01*
X177758104Y-106661477D01*
X177828447Y-106733156D01*
X177889806Y-106796029D01*
X177941231Y-106849125D01*
X177981770Y-106891473D01*
X178010469Y-106922099D01*
X178026379Y-106940034D01*
X178029400Y-106944503D01*
X178020552Y-106943935D01*
X178000650Y-106932176D01*
X177973706Y-106911671D01*
X177968905Y-106907653D01*
X177931325Y-106875931D01*
X177891284Y-106842328D01*
X177863273Y-106818964D01*
X177797651Y-106764427D01*
X177743234Y-106719079D01*
X177695549Y-106679177D01*
X177650129Y-106640976D01*
X177602502Y-106600734D01*
X177582830Y-106584071D01*
X177547248Y-106554157D01*
X177507508Y-106521088D01*
X177486795Y-106504004D01*
X177451377Y-106474729D01*
X177414458Y-106443907D01*
X177395355Y-106427804D01*
X177362886Y-106400506D01*
X177325285Y-106369227D01*
X177303915Y-106351604D01*
X177268400Y-106322308D01*
X177231278Y-106291469D01*
X177212072Y-106275404D01*
X177187750Y-106255075D01*
X177152413Y-106225672D01*
X177110715Y-106191060D01*
X177067307Y-106155104D01*
X177065348Y-106153484D01*
X177016150Y-106112618D01*
X176962861Y-106068084D01*
X176912443Y-106025715D01*
X176877332Y-105996004D01*
X176833355Y-105958723D01*
X176781352Y-105914820D01*
X176728905Y-105870688D01*
X176696609Y-105843604D01*
X176599512Y-105762324D01*
X176469274Y-105750675D01*
X176412146Y-105745579D01*
X176342088Y-105739351D01*
X176266410Y-105732640D01*
X176192424Y-105726095D01*
X176161237Y-105723341D01*
X176100046Y-105717813D01*
X176043015Y-105712420D01*
X175994443Y-105707587D01*
X175958623Y-105703738D01*
X175942797Y-105701765D01*
X175916353Y-105698578D01*
X175875499Y-105694410D01*
X175826085Y-105689831D01*
X175780237Y-105685920D01*
X175741760Y-105682733D01*
X175701678Y-105679307D01*
X175657677Y-105675428D01*
X175607444Y-105670883D01*
X175548665Y-105665458D01*
X175479027Y-105658939D01*
X175396215Y-105651113D01*
X175297917Y-105641767D01*
X175181819Y-105630686D01*
X175175717Y-105630102D01*
X175102234Y-105623149D01*
X175019474Y-105615431D01*
X174936643Y-105607800D01*
X174862943Y-105601108D01*
X174849783Y-105599929D01*
X174793229Y-105594615D01*
X174742162Y-105589340D01*
X174700788Y-105584573D01*
X174673310Y-105580784D01*
X174665991Y-105579377D01*
X174646739Y-105567965D01*
X174624221Y-105541481D01*
X174597913Y-105500010D01*
X174570104Y-105452489D01*
X174550685Y-105419707D01*
X174537907Y-105398797D01*
X174530019Y-105386891D01*
X174525477Y-105381324D01*
X174511923Y-105363086D01*
X174497144Y-105337391D01*
X174488437Y-105317824D01*
X174479704Y-105302837D01*
X174474485Y-105300044D01*
X174465442Y-105291680D01*
X174455269Y-105272104D01*
X174443040Y-105247106D01*
X174424589Y-105214988D01*
X174414174Y-105198444D01*
X174390230Y-105160517D01*
X174365194Y-105118997D01*
X174356760Y-105104464D01*
X174340085Y-105077772D01*
X174326383Y-105060245D01*
X174320662Y-105056204D01*
X174312972Y-105048002D01*
X174312117Y-105041689D01*
X174305424Y-105023330D01*
X174295667Y-105010725D01*
X174285070Y-104995787D01*
X174285064Y-104988429D01*
X174296825Y-104988057D01*
X174323842Y-104991735D01*
G36*
X181952437Y-110390204D02*
G01*
X181759397Y-110390204D01*
X181759397Y-111081084D01*
X181678117Y-111081084D01*
X181678117Y-110390204D01*
X181485077Y-110390204D01*
X181485077Y-110308924D01*
X181952437Y-110308924D01*
X181952437Y-110390204D01*
G37*
X181952437Y-110390204D02*
X181759397Y-110390204D01*
X181759397Y-111081084D01*
X181678117Y-111081084D01*
X181678117Y-110390204D01*
X181485077Y-110390204D01*
X181485077Y-110308924D01*
X181952437Y-110308924D01*
X181952437Y-110390204D01*
G36*
X183555872Y-110308924D02*
G01*
X183640319Y-110312889D01*
X183707882Y-110325127D01*
X183760459Y-110346146D01*
X183797434Y-110373889D01*
X183830969Y-110420539D01*
X183848749Y-110474419D01*
X183851726Y-110531614D01*
X183840854Y-110588206D01*
X183817084Y-110640279D01*
X183781368Y-110683918D01*
X183734659Y-110715205D01*
X183712413Y-110723595D01*
X183686518Y-110732190D01*
X183671231Y-110738882D01*
X183669477Y-110740568D01*
X183675094Y-110749715D01*
X183690758Y-110772819D01*
X183714688Y-110807316D01*
X183745101Y-110850640D01*
X183780218Y-110900228D01*
X183786317Y-110908800D01*
X183822035Y-110959169D01*
X183853344Y-111003695D01*
X183878461Y-111039813D01*
X183895607Y-111064958D01*
X183902998Y-111076567D01*
X183903157Y-111077003D01*
X183893982Y-111079274D01*
X183870396Y-111080755D01*
X183849273Y-111081084D01*
X183795389Y-111081084D01*
X183681162Y-110913444D01*
X183645854Y-110862307D01*
X183614005Y-110817462D01*
X183587489Y-110781448D01*
X183568183Y-110756803D01*
X183557964Y-110746064D01*
X183557245Y-110745804D01*
X183553691Y-110755554D01*
X183550820Y-110783181D01*
X183548773Y-110826248D01*
X183547692Y-110882319D01*
X183547557Y-110913444D01*
X183547557Y-111081084D01*
X183456117Y-111081084D01*
X183456117Y-110666865D01*
X183547557Y-110666865D01*
X183605977Y-110659623D01*
X183644905Y-110653117D01*
X183680811Y-110644365D01*
X183696742Y-110638933D01*
X183729858Y-110615053D01*
X183751479Y-110578857D01*
X183760488Y-110535501D01*
X183755765Y-110490139D01*
X183737705Y-110450126D01*
X183704828Y-110417433D01*
X183658308Y-110397848D01*
X183596753Y-110390789D01*
X183595817Y-110390777D01*
X183547557Y-110390204D01*
X183547557Y-110666865D01*
X183456117Y-110666865D01*
X183456117Y-110308924D01*
X183555872Y-110308924D01*
G37*
X183555872Y-110308924D02*
X183640319Y-110312889D01*
X183707882Y-110325127D01*
X183760459Y-110346146D01*
X183797434Y-110373889D01*
X183830969Y-110420539D01*
X183848749Y-110474419D01*
X183851726Y-110531614D01*
X183840854Y-110588206D01*
X183817084Y-110640279D01*
X183781368Y-110683918D01*
X183734659Y-110715205D01*
X183712413Y-110723595D01*
X183686518Y-110732190D01*
X183671231Y-110738882D01*
X183669477Y-110740568D01*
X183675094Y-110749715D01*
X183690758Y-110772819D01*
X183714688Y-110807316D01*
X183745101Y-110850640D01*
X183780218Y-110900228D01*
X183786317Y-110908800D01*
X183822035Y-110959169D01*
X183853344Y-111003695D01*
X183878461Y-111039813D01*
X183895607Y-111064958D01*
X183902998Y-111076567D01*
X183903157Y-111077003D01*
X183893982Y-111079274D01*
X183870396Y-111080755D01*
X183849273Y-111081084D01*
X183795389Y-111081084D01*
X183681162Y-110913444D01*
X183645854Y-110862307D01*
X183614005Y-110817462D01*
X183587489Y-110781448D01*
X183568183Y-110756803D01*
X183557964Y-110746064D01*
X183557245Y-110745804D01*
X183553691Y-110755554D01*
X183550820Y-110783181D01*
X183548773Y-110826248D01*
X183547692Y-110882319D01*
X183547557Y-110913444D01*
X183547557Y-111081084D01*
X183456117Y-111081084D01*
X183456117Y-110666865D01*
X183547557Y-110666865D01*
X183605977Y-110659623D01*
X183644905Y-110653117D01*
X183680811Y-110644365D01*
X183696742Y-110638933D01*
X183729858Y-110615053D01*
X183751479Y-110578857D01*
X183760488Y-110535501D01*
X183755765Y-110490139D01*
X183737705Y-110450126D01*
X183704828Y-110417433D01*
X183658308Y-110397848D01*
X183596753Y-110390789D01*
X183595817Y-110390777D01*
X183547557Y-110390204D01*
X183547557Y-110666865D01*
X183456117Y-110666865D01*
X183456117Y-110308924D01*
X183555872Y-110308924D01*
G36*
X173659875Y-108411288D02*
G01*
X173819357Y-108414084D01*
X173818979Y-108830644D01*
X173818792Y-108936662D01*
X173818383Y-109024562D01*
X173817670Y-109096543D01*
X173816572Y-109154807D01*
X173815005Y-109201555D01*
X173812887Y-109238986D01*
X173810135Y-109269302D01*
X173806667Y-109294704D01*
X173802400Y-109317391D01*
X173800387Y-109326479D01*
X173770570Y-109413320D01*
X173724169Y-109489005D01*
X173662343Y-109552282D01*
X173586252Y-109601899D01*
X173519637Y-109629688D01*
X173472842Y-109640845D01*
X173411713Y-109649173D01*
X173342061Y-109654482D01*
X173269699Y-109656581D01*
X173200440Y-109655280D01*
X173140096Y-109650389D01*
X173100767Y-109643420D01*
X173013871Y-109612790D01*
X172935954Y-109567911D01*
X172870247Y-109511137D01*
X172819980Y-109444821D01*
X172814318Y-109434834D01*
X172801450Y-109409174D01*
X172790680Y-109382220D01*
X172781825Y-109351971D01*
X172774702Y-109316423D01*
X172769128Y-109273575D01*
X172764921Y-109221423D01*
X172761896Y-109157964D01*
X172759873Y-109081198D01*
X172758667Y-108989121D01*
X172758096Y-108879730D01*
X172757991Y-108817944D01*
X172757637Y-108409004D01*
X173070773Y-108409004D01*
X173075028Y-108802704D01*
X173076343Y-108912067D01*
X173077878Y-109003108D01*
X173079883Y-109077826D01*
X173082606Y-109138219D01*
X173086299Y-109186285D01*
X173091211Y-109224022D01*
X173097591Y-109253429D01*
X173105689Y-109276504D01*
X173115755Y-109295246D01*
X173128038Y-109311652D01*
X173140315Y-109325156D01*
X173177102Y-109351765D01*
X173225655Y-109371008D01*
X173278037Y-109380491D01*
X173319351Y-109379138D01*
X173382078Y-109360524D01*
X173430941Y-109327068D01*
X173466006Y-109278724D01*
X173469950Y-109270471D01*
X173476034Y-109256629D01*
X173481022Y-109243230D01*
X173485042Y-109228166D01*
X173488219Y-109209325D01*
X173490679Y-109184598D01*
X173492549Y-109151873D01*
X173493954Y-109109040D01*
X173495021Y-109053989D01*
X173495876Y-108984610D01*
X173496644Y-108898791D01*
X173497315Y-108812608D01*
X173500393Y-108408493D01*
X173659875Y-108411288D01*
G37*
X173659875Y-108411288D02*
X173819357Y-108414084D01*
X173818979Y-108830644D01*
X173818792Y-108936662D01*
X173818383Y-109024562D01*
X173817670Y-109096543D01*
X173816572Y-109154807D01*
X173815005Y-109201555D01*
X173812887Y-109238986D01*
X173810135Y-109269302D01*
X173806667Y-109294704D01*
X173802400Y-109317391D01*
X173800387Y-109326479D01*
X173770570Y-109413320D01*
X173724169Y-109489005D01*
X173662343Y-109552282D01*
X173586252Y-109601899D01*
X173519637Y-109629688D01*
X173472842Y-109640845D01*
X173411713Y-109649173D01*
X173342061Y-109654482D01*
X173269699Y-109656581D01*
X173200440Y-109655280D01*
X173140096Y-109650389D01*
X173100767Y-109643420D01*
X173013871Y-109612790D01*
X172935954Y-109567911D01*
X172870247Y-109511137D01*
X172819980Y-109444821D01*
X172814318Y-109434834D01*
X172801450Y-109409174D01*
X172790680Y-109382220D01*
X172781825Y-109351971D01*
X172774702Y-109316423D01*
X172769128Y-109273575D01*
X172764921Y-109221423D01*
X172761896Y-109157964D01*
X172759873Y-109081198D01*
X172758667Y-108989121D01*
X172758096Y-108879730D01*
X172757991Y-108817944D01*
X172757637Y-108409004D01*
X173070773Y-108409004D01*
X173075028Y-108802704D01*
X173076343Y-108912067D01*
X173077878Y-109003108D01*
X173079883Y-109077826D01*
X173082606Y-109138219D01*
X173086299Y-109186285D01*
X173091211Y-109224022D01*
X173097591Y-109253429D01*
X173105689Y-109276504D01*
X173115755Y-109295246D01*
X173128038Y-109311652D01*
X173140315Y-109325156D01*
X173177102Y-109351765D01*
X173225655Y-109371008D01*
X173278037Y-109380491D01*
X173319351Y-109379138D01*
X173382078Y-109360524D01*
X173430941Y-109327068D01*
X173466006Y-109278724D01*
X173469950Y-109270471D01*
X173476034Y-109256629D01*
X173481022Y-109243230D01*
X173485042Y-109228166D01*
X173488219Y-109209325D01*
X173490679Y-109184598D01*
X173492549Y-109151873D01*
X173493954Y-109109040D01*
X173495021Y-109053989D01*
X173495876Y-108984610D01*
X173496644Y-108898791D01*
X173497315Y-108812608D01*
X173500393Y-108408493D01*
X173659875Y-108411288D01*
G36*
X184446717Y-108414084D02*
G01*
X184449336Y-109021144D01*
X184451956Y-109628204D01*
X184126677Y-109628204D01*
X184126677Y-108408488D01*
X184446717Y-108414084D01*
G37*
X184446717Y-108414084D02*
X184449336Y-109021144D01*
X184451956Y-109628204D01*
X184126677Y-109628204D01*
X184126677Y-108408488D01*
X184446717Y-108414084D01*
G36*
X171429774Y-108385106D02*
G01*
X171503387Y-108391778D01*
X171563837Y-108403413D01*
X171603850Y-108415155D01*
X171646833Y-108430073D01*
X171688450Y-108446355D01*
X171724364Y-108462190D01*
X171750239Y-108475763D01*
X171761739Y-108485263D01*
X171761957Y-108486229D01*
X171757463Y-108497579D01*
X171745485Y-108522455D01*
X171728280Y-108556548D01*
X171708104Y-108595549D01*
X171687214Y-108635150D01*
X171667864Y-108671043D01*
X171652313Y-108698919D01*
X171642815Y-108714469D01*
X171641687Y-108715889D01*
X171630035Y-108715057D01*
X171605356Y-108706377D01*
X171572521Y-108691624D01*
X171565100Y-108687949D01*
X171501023Y-108662817D01*
X171440440Y-108652596D01*
X171386192Y-108657085D01*
X171341121Y-108676084D01*
X171310453Y-108705846D01*
X171294805Y-108738601D01*
X171296328Y-108768754D01*
X171315682Y-108796997D01*
X171353524Y-108824024D01*
X171410513Y-108850526D01*
X171467388Y-108870858D01*
X171563278Y-108905065D01*
X171640610Y-108939743D01*
X171701112Y-108976520D01*
X171746514Y-109017022D01*
X171778544Y-109062876D01*
X171798931Y-109115710D01*
X171809404Y-109177149D01*
X171810669Y-109193928D01*
X171808583Y-109295499D01*
X171789836Y-109386049D01*
X171754840Y-109464977D01*
X171704009Y-109531681D01*
X171637755Y-109585558D01*
X171556491Y-109626007D01*
X171502521Y-109643109D01*
X171445108Y-109653123D01*
X171375356Y-109657790D01*
X171300506Y-109657204D01*
X171227796Y-109651460D01*
X171164468Y-109640653D01*
X171156143Y-109638579D01*
X171089000Y-109616536D01*
X171019099Y-109586131D01*
X170956238Y-109551798D01*
X170937940Y-109539833D01*
X170911484Y-109521524D01*
X170977556Y-109397064D01*
X171002149Y-109351987D01*
X171024036Y-109314188D01*
X171041230Y-109286927D01*
X171051746Y-109273465D01*
X171053346Y-109272604D01*
X171066733Y-109278641D01*
X171087880Y-109293635D01*
X171093918Y-109298566D01*
X171148224Y-109335938D01*
X171209690Y-109364629D01*
X171272910Y-109383003D01*
X171332482Y-109389427D01*
X171376793Y-109384117D01*
X171424656Y-109363782D01*
X171457790Y-109334349D01*
X171475041Y-109298873D01*
X171475254Y-109260408D01*
X171457274Y-109222009D01*
X171443902Y-109206517D01*
X171423989Y-109189781D01*
X171397945Y-109174732D01*
X171361699Y-109159495D01*
X171311182Y-109142197D01*
X171288962Y-109135180D01*
X171203335Y-109106631D01*
X171135305Y-109079227D01*
X171082331Y-109051400D01*
X171041872Y-109021584D01*
X171011387Y-108988211D01*
X170988379Y-108949803D01*
X170977010Y-108922956D01*
X170969943Y-108895353D01*
X170966230Y-108860959D01*
X170964922Y-108813734D01*
X170964861Y-108800164D01*
X170966693Y-108732269D01*
X170973507Y-108678391D01*
X170986870Y-108632514D01*
X171008349Y-108588623D01*
X171028118Y-108557246D01*
X171081756Y-108493908D01*
X171147971Y-108442173D01*
X171221376Y-108406155D01*
X171229667Y-108403326D01*
X171286126Y-108390879D01*
X171355091Y-108384806D01*
X171429774Y-108385106D01*
G37*
X171429774Y-108385106D02*
X171503387Y-108391778D01*
X171563837Y-108403413D01*
X171603850Y-108415155D01*
X171646833Y-108430073D01*
X171688450Y-108446355D01*
X171724364Y-108462190D01*
X171750239Y-108475763D01*
X171761739Y-108485263D01*
X171761957Y-108486229D01*
X171757463Y-108497579D01*
X171745485Y-108522455D01*
X171728280Y-108556548D01*
X171708104Y-108595549D01*
X171687214Y-108635150D01*
X171667864Y-108671043D01*
X171652313Y-108698919D01*
X171642815Y-108714469D01*
X171641687Y-108715889D01*
X171630035Y-108715057D01*
X171605356Y-108706377D01*
X171572521Y-108691624D01*
X171565100Y-108687949D01*
X171501023Y-108662817D01*
X171440440Y-108652596D01*
X171386192Y-108657085D01*
X171341121Y-108676084D01*
X171310453Y-108705846D01*
X171294805Y-108738601D01*
X171296328Y-108768754D01*
X171315682Y-108796997D01*
X171353524Y-108824024D01*
X171410513Y-108850526D01*
X171467388Y-108870858D01*
X171563278Y-108905065D01*
X171640610Y-108939743D01*
X171701112Y-108976520D01*
X171746514Y-109017022D01*
X171778544Y-109062876D01*
X171798931Y-109115710D01*
X171809404Y-109177149D01*
X171810669Y-109193928D01*
X171808583Y-109295499D01*
X171789836Y-109386049D01*
X171754840Y-109464977D01*
X171704009Y-109531681D01*
X171637755Y-109585558D01*
X171556491Y-109626007D01*
X171502521Y-109643109D01*
X171445108Y-109653123D01*
X171375356Y-109657790D01*
X171300506Y-109657204D01*
X171227796Y-109651460D01*
X171164468Y-109640653D01*
X171156143Y-109638579D01*
X171089000Y-109616536D01*
X171019099Y-109586131D01*
X170956238Y-109551798D01*
X170937940Y-109539833D01*
X170911484Y-109521524D01*
X170977556Y-109397064D01*
X171002149Y-109351987D01*
X171024036Y-109314188D01*
X171041230Y-109286927D01*
X171051746Y-109273465D01*
X171053346Y-109272604D01*
X171066733Y-109278641D01*
X171087880Y-109293635D01*
X171093918Y-109298566D01*
X171148224Y-109335938D01*
X171209690Y-109364629D01*
X171272910Y-109383003D01*
X171332482Y-109389427D01*
X171376793Y-109384117D01*
X171424656Y-109363782D01*
X171457790Y-109334349D01*
X171475041Y-109298873D01*
X171475254Y-109260408D01*
X171457274Y-109222009D01*
X171443902Y-109206517D01*
X171423989Y-109189781D01*
X171397945Y-109174732D01*
X171361699Y-109159495D01*
X171311182Y-109142197D01*
X171288962Y-109135180D01*
X171203335Y-109106631D01*
X171135305Y-109079227D01*
X171082331Y-109051400D01*
X171041872Y-109021584D01*
X171011387Y-108988211D01*
X170988379Y-108949803D01*
X170977010Y-108922956D01*
X170969943Y-108895353D01*
X170966230Y-108860959D01*
X170964922Y-108813734D01*
X170964861Y-108800164D01*
X170966693Y-108732269D01*
X170973507Y-108678391D01*
X170986870Y-108632514D01*
X171008349Y-108588623D01*
X171028118Y-108557246D01*
X171081756Y-108493908D01*
X171147971Y-108442173D01*
X171221376Y-108406155D01*
X171229667Y-108403326D01*
X171286126Y-108390879D01*
X171355091Y-108384806D01*
X171429774Y-108385106D01*
G36*
X174979741Y-108411286D02*
G01*
X175139366Y-108414084D01*
X175424241Y-108779844D01*
X175709117Y-109145604D01*
X175711784Y-108777046D01*
X175714451Y-108408489D01*
X175874344Y-108411286D01*
X176034237Y-108414084D01*
X176039477Y-109628708D01*
X175709909Y-109623124D01*
X175140157Y-108891604D01*
X175134823Y-109628204D01*
X174820117Y-109628204D01*
X174820117Y-108408488D01*
X174979741Y-108411286D01*
G37*
X174979741Y-108411286D02*
X175139366Y-108414084D01*
X175424241Y-108779844D01*
X175709117Y-109145604D01*
X175711784Y-108777046D01*
X175714451Y-108408489D01*
X175874344Y-108411286D01*
X176034237Y-108414084D01*
X176039477Y-109628708D01*
X175709909Y-109623124D01*
X175140157Y-108891604D01*
X175134823Y-109628204D01*
X174820117Y-109628204D01*
X174820117Y-108408488D01*
X174979741Y-108411286D01*
G36*
X183185315Y-108410922D02*
G01*
X183216986Y-108412501D01*
X183235256Y-108415442D01*
X183242425Y-108419880D01*
X183242757Y-108421416D01*
X183238862Y-108432782D01*
X183227629Y-108461213D01*
X183209727Y-108505101D01*
X183185831Y-108562836D01*
X183156612Y-108632809D01*
X183122743Y-108713413D01*
X183084896Y-108803039D01*
X183043743Y-108900077D01*
X182999958Y-109002919D01*
X182987861Y-109031262D01*
X182732966Y-109628204D01*
X182606610Y-109628204D01*
X182553980Y-109628028D01*
X182518102Y-109627101D01*
X182495406Y-109624817D01*
X182482324Y-109620576D01*
X182475289Y-109613773D01*
X182471325Y-109605344D01*
X182465884Y-109592122D01*
X182453261Y-109561848D01*
X182434157Y-109516196D01*
X182409277Y-109456841D01*
X182379323Y-109385457D01*
X182344997Y-109303719D01*
X182307003Y-109213302D01*
X182266043Y-109115881D01*
X182222821Y-109013131D01*
X182217577Y-109000668D01*
X182174421Y-108898026D01*
X182133690Y-108800996D01*
X182096055Y-108711186D01*
X182062188Y-108630204D01*
X182032759Y-108559661D01*
X182008439Y-108501164D01*
X181989900Y-108456322D01*
X181977812Y-108426744D01*
X181972846Y-108414039D01*
X181972757Y-108413688D01*
X181982366Y-108412153D01*
X182009006Y-108411122D01*
X182049392Y-108410638D01*
X182100238Y-108410748D01*
X182146848Y-108411304D01*
X182320939Y-108414084D01*
X182465384Y-108778243D01*
X182609829Y-109142403D01*
X182756113Y-108778243D01*
X182902397Y-108414084D01*
X183072577Y-108411298D01*
X183137945Y-108410566D01*
X183185315Y-108410922D01*
G37*
X183185315Y-108410922D02*
X183216986Y-108412501D01*
X183235256Y-108415442D01*
X183242425Y-108419880D01*
X183242757Y-108421416D01*
X183238862Y-108432782D01*
X183227629Y-108461213D01*
X183209727Y-108505101D01*
X183185831Y-108562836D01*
X183156612Y-108632809D01*
X183122743Y-108713413D01*
X183084896Y-108803039D01*
X183043743Y-108900077D01*
X182999958Y-109002919D01*
X182987861Y-109031262D01*
X182732966Y-109628204D01*
X182606610Y-109628204D01*
X182553980Y-109628028D01*
X182518102Y-109627101D01*
X182495406Y-109624817D01*
X182482324Y-109620576D01*
X182475289Y-109613773D01*
X182471325Y-109605344D01*
X182465884Y-109592122D01*
X182453261Y-109561848D01*
X182434157Y-109516196D01*
X182409277Y-109456841D01*
X182379323Y-109385457D01*
X182344997Y-109303719D01*
X182307003Y-109213302D01*
X182266043Y-109115881D01*
X182222821Y-109013131D01*
X182217577Y-109000668D01*
X182174421Y-108898026D01*
X182133690Y-108800996D01*
X182096055Y-108711186D01*
X182062188Y-108630204D01*
X182032759Y-108559661D01*
X182008439Y-108501164D01*
X181989900Y-108456322D01*
X181977812Y-108426744D01*
X181972846Y-108414039D01*
X181972757Y-108413688D01*
X181982366Y-108412153D01*
X182009006Y-108411122D01*
X182049392Y-108410638D01*
X182100238Y-108410748D01*
X182146848Y-108411304D01*
X182320939Y-108414084D01*
X182465384Y-108778243D01*
X182609829Y-109142403D01*
X182756113Y-108778243D01*
X182902397Y-108414084D01*
X183072577Y-108411298D01*
X183137945Y-108410566D01*
X183185315Y-108410922D01*
G36*
X171221632Y-110308924D02*
G01*
X171311269Y-110313587D01*
X171383606Y-110327989D01*
X171439501Y-110352748D01*
X171479813Y-110388481D01*
X171505399Y-110435807D01*
X171517119Y-110495342D01*
X171518117Y-110522362D01*
X171509631Y-110588664D01*
X171485200Y-110645049D01*
X171446363Y-110689330D01*
X171394661Y-110719321D01*
X171374852Y-110725759D01*
X171334111Y-110736730D01*
X171368260Y-110784447D01*
X171415128Y-110850240D01*
X171458262Y-110911370D01*
X171496253Y-110965795D01*
X171527695Y-111011476D01*
X171551181Y-111046372D01*
X171565304Y-111068443D01*
X171568917Y-111075474D01*
X171559782Y-111078680D01*
X171536333Y-111079739D01*
X171516048Y-111079074D01*
X171463180Y-111076004D01*
X171350948Y-110911436D01*
X171315756Y-110860716D01*
X171283774Y-110816282D01*
X171256954Y-110780713D01*
X171237247Y-110756587D01*
X171226604Y-110746484D01*
X171226017Y-110746336D01*
X171221060Y-110751120D01*
X171217476Y-110767389D01*
X171215101Y-110797299D01*
X171213770Y-110843006D01*
X171213319Y-110906668D01*
X171213317Y-110913444D01*
X171213317Y-111081084D01*
X171174370Y-111081084D01*
X171147521Y-111079460D01*
X171130334Y-111075445D01*
X171128650Y-111074310D01*
X171127120Y-111062953D01*
X171125710Y-111033555D01*
X171124462Y-110988396D01*
X171123415Y-110929756D01*
X171122608Y-110859915D01*
X171122083Y-110781150D01*
X171121878Y-110695743D01*
X171121877Y-110688230D01*
X171121877Y-110666865D01*
X171213317Y-110666865D01*
X171271737Y-110659623D01*
X171310492Y-110653177D01*
X171346069Y-110644564D01*
X171361849Y-110639206D01*
X171398611Y-110615273D01*
X171419867Y-110579598D01*
X171426677Y-110530661D01*
X171421534Y-110479309D01*
X171404779Y-110441575D01*
X171374423Y-110415619D01*
X171328477Y-110399602D01*
X171277276Y-110392556D01*
X171213317Y-110387421D01*
X171213317Y-110666865D01*
X171121877Y-110666865D01*
X171121877Y-110308924D01*
X171221632Y-110308924D01*
G37*
X171221632Y-110308924D02*
X171311269Y-110313587D01*
X171383606Y-110327989D01*
X171439501Y-110352748D01*
X171479813Y-110388481D01*
X171505399Y-110435807D01*
X171517119Y-110495342D01*
X171518117Y-110522362D01*
X171509631Y-110588664D01*
X171485200Y-110645049D01*
X171446363Y-110689330D01*
X171394661Y-110719321D01*
X171374852Y-110725759D01*
X171334111Y-110736730D01*
X171368260Y-110784447D01*
X171415128Y-110850240D01*
X171458262Y-110911370D01*
X171496253Y-110965795D01*
X171527695Y-111011476D01*
X171551181Y-111046372D01*
X171565304Y-111068443D01*
X171568917Y-111075474D01*
X171559782Y-111078680D01*
X171536333Y-111079739D01*
X171516048Y-111079074D01*
X171463180Y-111076004D01*
X171350948Y-110911436D01*
X171315756Y-110860716D01*
X171283774Y-110816282D01*
X171256954Y-110780713D01*
X171237247Y-110756587D01*
X171226604Y-110746484D01*
X171226017Y-110746336D01*
X171221060Y-110751120D01*
X171217476Y-110767389D01*
X171215101Y-110797299D01*
X171213770Y-110843006D01*
X171213319Y-110906668D01*
X171213317Y-110913444D01*
X171213317Y-111081084D01*
X171174370Y-111081084D01*
X171147521Y-111079460D01*
X171130334Y-111075445D01*
X171128650Y-111074310D01*
X171127120Y-111062953D01*
X171125710Y-111033555D01*
X171124462Y-110988396D01*
X171123415Y-110929756D01*
X171122608Y-110859915D01*
X171122083Y-110781150D01*
X171121878Y-110695743D01*
X171121877Y-110688230D01*
X171121877Y-110666865D01*
X171213317Y-110666865D01*
X171271737Y-110659623D01*
X171310492Y-110653177D01*
X171346069Y-110644564D01*
X171361849Y-110639206D01*
X171398611Y-110615273D01*
X171419867Y-110579598D01*
X171426677Y-110530661D01*
X171421534Y-110479309D01*
X171404779Y-110441575D01*
X171374423Y-110415619D01*
X171328477Y-110399602D01*
X171277276Y-110392556D01*
X171213317Y-110387421D01*
X171213317Y-110666865D01*
X171121877Y-110666865D01*
X171121877Y-110308924D01*
X171221632Y-110308924D01*
G36*
X177634437Y-110628725D02*
G01*
X177794572Y-110468824D01*
X177954708Y-110308924D01*
X178076179Y-110308924D01*
X177721695Y-110663842D01*
X177742289Y-110687043D01*
X177755098Y-110701366D01*
X177779162Y-110728178D01*
X177812136Y-110764868D01*
X177851675Y-110808828D01*
X177895433Y-110857449D01*
X177909480Y-110873050D01*
X177953984Y-110922527D01*
X177994901Y-110968110D01*
X178029907Y-111007205D01*
X178056678Y-111037214D01*
X178072892Y-111055543D01*
X178075431Y-111058470D01*
X178094786Y-111081084D01*
X177971477Y-111081084D01*
X177816707Y-110908013D01*
X177771988Y-110858688D01*
X177731355Y-110815161D01*
X177696855Y-110779521D01*
X177670537Y-110753857D01*
X177654448Y-110740258D01*
X177650727Y-110738670D01*
X177645744Y-110750604D01*
X177641755Y-110782629D01*
X177638777Y-110834539D01*
X177636826Y-110906130D01*
X177636731Y-110911740D01*
X177633945Y-111081084D01*
X177595244Y-111081084D01*
X177568478Y-111079450D01*
X177551389Y-111075413D01*
X177549770Y-111074310D01*
X177548240Y-111062953D01*
X177546830Y-111033555D01*
X177545582Y-110988396D01*
X177544535Y-110929756D01*
X177543728Y-110859915D01*
X177543203Y-110781150D01*
X177542998Y-110695743D01*
X177542997Y-110688230D01*
X177542997Y-110308924D01*
X177634437Y-110308924D01*
X177634437Y-110628725D01*
G37*
X177634437Y-110628725D02*
X177794572Y-110468824D01*
X177954708Y-110308924D01*
X178076179Y-110308924D01*
X177721695Y-110663842D01*
X177742289Y-110687043D01*
X177755098Y-110701366D01*
X177779162Y-110728178D01*
X177812136Y-110764868D01*
X177851675Y-110808828D01*
X177895433Y-110857449D01*
X177909480Y-110873050D01*
X177953984Y-110922527D01*
X177994901Y-110968110D01*
X178029907Y-111007205D01*
X178056678Y-111037214D01*
X178072892Y-111055543D01*
X178075431Y-111058470D01*
X178094786Y-111081084D01*
X177971477Y-111081084D01*
X177816707Y-110908013D01*
X177771988Y-110858688D01*
X177731355Y-110815161D01*
X177696855Y-110779521D01*
X177670537Y-110753857D01*
X177654448Y-110740258D01*
X177650727Y-110738670D01*
X177645744Y-110750604D01*
X177641755Y-110782629D01*
X177638777Y-110834539D01*
X177636826Y-110906130D01*
X177636731Y-110911740D01*
X177633945Y-111081084D01*
X177595244Y-111081084D01*
X177568478Y-111079450D01*
X177551389Y-111075413D01*
X177549770Y-111074310D01*
X177548240Y-111062953D01*
X177546830Y-111033555D01*
X177545582Y-110988396D01*
X177544535Y-110929756D01*
X177543728Y-110859915D01*
X177543203Y-110781150D01*
X177542998Y-110695743D01*
X177542997Y-110688230D01*
X177542997Y-110308924D01*
X177634437Y-110308924D01*
X177634437Y-110628725D01*
G36*
X185772597Y-109353884D02*
G01*
X186148517Y-109353884D01*
X186148517Y-109628204D01*
X185457637Y-109628204D01*
X185457637Y-108409004D01*
X185772597Y-108409004D01*
X185772597Y-109353884D01*
G37*
X185772597Y-109353884D02*
X186148517Y-109353884D01*
X186148517Y-109628204D01*
X185457637Y-109628204D01*
X185457637Y-108409004D01*
X185772597Y-108409004D01*
X185772597Y-109353884D01*
G36*
X173791352Y-104136084D02*
G01*
X173832443Y-104146593D01*
X173890785Y-104163962D01*
X173899534Y-104166669D01*
X173955021Y-104183841D01*
X174021398Y-104204312D01*
X174090118Y-104225448D01*
X174149557Y-104243676D01*
X174205587Y-104260843D01*
X174260563Y-104277716D01*
X174308641Y-104292499D01*
X174343975Y-104303397D01*
X174347677Y-104304543D01*
X174390695Y-104317807D01*
X174448731Y-104335608D01*
X174517352Y-104356595D01*
X174592128Y-104379415D01*
X174668627Y-104402715D01*
X174742420Y-104425141D01*
X174779477Y-104436380D01*
X174836281Y-104453662D01*
X174898316Y-104472645D01*
X174955556Y-104490256D01*
X174977597Y-104497076D01*
X175029241Y-104513012D01*
X175090314Y-104531727D01*
X175150785Y-104550154D01*
X175175717Y-104557711D01*
X175233898Y-104575409D01*
X175300785Y-104595907D01*
X175365694Y-104615927D01*
X175394157Y-104624760D01*
X175462923Y-104646127D01*
X175536214Y-104668836D01*
X175610686Y-104691859D01*
X175682996Y-104714166D01*
X175749802Y-104734727D01*
X175807762Y-104752511D01*
X175853532Y-104766490D01*
X175883769Y-104775633D01*
X175886917Y-104776571D01*
X175925075Y-104787970D01*
X175968511Y-104801045D01*
X175985977Y-104806333D01*
X176028813Y-104819298D01*
X176074161Y-104832970D01*
X176090117Y-104837764D01*
X176157045Y-104857910D01*
X176214807Y-104875480D01*
X176273007Y-104893415D01*
X176339037Y-104913964D01*
X176408792Y-104935687D01*
X176462523Y-104952279D01*
X176503574Y-104964739D01*
X176535294Y-104974069D01*
X176561027Y-104981271D01*
X176584122Y-104987345D01*
X176585417Y-104987675D01*
X176611544Y-104995684D01*
X176626894Y-105003015D01*
X176628597Y-105005285D01*
X176634790Y-105016210D01*
X176650421Y-105036075D01*
X176659077Y-105046044D01*
X176677419Y-105067783D01*
X176688282Y-105082966D01*
X176689557Y-105086077D01*
X176695792Y-105096764D01*
X176711044Y-105115116D01*
X176713428Y-105117716D01*
X176733847Y-105142283D01*
X176757119Y-105173788D01*
X176765578Y-105186192D01*
X176783092Y-105210667D01*
X176796689Y-105226128D01*
X176801114Y-105228924D01*
X176810813Y-105236893D01*
X176817544Y-105248074D01*
X176829422Y-105266981D01*
X176849123Y-105293165D01*
X176860089Y-105306494D01*
X176881755Y-105333051D01*
X176910294Y-105369463D01*
X176940594Y-105409173D01*
X176950166Y-105421964D01*
X176975589Y-105455746D01*
X176996651Y-105483027D01*
X177010303Y-105499892D01*
X177013458Y-105503244D01*
X177022114Y-105513097D01*
X177039897Y-105535340D01*
X177063744Y-105566102D01*
X177077989Y-105584792D01*
X177105623Y-105620820D01*
X177130623Y-105652633D01*
X177149105Y-105675322D01*
X177154321Y-105681312D01*
X177172217Y-105702821D01*
X177193246Y-105730686D01*
X177197688Y-105736924D01*
X177216602Y-105763375D01*
X177234767Y-105787358D01*
X177257271Y-105815434D01*
X177279551Y-105842514D01*
X177301202Y-105869477D01*
X177327193Y-105902906D01*
X177340511Y-105920434D01*
X177368737Y-105957008D01*
X177400070Y-105996229D01*
X177412934Y-106011874D01*
X177441338Y-106046945D01*
X177472479Y-106086836D01*
X177488314Y-106107764D01*
X177532683Y-106166682D01*
X177578675Y-106226177D01*
X177631936Y-106293549D01*
X177634437Y-106296685D01*
X177661702Y-106331030D01*
X177687790Y-106364148D01*
X177705557Y-106386942D01*
X177728538Y-106416464D01*
X177754547Y-106449506D01*
X177761437Y-106458189D01*
X177788168Y-106492055D01*
X177823062Y-106536632D01*
X177862581Y-106587359D01*
X177903185Y-106639676D01*
X177941332Y-106689024D01*
X177973483Y-106730843D01*
X177993505Y-106757130D01*
X178019410Y-106790505D01*
X178045180Y-106822243D01*
X178059781Y-106839284D01*
X178084488Y-106869035D01*
X178108956Y-106901575D01*
X178111575Y-106905324D01*
X178133629Y-106934833D01*
X178156195Y-106961521D01*
X178159599Y-106965129D01*
X178178655Y-106988647D01*
X178181617Y-107002673D01*
X178170377Y-107006248D01*
X178161666Y-106999089D01*
X178139593Y-106978407D01*
X178105089Y-106945128D01*
X178059084Y-106900173D01*
X178002509Y-106844466D01*
X177936293Y-106778930D01*
X177861367Y-106704487D01*
X177778662Y-106622062D01*
X177689107Y-106532576D01*
X177593634Y-106436952D01*
X177493172Y-106336115D01*
X177388651Y-106230986D01*
X177369032Y-106211228D01*
X176580387Y-105416884D01*
X176398752Y-105377628D01*
X176337085Y-105364369D01*
X176279038Y-105352014D01*
X176228852Y-105341456D01*
X176190765Y-105333588D01*
X176171397Y-105329744D01*
X176140708Y-105323651D01*
X176097594Y-105314710D01*
X176049467Y-105304468D01*
X176029157Y-105300066D01*
X175975626Y-105288454D01*
X175918623Y-105276187D01*
X175868330Y-105265454D01*
X175856437Y-105262938D01*
X175784761Y-105247788D01*
X175726779Y-105235455D01*
X175676294Y-105224599D01*
X175627109Y-105213878D01*
X175573027Y-105201951D01*
X175510997Y-105188177D01*
X175454655Y-105175754D01*
X175401458Y-105164222D01*
X175356426Y-105154658D01*
X175324580Y-105148134D01*
X175317957Y-105146858D01*
X175297912Y-105143000D01*
X175272654Y-105137903D01*
X175239610Y-105131021D01*
X175196207Y-105121812D01*
X175139872Y-105109729D01*
X175068034Y-105094229D01*
X175008077Y-105081255D01*
X174913460Y-105060842D01*
X174834059Y-105043887D01*
X174765260Y-105029409D01*
X174728677Y-105021818D01*
X174689403Y-105013560D01*
X174636807Y-105002289D01*
X174577399Y-104989408D01*
X174517691Y-104976323D01*
X174510237Y-104974679D01*
X174452521Y-104962148D01*
X174395740Y-104950200D01*
X174345838Y-104940060D01*
X174308764Y-104932956D01*
X174304010Y-104932112D01*
X174240024Y-104920958D01*
X174199344Y-104853961D01*
X174177985Y-104818749D01*
X174159420Y-104788083D01*
X174147315Y-104768018D01*
X174146490Y-104766644D01*
X174134748Y-104748587D01*
X174128903Y-104741244D01*
X174121124Y-104730374D01*
X174106609Y-104707523D01*
X174093142Y-104685364D01*
X174074174Y-104653640D01*
X174057800Y-104626304D01*
X174050557Y-104614244D01*
X174038467Y-104593912D01*
X174021017Y-104564280D01*
X174010118Y-104545674D01*
X173993297Y-104519068D01*
X173979779Y-104501540D01*
X173974297Y-104497414D01*
X173967527Y-104489140D01*
X173966677Y-104482164D01*
X173961776Y-104468634D01*
X173957618Y-104466924D01*
X173948674Y-104458313D01*
X173942184Y-104441524D01*
X173934026Y-104422495D01*
X173925843Y-104416124D01*
X173916381Y-104408218D01*
X173915877Y-104404607D01*
X173910744Y-104392584D01*
X173896964Y-104367477D01*
X173876959Y-104333237D01*
X173853153Y-104293819D01*
X173827970Y-104253175D01*
X173803835Y-104215258D01*
X173783171Y-104184022D01*
X173768402Y-104163419D01*
X173766706Y-104161323D01*
X173755190Y-104145054D01*
X173754366Y-104135381D01*
X173765873Y-104132369D01*
X173791352Y-104136084D01*
G37*
X173791352Y-104136084D02*
X173832443Y-104146593D01*
X173890785Y-104163962D01*
X173899534Y-104166669D01*
X173955021Y-104183841D01*
X174021398Y-104204312D01*
X174090118Y-104225448D01*
X174149557Y-104243676D01*
X174205587Y-104260843D01*
X174260563Y-104277716D01*
X174308641Y-104292499D01*
X174343975Y-104303397D01*
X174347677Y-104304543D01*
X174390695Y-104317807D01*
X174448731Y-104335608D01*
X174517352Y-104356595D01*
X174592128Y-104379415D01*
X174668627Y-104402715D01*
X174742420Y-104425141D01*
X174779477Y-104436380D01*
X174836281Y-104453662D01*
X174898316Y-104472645D01*
X174955556Y-104490256D01*
X174977597Y-104497076D01*
X175029241Y-104513012D01*
X175090314Y-104531727D01*
X175150785Y-104550154D01*
X175175717Y-104557711D01*
X175233898Y-104575409D01*
X175300785Y-104595907D01*
X175365694Y-104615927D01*
X175394157Y-104624760D01*
X175462923Y-104646127D01*
X175536214Y-104668836D01*
X175610686Y-104691859D01*
X175682996Y-104714166D01*
X175749802Y-104734727D01*
X175807762Y-104752511D01*
X175853532Y-104766490D01*
X175883769Y-104775633D01*
X175886917Y-104776571D01*
X175925075Y-104787970D01*
X175968511Y-104801045D01*
X175985977Y-104806333D01*
X176028813Y-104819298D01*
X176074161Y-104832970D01*
X176090117Y-104837764D01*
X176157045Y-104857910D01*
X176214807Y-104875480D01*
X176273007Y-104893415D01*
X176339037Y-104913964D01*
X176408792Y-104935687D01*
X176462523Y-104952279D01*
X176503574Y-104964739D01*
X176535294Y-104974069D01*
X176561027Y-104981271D01*
X176584122Y-104987345D01*
X176585417Y-104987675D01*
X176611544Y-104995684D01*
X176626894Y-105003015D01*
X176628597Y-105005285D01*
X176634790Y-105016210D01*
X176650421Y-105036075D01*
X176659077Y-105046044D01*
X176677419Y-105067783D01*
X176688282Y-105082966D01*
X176689557Y-105086077D01*
X176695792Y-105096764D01*
X176711044Y-105115116D01*
X176713428Y-105117716D01*
X176733847Y-105142283D01*
X176757119Y-105173788D01*
X176765578Y-105186192D01*
X176783092Y-105210667D01*
X176796689Y-105226128D01*
X176801114Y-105228924D01*
X176810813Y-105236893D01*
X176817544Y-105248074D01*
X176829422Y-105266981D01*
X176849123Y-105293165D01*
X176860089Y-105306494D01*
X176881755Y-105333051D01*
X176910294Y-105369463D01*
X176940594Y-105409173D01*
X176950166Y-105421964D01*
X176975589Y-105455746D01*
X176996651Y-105483027D01*
X177010303Y-105499892D01*
X177013458Y-105503244D01*
X177022114Y-105513097D01*
X177039897Y-105535340D01*
X177063744Y-105566102D01*
X177077989Y-105584792D01*
X177105623Y-105620820D01*
X177130623Y-105652633D01*
X177149105Y-105675322D01*
X177154321Y-105681312D01*
X177172217Y-105702821D01*
X177193246Y-105730686D01*
X177197688Y-105736924D01*
X177216602Y-105763375D01*
X177234767Y-105787358D01*
X177257271Y-105815434D01*
X177279551Y-105842514D01*
X177301202Y-105869477D01*
X177327193Y-105902906D01*
X177340511Y-105920434D01*
X177368737Y-105957008D01*
X177400070Y-105996229D01*
X177412934Y-106011874D01*
X177441338Y-106046945D01*
X177472479Y-106086836D01*
X177488314Y-106107764D01*
X177532683Y-106166682D01*
X177578675Y-106226177D01*
X177631936Y-106293549D01*
X177634437Y-106296685D01*
X177661702Y-106331030D01*
X177687790Y-106364148D01*
X177705557Y-106386942D01*
X177728538Y-106416464D01*
X177754547Y-106449506D01*
X177761437Y-106458189D01*
X177788168Y-106492055D01*
X177823062Y-106536632D01*
X177862581Y-106587359D01*
X177903185Y-106639676D01*
X177941332Y-106689024D01*
X177973483Y-106730843D01*
X177993505Y-106757130D01*
X178019410Y-106790505D01*
X178045180Y-106822243D01*
X178059781Y-106839284D01*
X178084488Y-106869035D01*
X178108956Y-106901575D01*
X178111575Y-106905324D01*
X178133629Y-106934833D01*
X178156195Y-106961521D01*
X178159599Y-106965129D01*
X178178655Y-106988647D01*
X178181617Y-107002673D01*
X178170377Y-107006248D01*
X178161666Y-106999089D01*
X178139593Y-106978407D01*
X178105089Y-106945128D01*
X178059084Y-106900173D01*
X178002509Y-106844466D01*
X177936293Y-106778930D01*
X177861367Y-106704487D01*
X177778662Y-106622062D01*
X177689107Y-106532576D01*
X177593634Y-106436952D01*
X177493172Y-106336115D01*
X177388651Y-106230986D01*
X177369032Y-106211228D01*
X176580387Y-105416884D01*
X176398752Y-105377628D01*
X176337085Y-105364369D01*
X176279038Y-105352014D01*
X176228852Y-105341456D01*
X176190765Y-105333588D01*
X176171397Y-105329744D01*
X176140708Y-105323651D01*
X176097594Y-105314710D01*
X176049467Y-105304468D01*
X176029157Y-105300066D01*
X175975626Y-105288454D01*
X175918623Y-105276187D01*
X175868330Y-105265454D01*
X175856437Y-105262938D01*
X175784761Y-105247788D01*
X175726779Y-105235455D01*
X175676294Y-105224599D01*
X175627109Y-105213878D01*
X175573027Y-105201951D01*
X175510997Y-105188177D01*
X175454655Y-105175754D01*
X175401458Y-105164222D01*
X175356426Y-105154658D01*
X175324580Y-105148134D01*
X175317957Y-105146858D01*
X175297912Y-105143000D01*
X175272654Y-105137903D01*
X175239610Y-105131021D01*
X175196207Y-105121812D01*
X175139872Y-105109729D01*
X175068034Y-105094229D01*
X175008077Y-105081255D01*
X174913460Y-105060842D01*
X174834059Y-105043887D01*
X174765260Y-105029409D01*
X174728677Y-105021818D01*
X174689403Y-105013560D01*
X174636807Y-105002289D01*
X174577399Y-104989408D01*
X174517691Y-104976323D01*
X174510237Y-104974679D01*
X174452521Y-104962148D01*
X174395740Y-104950200D01*
X174345838Y-104940060D01*
X174308764Y-104932956D01*
X174304010Y-104932112D01*
X174240024Y-104920958D01*
X174199344Y-104853961D01*
X174177985Y-104818749D01*
X174159420Y-104788083D01*
X174147315Y-104768018D01*
X174146490Y-104766644D01*
X174134748Y-104748587D01*
X174128903Y-104741244D01*
X174121124Y-104730374D01*
X174106609Y-104707523D01*
X174093142Y-104685364D01*
X174074174Y-104653640D01*
X174057800Y-104626304D01*
X174050557Y-104614244D01*
X174038467Y-104593912D01*
X174021017Y-104564280D01*
X174010118Y-104545674D01*
X173993297Y-104519068D01*
X173979779Y-104501540D01*
X173974297Y-104497414D01*
X173967527Y-104489140D01*
X173966677Y-104482164D01*
X173961776Y-104468634D01*
X173957618Y-104466924D01*
X173948674Y-104458313D01*
X173942184Y-104441524D01*
X173934026Y-104422495D01*
X173925843Y-104416124D01*
X173916381Y-104408218D01*
X173915877Y-104404607D01*
X173910744Y-104392584D01*
X173896964Y-104367477D01*
X173876959Y-104333237D01*
X173853153Y-104293819D01*
X173827970Y-104253175D01*
X173803835Y-104215258D01*
X173783171Y-104184022D01*
X173768402Y-104163419D01*
X173766706Y-104161323D01*
X173755190Y-104145054D01*
X173754366Y-104135381D01*
X173765873Y-104132369D01*
X173791352Y-104136084D01*
G36*
X179991557Y-110390204D02*
G01*
X179676597Y-110390204D01*
X179676597Y-110613724D01*
X179981397Y-110613724D01*
X179981397Y-110694460D01*
X179681677Y-110700084D01*
X179676039Y-110989644D01*
X179991557Y-110989644D01*
X179991557Y-111081084D01*
X179595317Y-111081084D01*
X179595317Y-110308924D01*
X179991557Y-110308924D01*
X179991557Y-110390204D01*
G37*
X179991557Y-110390204D02*
X179676597Y-110390204D01*
X179676597Y-110613724D01*
X179981397Y-110613724D01*
X179981397Y-110694460D01*
X179681677Y-110700084D01*
X179676039Y-110989644D01*
X179991557Y-110989644D01*
X179991557Y-111081084D01*
X179595317Y-111081084D01*
X179595317Y-110308924D01*
X179991557Y-110308924D01*
X179991557Y-110390204D01*
G36*
X173279710Y-103343389D02*
G01*
X173305193Y-103355196D01*
X173343453Y-103373283D01*
X173391739Y-103396348D01*
X173447301Y-103423088D01*
X173465331Y-103431803D01*
X173529061Y-103462578D01*
X173592455Y-103493085D01*
X173651094Y-103521203D01*
X173700560Y-103544815D01*
X173736432Y-103561801D01*
X173738077Y-103562573D01*
X173778171Y-103581509D01*
X173830333Y-103606325D01*
X173888341Y-103634052D01*
X173945970Y-103661721D01*
X173956517Y-103666801D01*
X174025828Y-103700152D01*
X174093778Y-103732731D01*
X174164608Y-103766564D01*
X174242563Y-103803674D01*
X174331885Y-103846087D01*
X174398477Y-103877659D01*
X174450029Y-103902158D01*
X174511518Y-103931482D01*
X174574575Y-103961637D01*
X174621997Y-103984380D01*
X174724634Y-104033616D01*
X174837249Y-104087518D01*
X174951446Y-104142070D01*
X175058830Y-104193259D01*
X175089357Y-104207786D01*
X175134513Y-104229308D01*
X175190965Y-104256278D01*
X175251695Y-104285339D01*
X175309684Y-104313136D01*
X175312877Y-104314668D01*
X175370474Y-104342250D01*
X175431227Y-104371241D01*
X175488122Y-104398301D01*
X175534143Y-104420087D01*
X175536397Y-104421149D01*
X175582341Y-104442908D01*
X175639237Y-104470009D01*
X175699742Y-104498949D01*
X175754837Y-104525416D01*
X175863050Y-104577521D01*
X175954845Y-104621677D01*
X176032094Y-104658780D01*
X176096672Y-104689728D01*
X176150454Y-104715417D01*
X176195311Y-104736746D01*
X176233120Y-104754611D01*
X176252677Y-104763796D01*
X176340431Y-104805127D01*
X176410871Y-104838827D01*
X176465242Y-104865533D01*
X176504793Y-104885880D01*
X176530769Y-104900507D01*
X176544419Y-104910048D01*
X176547317Y-104914227D01*
X176539282Y-104922690D01*
X176516892Y-104919897D01*
X176501597Y-104914471D01*
X176482271Y-104907655D01*
X176449919Y-104897267D01*
X176411030Y-104885381D01*
X176405077Y-104883610D01*
X176361845Y-104870637D01*
X176320384Y-104857926D01*
X176289346Y-104848133D01*
X176288237Y-104847772D01*
X176255241Y-104837445D01*
X176213800Y-104825047D01*
X176186637Y-104817188D01*
X176143615Y-104804507D01*
X176093429Y-104789067D01*
X176054557Y-104776670D01*
X176013141Y-104763434D01*
X175960597Y-104747022D01*
X175905279Y-104730029D01*
X175876757Y-104721395D01*
X175807667Y-104700537D01*
X175736535Y-104678925D01*
X175667266Y-104657759D01*
X175603767Y-104638236D01*
X175549942Y-104621555D01*
X175509697Y-104608916D01*
X175495757Y-104604444D01*
X175465462Y-104594878D01*
X175424320Y-104582245D01*
X175380978Y-104569199D01*
X175378917Y-104568585D01*
X175332413Y-104554579D01*
X175284572Y-104539874D01*
X175246837Y-104528000D01*
X175203803Y-104514523D01*
X175155356Y-104499830D01*
X175129997Y-104492350D01*
X175067751Y-104473945D01*
X174999771Y-104453325D01*
X174935348Y-104433335D01*
X174896317Y-104420903D01*
X174867269Y-104411686D01*
X174821597Y-104397426D01*
X174762115Y-104378994D01*
X174691640Y-104357257D01*
X174612987Y-104333085D01*
X174528972Y-104307346D01*
X174469597Y-104289204D01*
X174420469Y-104274142D01*
X174376393Y-104260505D01*
X174342137Y-104249776D01*
X174322470Y-104243439D01*
X174322277Y-104243374D01*
X174300248Y-104236392D01*
X174265686Y-104225966D01*
X174225603Y-104214205D01*
X174220677Y-104212782D01*
X174177389Y-104200069D01*
X174135887Y-104187496D01*
X174104857Y-104177697D01*
X174103837Y-104177360D01*
X174068637Y-104165978D01*
X174021663Y-104151156D01*
X173967582Y-104134329D01*
X173911066Y-104116927D01*
X173856783Y-104100386D01*
X173809404Y-104086137D01*
X173773599Y-104075613D01*
X173758397Y-104071357D01*
X173731954Y-104063734D01*
X173713022Y-104055111D01*
X173697370Y-104041591D01*
X173680766Y-104019275D01*
X173658980Y-103984268D01*
X173652883Y-103974164D01*
X173625493Y-103928757D01*
X173606485Y-103897498D01*
X173593757Y-103877126D01*
X173585209Y-103864380D01*
X173578738Y-103856002D01*
X173572244Y-103848730D01*
X173571565Y-103847996D01*
X173557259Y-103827982D01*
X173543016Y-103801846D01*
X173528006Y-103772758D01*
X173507133Y-103736188D01*
X173483002Y-103696249D01*
X173458222Y-103657055D01*
X173435399Y-103622718D01*
X173417141Y-103597353D01*
X173406054Y-103585073D01*
X173405383Y-103584697D01*
X173397908Y-103573030D01*
X173397717Y-103570557D01*
X173392546Y-103557834D01*
X173378873Y-103532775D01*
X173359459Y-103499808D01*
X173337063Y-103463366D01*
X173314445Y-103427875D01*
X173294364Y-103397767D01*
X173279582Y-103377472D01*
X173273593Y-103371337D01*
X173267355Y-103361552D01*
X173265563Y-103346886D01*
X173269630Y-103339166D01*
X173269751Y-103339164D01*
X173279710Y-103343389D01*
G37*
X173279710Y-103343389D02*
X173305193Y-103355196D01*
X173343453Y-103373283D01*
X173391739Y-103396348D01*
X173447301Y-103423088D01*
X173465331Y-103431803D01*
X173529061Y-103462578D01*
X173592455Y-103493085D01*
X173651094Y-103521203D01*
X173700560Y-103544815D01*
X173736432Y-103561801D01*
X173738077Y-103562573D01*
X173778171Y-103581509D01*
X173830333Y-103606325D01*
X173888341Y-103634052D01*
X173945970Y-103661721D01*
X173956517Y-103666801D01*
X174025828Y-103700152D01*
X174093778Y-103732731D01*
X174164608Y-103766564D01*
X174242563Y-103803674D01*
X174331885Y-103846087D01*
X174398477Y-103877659D01*
X174450029Y-103902158D01*
X174511518Y-103931482D01*
X174574575Y-103961637D01*
X174621997Y-103984380D01*
X174724634Y-104033616D01*
X174837249Y-104087518D01*
X174951446Y-104142070D01*
X175058830Y-104193259D01*
X175089357Y-104207786D01*
X175134513Y-104229308D01*
X175190965Y-104256278D01*
X175251695Y-104285339D01*
X175309684Y-104313136D01*
X175312877Y-104314668D01*
X175370474Y-104342250D01*
X175431227Y-104371241D01*
X175488122Y-104398301D01*
X175534143Y-104420087D01*
X175536397Y-104421149D01*
X175582341Y-104442908D01*
X175639237Y-104470009D01*
X175699742Y-104498949D01*
X175754837Y-104525416D01*
X175863050Y-104577521D01*
X175954845Y-104621677D01*
X176032094Y-104658780D01*
X176096672Y-104689728D01*
X176150454Y-104715417D01*
X176195311Y-104736746D01*
X176233120Y-104754611D01*
X176252677Y-104763796D01*
X176340431Y-104805127D01*
X176410871Y-104838827D01*
X176465242Y-104865533D01*
X176504793Y-104885880D01*
X176530769Y-104900507D01*
X176544419Y-104910048D01*
X176547317Y-104914227D01*
X176539282Y-104922690D01*
X176516892Y-104919897D01*
X176501597Y-104914471D01*
X176482271Y-104907655D01*
X176449919Y-104897267D01*
X176411030Y-104885381D01*
X176405077Y-104883610D01*
X176361845Y-104870637D01*
X176320384Y-104857926D01*
X176289346Y-104848133D01*
X176288237Y-104847772D01*
X176255241Y-104837445D01*
X176213800Y-104825047D01*
X176186637Y-104817188D01*
X176143615Y-104804507D01*
X176093429Y-104789067D01*
X176054557Y-104776670D01*
X176013141Y-104763434D01*
X175960597Y-104747022D01*
X175905279Y-104730029D01*
X175876757Y-104721395D01*
X175807667Y-104700537D01*
X175736535Y-104678925D01*
X175667266Y-104657759D01*
X175603767Y-104638236D01*
X175549942Y-104621555D01*
X175509697Y-104608916D01*
X175495757Y-104604444D01*
X175465462Y-104594878D01*
X175424320Y-104582245D01*
X175380978Y-104569199D01*
X175378917Y-104568585D01*
X175332413Y-104554579D01*
X175284572Y-104539874D01*
X175246837Y-104528000D01*
X175203803Y-104514523D01*
X175155356Y-104499830D01*
X175129997Y-104492350D01*
X175067751Y-104473945D01*
X174999771Y-104453325D01*
X174935348Y-104433335D01*
X174896317Y-104420903D01*
X174867269Y-104411686D01*
X174821597Y-104397426D01*
X174762115Y-104378994D01*
X174691640Y-104357257D01*
X174612987Y-104333085D01*
X174528972Y-104307346D01*
X174469597Y-104289204D01*
X174420469Y-104274142D01*
X174376393Y-104260505D01*
X174342137Y-104249776D01*
X174322470Y-104243439D01*
X174322277Y-104243374D01*
X174300248Y-104236392D01*
X174265686Y-104225966D01*
X174225603Y-104214205D01*
X174220677Y-104212782D01*
X174177389Y-104200069D01*
X174135887Y-104187496D01*
X174104857Y-104177697D01*
X174103837Y-104177360D01*
X174068637Y-104165978D01*
X174021663Y-104151156D01*
X173967582Y-104134329D01*
X173911066Y-104116927D01*
X173856783Y-104100386D01*
X173809404Y-104086137D01*
X173773599Y-104075613D01*
X173758397Y-104071357D01*
X173731954Y-104063734D01*
X173713022Y-104055111D01*
X173697370Y-104041591D01*
X173680766Y-104019275D01*
X173658980Y-103984268D01*
X173652883Y-103974164D01*
X173625493Y-103928757D01*
X173606485Y-103897498D01*
X173593757Y-103877126D01*
X173585209Y-103864380D01*
X173578738Y-103856002D01*
X173572244Y-103848730D01*
X173571565Y-103847996D01*
X173557259Y-103827982D01*
X173543016Y-103801846D01*
X173528006Y-103772758D01*
X173507133Y-103736188D01*
X173483002Y-103696249D01*
X173458222Y-103657055D01*
X173435399Y-103622718D01*
X173417141Y-103597353D01*
X173406054Y-103585073D01*
X173405383Y-103584697D01*
X173397908Y-103573030D01*
X173397717Y-103570557D01*
X173392546Y-103557834D01*
X173378873Y-103532775D01*
X173359459Y-103499808D01*
X173337063Y-103463366D01*
X173314445Y-103427875D01*
X173294364Y-103397767D01*
X173279582Y-103377472D01*
X173273593Y-103371337D01*
X173267355Y-103361552D01*
X173265563Y-103346886D01*
X173269630Y-103339166D01*
X173269751Y-103339164D01*
X173279710Y-103343389D01*
G36*
X172582472Y-102195860D02*
G01*
X172606637Y-102208563D01*
X172639112Y-102226751D01*
X172649940Y-102233001D01*
X172688786Y-102255555D01*
X172725212Y-102276674D01*
X172752194Y-102292286D01*
X172755096Y-102293961D01*
X172788380Y-102313167D01*
X172821136Y-102332086D01*
X172840554Y-102343240D01*
X172874076Y-102362425D01*
X172918150Y-102387612D01*
X172969226Y-102416771D01*
X173016717Y-102443861D01*
X173069420Y-102473982D01*
X173116694Y-102501129D01*
X173155427Y-102523505D01*
X173182506Y-102539313D01*
X173194517Y-102546553D01*
X173213370Y-102557732D01*
X173240180Y-102572390D01*
X173245317Y-102575088D01*
X173267742Y-102587169D01*
X173303121Y-102606680D01*
X173346744Y-102631007D01*
X173393901Y-102657535D01*
X173397717Y-102659692D01*
X173444940Y-102686226D01*
X173489012Y-102710687D01*
X173525228Y-102730482D01*
X173548882Y-102743019D01*
X173550117Y-102743644D01*
X173579153Y-102758696D01*
X173603571Y-102772077D01*
X173605997Y-102773487D01*
X173622269Y-102782594D01*
X173652456Y-102799073D01*
X173692538Y-102820744D01*
X173738495Y-102845426D01*
X173748237Y-102850638D01*
X173797290Y-102876916D01*
X173843625Y-102901825D01*
X173882371Y-102922741D01*
X173908659Y-102937040D01*
X173910797Y-102938215D01*
X173951967Y-102960379D01*
X174008777Y-102990208D01*
X174078635Y-103026394D01*
X174158948Y-103067631D01*
X174247127Y-103112609D01*
X174340578Y-103160022D01*
X174436709Y-103208560D01*
X174532930Y-103256918D01*
X174626649Y-103303786D01*
X174715273Y-103347856D01*
X174796211Y-103387822D01*
X174866871Y-103422375D01*
X174924661Y-103450206D01*
X174936957Y-103456038D01*
X175026916Y-103498222D01*
X175130608Y-103546320D01*
X175243157Y-103598086D01*
X175359686Y-103651277D01*
X175455117Y-103694530D01*
X175579221Y-103749610D01*
X175714438Y-103807897D01*
X175854930Y-103866967D01*
X175994859Y-103924397D01*
X176128389Y-103977761D01*
X176249682Y-104024636D01*
X176252677Y-104025768D01*
X176305200Y-104045701D01*
X176352211Y-104063720D01*
X176389852Y-104078332D01*
X176414263Y-104088045D01*
X176420317Y-104090605D01*
X176449989Y-104102668D01*
X176495883Y-104119613D01*
X176554786Y-104140386D01*
X176623487Y-104163935D01*
X176698771Y-104189208D01*
X176777427Y-104215151D01*
X176856243Y-104240712D01*
X176932005Y-104264839D01*
X177001502Y-104286479D01*
X177061521Y-104304579D01*
X177108849Y-104318086D01*
X177134988Y-104324780D01*
X177189260Y-104337317D01*
X177275676Y-104516420D01*
X177308598Y-104584526D01*
X177347173Y-104664128D01*
X177388124Y-104748471D01*
X177428169Y-104830799D01*
X177461280Y-104898724D01*
X177493687Y-104965211D01*
X177526323Y-105032342D01*
X177557000Y-105095601D01*
X177583529Y-105150475D01*
X177603721Y-105192447D01*
X177606590Y-105198444D01*
X177627208Y-105241588D01*
X177653845Y-105297323D01*
X177683755Y-105359906D01*
X177714193Y-105423593D01*
X177730410Y-105457524D01*
X177760858Y-105520868D01*
X177797157Y-105595818D01*
X177836102Y-105675787D01*
X177874485Y-105754191D01*
X177904152Y-105814431D01*
X177932603Y-105872515D01*
X177957707Y-105924749D01*
X177978139Y-105968292D01*
X177992572Y-106000306D01*
X177999683Y-106017952D01*
X178000197Y-106020171D01*
X178007229Y-106031008D01*
X178010357Y-106031564D01*
X178019814Y-106039577D01*
X178020517Y-106044174D01*
X178024747Y-106058845D01*
X178035944Y-106086224D01*
X178051863Y-106120905D01*
X178055295Y-106127994D01*
X178070909Y-106160098D01*
X178093218Y-106206150D01*
X178120112Y-106261784D01*
X178149481Y-106322636D01*
X178178127Y-106382084D01*
X178212624Y-106453567D01*
X178251201Y-106533236D01*
X178290327Y-106613817D01*
X178326474Y-106688037D01*
X178346548Y-106729116D01*
X178372377Y-106782464D01*
X178394760Y-106829825D01*
X178412260Y-106868066D01*
X178423442Y-106894056D01*
X178426917Y-106904376D01*
X178434100Y-106914994D01*
X178437077Y-106915484D01*
X178446619Y-106923448D01*
X178447237Y-106927596D01*
X178451408Y-106942681D01*
X178462282Y-106969219D01*
X178477396Y-107002196D01*
X178494291Y-107036601D01*
X178510503Y-107067422D01*
X178523572Y-107089649D01*
X178531037Y-107098268D01*
X178531057Y-107098268D01*
X178538291Y-107090408D01*
X178538677Y-107086785D01*
X178542948Y-107074078D01*
X178554734Y-107046587D01*
X178572495Y-107007718D01*
X178594690Y-106960876D01*
X178608768Y-106931845D01*
X178638896Y-106870034D01*
X178674108Y-106797498D01*
X178710718Y-106721842D01*
X178745044Y-106650673D01*
X178756945Y-106625924D01*
X178787513Y-106562565D01*
X178820035Y-106495631D01*
X178851462Y-106431367D01*
X178878742Y-106376021D01*
X178890053Y-106353287D01*
X178911434Y-106309376D01*
X178928939Y-106271263D01*
X178940756Y-106243042D01*
X178945077Y-106228827D01*
X178950845Y-106215865D01*
X178955237Y-106214444D01*
X178965048Y-106206666D01*
X178965397Y-106203941D01*
X178969694Y-106192137D01*
X178981733Y-106164868D01*
X179000236Y-106124880D01*
X179023925Y-106074915D01*
X179051519Y-106017718D01*
X179066001Y-105988041D01*
X179097715Y-105923085D01*
X179128730Y-105859183D01*
X179157115Y-105800346D01*
X179180935Y-105750582D01*
X179198259Y-105713902D01*
X179201718Y-105706444D01*
X179215271Y-105677283D01*
X179231677Y-105642482D01*
X179251748Y-105600357D01*
X179276295Y-105549227D01*
X179306129Y-105487411D01*
X179342059Y-105413227D01*
X179384898Y-105324992D01*
X179435455Y-105221024D01*
X179463751Y-105162884D01*
X179496125Y-105096221D01*
X179530182Y-105025821D01*
X179563133Y-104957471D01*
X179592184Y-104896960D01*
X179610743Y-104858084D01*
X179638771Y-104799308D01*
X179671476Y-104730987D01*
X179704671Y-104661857D01*
X179732512Y-104604084D01*
X179758431Y-104550181D01*
X179783974Y-104496637D01*
X179806461Y-104449095D01*
X179823213Y-104413198D01*
X179825353Y-104408537D01*
X179836151Y-104384598D01*
X179845292Y-104367022D01*
X179856004Y-104353908D01*
X179871515Y-104343356D01*
X179895051Y-104333465D01*
X179929838Y-104322333D01*
X179979105Y-104308059D01*
X180011877Y-104298661D01*
X180137771Y-104260533D01*
X180278685Y-104214524D01*
X180431459Y-104161831D01*
X180592935Y-104103649D01*
X180759953Y-104041178D01*
X180929353Y-103975612D01*
X181097977Y-103908149D01*
X181262663Y-103839986D01*
X181420254Y-103772319D01*
X181528695Y-103724062D01*
X181571699Y-103704737D01*
X181607435Y-103688929D01*
X181632146Y-103678283D01*
X181642056Y-103674444D01*
X181652201Y-103670420D01*
X181676820Y-103659524D01*
X181711992Y-103643515D01*
X181745757Y-103627899D01*
X181788653Y-103607955D01*
X181844623Y-103581964D01*
X181908301Y-103552415D01*
X181974322Y-103521799D01*
X182023557Y-103498982D01*
X182067693Y-103478125D01*
X182127393Y-103449298D01*
X182200120Y-103413771D01*
X182283339Y-103372811D01*
X182374514Y-103327685D01*
X182471107Y-103279660D01*
X182570584Y-103230005D01*
X182670408Y-103179987D01*
X182768044Y-103130873D01*
X182860954Y-103083931D01*
X182946603Y-103040429D01*
X183022455Y-103001634D01*
X183085974Y-102968814D01*
X183120837Y-102950551D01*
X183192937Y-102912164D01*
X183278704Y-102865990D01*
X183374113Y-102814235D01*
X183475135Y-102759103D01*
X183577745Y-102702797D01*
X183677915Y-102647522D01*
X183771618Y-102595483D01*
X183854828Y-102548884D01*
X183862517Y-102544552D01*
X183920543Y-102511808D01*
X183966067Y-102486037D01*
X184004306Y-102464264D01*
X184040477Y-102443516D01*
X184079797Y-102420819D01*
X184092443Y-102413500D01*
X184188950Y-102357727D01*
X184269279Y-102311545D01*
X184334759Y-102274225D01*
X184386715Y-102245040D01*
X184426476Y-102223259D01*
X184455369Y-102208156D01*
X184474721Y-102199001D01*
X184485859Y-102195065D01*
X184489883Y-102195303D01*
X184490107Y-102207900D01*
X184480924Y-102228668D01*
X184480267Y-102229760D01*
X184466794Y-102252282D01*
X184447320Y-102285376D01*
X184425983Y-102322007D01*
X184425313Y-102323164D01*
X184399181Y-102367146D01*
X184368777Y-102416665D01*
X184343232Y-102457023D01*
X184322580Y-102490271D01*
X184307162Y-102517561D01*
X184299701Y-102534005D01*
X184299397Y-102535763D01*
X184293728Y-102546252D01*
X184291547Y-102546684D01*
X184282424Y-102554844D01*
X184268920Y-102575314D01*
X184263704Y-102584784D01*
X184250156Y-102609559D01*
X184240331Y-102625673D01*
X184238534Y-102627964D01*
X184229749Y-102639937D01*
X184221384Y-102653364D01*
X184211597Y-102669507D01*
X184193554Y-102698856D01*
X184169746Y-102737371D01*
X184142665Y-102781013D01*
X184140104Y-102785133D01*
X184113100Y-102829279D01*
X184089603Y-102869035D01*
X184072000Y-102900268D01*
X184062680Y-102918845D01*
X184062330Y-102919753D01*
X184052462Y-102937548D01*
X184044550Y-102942924D01*
X184035559Y-102950732D01*
X184035237Y-102953484D01*
X184029913Y-102966929D01*
X184016064Y-102991319D01*
X183999677Y-103016849D01*
X183980985Y-103046405D01*
X183968106Y-103070217D01*
X183964117Y-103081641D01*
X183957794Y-103095466D01*
X183955120Y-103097017D01*
X183946181Y-103106707D01*
X183929836Y-103129789D01*
X183908945Y-103162117D01*
X183898480Y-103179144D01*
X183876557Y-103213889D01*
X183857869Y-103240800D01*
X183845227Y-103255946D01*
X183842139Y-103257884D01*
X183830260Y-103262030D01*
X183803650Y-103273411D01*
X183765881Y-103290437D01*
X183720528Y-103311519D01*
X183705037Y-103318844D01*
X183658502Y-103340814D01*
X183618934Y-103359266D01*
X183589744Y-103372627D01*
X183574338Y-103379324D01*
X183572854Y-103379804D01*
X183562606Y-103383821D01*
X183538286Y-103394588D01*
X183504199Y-103410180D01*
X183484657Y-103419268D01*
X183427645Y-103445804D01*
X183354891Y-103479479D01*
X183269150Y-103519022D01*
X183173178Y-103563163D01*
X183090357Y-103601173D01*
X182974358Y-103654401D01*
X182870897Y-103701988D01*
X182777427Y-103745145D01*
X182691402Y-103785083D01*
X182610278Y-103823013D01*
X182531508Y-103860146D01*
X182452546Y-103897693D01*
X182370847Y-103936865D01*
X182283865Y-103978873D01*
X182189055Y-104024927D01*
X182083869Y-104076240D01*
X181965763Y-104134021D01*
X181832192Y-104199481D01*
X181820357Y-104205285D01*
X181745184Y-104242094D01*
X181669813Y-104278904D01*
X181597918Y-104313927D01*
X181533174Y-104345375D01*
X181479257Y-104371460D01*
X181439841Y-104390395D01*
X181439357Y-104390626D01*
X181398156Y-104410401D01*
X181342846Y-104437127D01*
X181277558Y-104468798D01*
X181206422Y-104503408D01*
X181133570Y-104538951D01*
X181088837Y-104560829D01*
X181007538Y-104600625D01*
X180916641Y-104645111D01*
X180822623Y-104691117D01*
X180731961Y-104735474D01*
X180651132Y-104775013D01*
X180629814Y-104785439D01*
X180556974Y-104821401D01*
X180500486Y-104850175D01*
X180458212Y-104873001D01*
X180428017Y-104891122D01*
X180407763Y-104905778D01*
X180395313Y-104918209D01*
X180391404Y-104923881D01*
X180377440Y-104944360D01*
X180366934Y-104954398D01*
X180365971Y-104954604D01*
X180357308Y-104962901D01*
X180352708Y-104973437D01*
X180342864Y-104991075D01*
X180323732Y-105016830D01*
X180306680Y-105036937D01*
X180282164Y-105066120D01*
X180261898Y-105093458D01*
X180253553Y-105107004D01*
X180236890Y-105133263D01*
X180217288Y-105157804D01*
X180199133Y-105179916D01*
X180175611Y-105211458D01*
X180156328Y-105239015D01*
X180135364Y-105269434D01*
X180117892Y-105293799D01*
X180108397Y-105305986D01*
X180100704Y-105314938D01*
X180089695Y-105328785D01*
X180073799Y-105349619D01*
X180051446Y-105379534D01*
X180021065Y-105420624D01*
X179981086Y-105474981D01*
X179956616Y-105508324D01*
X179921305Y-105556235D01*
X179887969Y-105601061D01*
X179859446Y-105639017D01*
X179838572Y-105666316D01*
X179831660Y-105675070D01*
X179810146Y-105702498D01*
X179791724Y-105727371D01*
X179788357Y-105732217D01*
X179759418Y-105774614D01*
X179740285Y-105801912D01*
X179729621Y-105816006D01*
X179727606Y-105818204D01*
X179718136Y-105829759D01*
X179697886Y-105856383D01*
X179667925Y-105896639D01*
X179629322Y-105949087D01*
X179583146Y-106012291D01*
X179576511Y-106021404D01*
X179549478Y-106058428D01*
X179526308Y-106089948D01*
X179509981Y-106111921D01*
X179504185Y-106119499D01*
X179493740Y-106133104D01*
X179473090Y-106160537D01*
X179444103Y-106199283D01*
X179408647Y-106246824D01*
X179368591Y-106300646D01*
X179325802Y-106358230D01*
X179282148Y-106417061D01*
X179239496Y-106474623D01*
X179199715Y-106528399D01*
X179164672Y-106575872D01*
X179136236Y-106614527D01*
X179116274Y-106641846D01*
X179109992Y-106650557D01*
X179094951Y-106671120D01*
X179073006Y-106700561D01*
X179048187Y-106733542D01*
X179024523Y-106764723D01*
X179006045Y-106788764D01*
X178998224Y-106798644D01*
X178988736Y-106811462D01*
X178971226Y-106836167D01*
X178949145Y-106867878D01*
X178944603Y-106874460D01*
X178920242Y-106908964D01*
X178897851Y-106939222D01*
X178881835Y-106959303D01*
X178880483Y-106960820D01*
X178863210Y-106982362D01*
X178842570Y-107011502D01*
X178835715Y-107021937D01*
X178817786Y-107048943D01*
X178802839Y-107069808D01*
X178798708Y-107074925D01*
X178791987Y-107082650D01*
X178784582Y-107091640D01*
X178774079Y-107104999D01*
X178758063Y-107125835D01*
X178734122Y-107157252D01*
X178707448Y-107192344D01*
X178647620Y-107271084D01*
X178527509Y-107271084D01*
X178467775Y-107270167D01*
X178426814Y-107267320D01*
X178403153Y-107262403D01*
X178396637Y-107258384D01*
X178363647Y-107218742D01*
X178343614Y-107192916D01*
X178335694Y-107179806D01*
X178335489Y-107178658D01*
X178329519Y-107167327D01*
X178317063Y-107151362D01*
X178296237Y-107125720D01*
X178281963Y-107106627D01*
X178271743Y-107092605D01*
X178251711Y-107065423D01*
X178223988Y-107027933D01*
X178190692Y-106982992D01*
X178153945Y-106933452D01*
X178115864Y-106882168D01*
X178078571Y-106831995D01*
X178044185Y-106785786D01*
X178014825Y-106746397D01*
X177992613Y-106716681D01*
X177979666Y-106699492D01*
X177977779Y-106697044D01*
X177967924Y-106683895D01*
X177950268Y-106659820D01*
X177931646Y-106634186D01*
X177907106Y-106600300D01*
X177887040Y-106572712D01*
X177868345Y-106547216D01*
X177847917Y-106519605D01*
X177822652Y-106485673D01*
X177789446Y-106441215D01*
X177774745Y-106421548D01*
X177742341Y-106378148D01*
X177712962Y-106338699D01*
X177689446Y-106307018D01*
X177674631Y-106286925D01*
X177672785Y-106284388D01*
X177648268Y-106250812D01*
X177616811Y-106208179D01*
X177580452Y-106159206D01*
X177541229Y-106106609D01*
X177501181Y-106053105D01*
X177462346Y-106001411D01*
X177426762Y-105954244D01*
X177396469Y-105914319D01*
X177373503Y-105884354D01*
X177359905Y-105867066D01*
X177357768Y-105864548D01*
X177344274Y-105847477D01*
X177339797Y-105838162D01*
X177333904Y-105826232D01*
X177322017Y-105810454D01*
X177294754Y-105777730D01*
X177275827Y-105753446D01*
X177260073Y-105730855D01*
X177254251Y-105721944D01*
X177238512Y-105698522D01*
X177226428Y-105682134D01*
X177225730Y-105681308D01*
X177216895Y-105669928D01*
X177198749Y-105645804D01*
X177173994Y-105612582D01*
X177145330Y-105573908D01*
X177115458Y-105533429D01*
X177087078Y-105494789D01*
X177062892Y-105461636D01*
X177057337Y-105453970D01*
X177039883Y-105430452D01*
X177017917Y-105401621D01*
X177012137Y-105394152D01*
X176995256Y-105371177D01*
X176985289Y-105355181D01*
X176984149Y-105351986D01*
X176977830Y-105341301D01*
X176962108Y-105322199D01*
X176955839Y-105315284D01*
X176930814Y-105285014D01*
X176907389Y-105251745D01*
X176905351Y-105248473D01*
X176884350Y-105217580D01*
X176861917Y-105189340D01*
X176858978Y-105186086D01*
X176836613Y-105158858D01*
X176814985Y-105128001D01*
X176813666Y-105125896D01*
X176794502Y-105097634D01*
X176775606Y-105073629D01*
X176773629Y-105071444D01*
X176756910Y-105051269D01*
X176735245Y-105022395D01*
X176723230Y-105005404D01*
X176700828Y-104974161D01*
X176679202Y-104945969D01*
X176670311Y-104935269D01*
X176655401Y-104915998D01*
X176648925Y-104903157D01*
X176648917Y-104902925D01*
X176640375Y-104895325D01*
X176617482Y-104881571D01*
X176584335Y-104864029D01*
X176565097Y-104854529D01*
X176530045Y-104837606D01*
X176480967Y-104813909D01*
X176422135Y-104785501D01*
X176357820Y-104754446D01*
X176292293Y-104722804D01*
X176279637Y-104716693D01*
X176220910Y-104688396D01*
X176168651Y-104663332D01*
X176125517Y-104642767D01*
X176094166Y-104627965D01*
X176077256Y-104620192D01*
X176075067Y-104619324D01*
X176065470Y-104615105D01*
X176040319Y-104603316D01*
X176002340Y-104585255D01*
X175954261Y-104562221D01*
X175898809Y-104535512D01*
X175880466Y-104526650D01*
X175814806Y-104494945D01*
X175747701Y-104462616D01*
X175684088Y-104432036D01*
X175628904Y-104405579D01*
X175587197Y-104385671D01*
X175533311Y-104360052D01*
X175470501Y-104330191D01*
X175408194Y-104300571D01*
X175373837Y-104284239D01*
X175319722Y-104258425D01*
X175255450Y-104227631D01*
X175189142Y-104195752D01*
X175129997Y-104167208D01*
X175017510Y-104112856D01*
X174905204Y-104058723D01*
X174797437Y-104006905D01*
X174698568Y-103959499D01*
X174612957Y-103918599D01*
X174601677Y-103913226D01*
X174546440Y-103886882D01*
X174481467Y-103855829D01*
X174415335Y-103824169D01*
X174362917Y-103799029D01*
X174306607Y-103772050D01*
X174247492Y-103743826D01*
X174192638Y-103717726D01*
X174149557Y-103697328D01*
X173940283Y-103597986D01*
X173730280Y-103496896D01*
X173676640Y-103470864D01*
X173617690Y-103442339D01*
X173559301Y-103414312D01*
X173506294Y-103389081D01*
X173463491Y-103368945D01*
X173442960Y-103359465D01*
X173363865Y-103322592D01*
X173297360Y-103289789D01*
X173245067Y-103261918D01*
X173208613Y-103239840D01*
X173190765Y-103225718D01*
X173173298Y-103203205D01*
X173154220Y-103173390D01*
X173149902Y-103165766D01*
X173130913Y-103132434D01*
X173106952Y-103092247D01*
X173080628Y-103049359D01*
X173054551Y-103007925D01*
X173031332Y-102972099D01*
X173013580Y-102946035D01*
X173004659Y-102934578D01*
X172993270Y-102918728D01*
X172991317Y-102912020D01*
X172986103Y-102900974D01*
X172971585Y-102875630D01*
X172949443Y-102838784D01*
X172921362Y-102793233D01*
X172889021Y-102741772D01*
X172886302Y-102737486D01*
X172838511Y-102661989D01*
X172798280Y-102597853D01*
X172762096Y-102539397D01*
X172726447Y-102480944D01*
X172687820Y-102416814D01*
X172683450Y-102409524D01*
X172671528Y-102391451D01*
X172665431Y-102384124D01*
X172657164Y-102372676D01*
X172643893Y-102350552D01*
X172640031Y-102343670D01*
X172624094Y-102317143D01*
X172609858Y-102297072D01*
X172607777Y-102294684D01*
X172596748Y-102276153D01*
X172595077Y-102267802D01*
X172587939Y-102250653D01*
X172579837Y-102241883D01*
X172569449Y-102226697D01*
X172564522Y-102207793D01*
X172566505Y-102193698D01*
X172571200Y-102191084D01*
X172582472Y-102195860D01*
G37*
X172582472Y-102195860D02*
X172606637Y-102208563D01*
X172639112Y-102226751D01*
X172649940Y-102233001D01*
X172688786Y-102255555D01*
X172725212Y-102276674D01*
X172752194Y-102292286D01*
X172755096Y-102293961D01*
X172788380Y-102313167D01*
X172821136Y-102332086D01*
X172840554Y-102343240D01*
X172874076Y-102362425D01*
X172918150Y-102387612D01*
X172969226Y-102416771D01*
X173016717Y-102443861D01*
X173069420Y-102473982D01*
X173116694Y-102501129D01*
X173155427Y-102523505D01*
X173182506Y-102539313D01*
X173194517Y-102546553D01*
X173213370Y-102557732D01*
X173240180Y-102572390D01*
X173245317Y-102575088D01*
X173267742Y-102587169D01*
X173303121Y-102606680D01*
X173346744Y-102631007D01*
X173393901Y-102657535D01*
X173397717Y-102659692D01*
X173444940Y-102686226D01*
X173489012Y-102710687D01*
X173525228Y-102730482D01*
X173548882Y-102743019D01*
X173550117Y-102743644D01*
X173579153Y-102758696D01*
X173603571Y-102772077D01*
X173605997Y-102773487D01*
X173622269Y-102782594D01*
X173652456Y-102799073D01*
X173692538Y-102820744D01*
X173738495Y-102845426D01*
X173748237Y-102850638D01*
X173797290Y-102876916D01*
X173843625Y-102901825D01*
X173882371Y-102922741D01*
X173908659Y-102937040D01*
X173910797Y-102938215D01*
X173951967Y-102960379D01*
X174008777Y-102990208D01*
X174078635Y-103026394D01*
X174158948Y-103067631D01*
X174247127Y-103112609D01*
X174340578Y-103160022D01*
X174436709Y-103208560D01*
X174532930Y-103256918D01*
X174626649Y-103303786D01*
X174715273Y-103347856D01*
X174796211Y-103387822D01*
X174866871Y-103422375D01*
X174924661Y-103450206D01*
X174936957Y-103456038D01*
X175026916Y-103498222D01*
X175130608Y-103546320D01*
X175243157Y-103598086D01*
X175359686Y-103651277D01*
X175455117Y-103694530D01*
X175579221Y-103749610D01*
X175714438Y-103807897D01*
X175854930Y-103866967D01*
X175994859Y-103924397D01*
X176128389Y-103977761D01*
X176249682Y-104024636D01*
X176252677Y-104025768D01*
X176305200Y-104045701D01*
X176352211Y-104063720D01*
X176389852Y-104078332D01*
X176414263Y-104088045D01*
X176420317Y-104090605D01*
X176449989Y-104102668D01*
X176495883Y-104119613D01*
X176554786Y-104140386D01*
X176623487Y-104163935D01*
X176698771Y-104189208D01*
X176777427Y-104215151D01*
X176856243Y-104240712D01*
X176932005Y-104264839D01*
X177001502Y-104286479D01*
X177061521Y-104304579D01*
X177108849Y-104318086D01*
X177134988Y-104324780D01*
X177189260Y-104337317D01*
X177275676Y-104516420D01*
X177308598Y-104584526D01*
X177347173Y-104664128D01*
X177388124Y-104748471D01*
X177428169Y-104830799D01*
X177461280Y-104898724D01*
X177493687Y-104965211D01*
X177526323Y-105032342D01*
X177557000Y-105095601D01*
X177583529Y-105150475D01*
X177603721Y-105192447D01*
X177606590Y-105198444D01*
X177627208Y-105241588D01*
X177653845Y-105297323D01*
X177683755Y-105359906D01*
X177714193Y-105423593D01*
X177730410Y-105457524D01*
X177760858Y-105520868D01*
X177797157Y-105595818D01*
X177836102Y-105675787D01*
X177874485Y-105754191D01*
X177904152Y-105814431D01*
X177932603Y-105872515D01*
X177957707Y-105924749D01*
X177978139Y-105968292D01*
X177992572Y-106000306D01*
X177999683Y-106017952D01*
X178000197Y-106020171D01*
X178007229Y-106031008D01*
X178010357Y-106031564D01*
X178019814Y-106039577D01*
X178020517Y-106044174D01*
X178024747Y-106058845D01*
X178035944Y-106086224D01*
X178051863Y-106120905D01*
X178055295Y-106127994D01*
X178070909Y-106160098D01*
X178093218Y-106206150D01*
X178120112Y-106261784D01*
X178149481Y-106322636D01*
X178178127Y-106382084D01*
X178212624Y-106453567D01*
X178251201Y-106533236D01*
X178290327Y-106613817D01*
X178326474Y-106688037D01*
X178346548Y-106729116D01*
X178372377Y-106782464D01*
X178394760Y-106829825D01*
X178412260Y-106868066D01*
X178423442Y-106894056D01*
X178426917Y-106904376D01*
X178434100Y-106914994D01*
X178437077Y-106915484D01*
X178446619Y-106923448D01*
X178447237Y-106927596D01*
X178451408Y-106942681D01*
X178462282Y-106969219D01*
X178477396Y-107002196D01*
X178494291Y-107036601D01*
X178510503Y-107067422D01*
X178523572Y-107089649D01*
X178531037Y-107098268D01*
X178531057Y-107098268D01*
X178538291Y-107090408D01*
X178538677Y-107086785D01*
X178542948Y-107074078D01*
X178554734Y-107046587D01*
X178572495Y-107007718D01*
X178594690Y-106960876D01*
X178608768Y-106931845D01*
X178638896Y-106870034D01*
X178674108Y-106797498D01*
X178710718Y-106721842D01*
X178745044Y-106650673D01*
X178756945Y-106625924D01*
X178787513Y-106562565D01*
X178820035Y-106495631D01*
X178851462Y-106431367D01*
X178878742Y-106376021D01*
X178890053Y-106353287D01*
X178911434Y-106309376D01*
X178928939Y-106271263D01*
X178940756Y-106243042D01*
X178945077Y-106228827D01*
X178950845Y-106215865D01*
X178955237Y-106214444D01*
X178965048Y-106206666D01*
X178965397Y-106203941D01*
X178969694Y-106192137D01*
X178981733Y-106164868D01*
X179000236Y-106124880D01*
X179023925Y-106074915D01*
X179051519Y-106017718D01*
X179066001Y-105988041D01*
X179097715Y-105923085D01*
X179128730Y-105859183D01*
X179157115Y-105800346D01*
X179180935Y-105750582D01*
X179198259Y-105713902D01*
X179201718Y-105706444D01*
X179215271Y-105677283D01*
X179231677Y-105642482D01*
X179251748Y-105600357D01*
X179276295Y-105549227D01*
X179306129Y-105487411D01*
X179342059Y-105413227D01*
X179384898Y-105324992D01*
X179435455Y-105221024D01*
X179463751Y-105162884D01*
X179496125Y-105096221D01*
X179530182Y-105025821D01*
X179563133Y-104957471D01*
X179592184Y-104896960D01*
X179610743Y-104858084D01*
X179638771Y-104799308D01*
X179671476Y-104730987D01*
X179704671Y-104661857D01*
X179732512Y-104604084D01*
X179758431Y-104550181D01*
X179783974Y-104496637D01*
X179806461Y-104449095D01*
X179823213Y-104413198D01*
X179825353Y-104408537D01*
X179836151Y-104384598D01*
X179845292Y-104367022D01*
X179856004Y-104353908D01*
X179871515Y-104343356D01*
X179895051Y-104333465D01*
X179929838Y-104322333D01*
X179979105Y-104308059D01*
X180011877Y-104298661D01*
X180137771Y-104260533D01*
X180278685Y-104214524D01*
X180431459Y-104161831D01*
X180592935Y-104103649D01*
X180759953Y-104041178D01*
X180929353Y-103975612D01*
X181097977Y-103908149D01*
X181262663Y-103839986D01*
X181420254Y-103772319D01*
X181528695Y-103724062D01*
X181571699Y-103704737D01*
X181607435Y-103688929D01*
X181632146Y-103678283D01*
X181642056Y-103674444D01*
X181652201Y-103670420D01*
X181676820Y-103659524D01*
X181711992Y-103643515D01*
X181745757Y-103627899D01*
X181788653Y-103607955D01*
X181844623Y-103581964D01*
X181908301Y-103552415D01*
X181974322Y-103521799D01*
X182023557Y-103498982D01*
X182067693Y-103478125D01*
X182127393Y-103449298D01*
X182200120Y-103413771D01*
X182283339Y-103372811D01*
X182374514Y-103327685D01*
X182471107Y-103279660D01*
X182570584Y-103230005D01*
X182670408Y-103179987D01*
X182768044Y-103130873D01*
X182860954Y-103083931D01*
X182946603Y-103040429D01*
X183022455Y-103001634D01*
X183085974Y-102968814D01*
X183120837Y-102950551D01*
X183192937Y-102912164D01*
X183278704Y-102865990D01*
X183374113Y-102814235D01*
X183475135Y-102759103D01*
X183577745Y-102702797D01*
X183677915Y-102647522D01*
X183771618Y-102595483D01*
X183854828Y-102548884D01*
X183862517Y-102544552D01*
X183920543Y-102511808D01*
X183966067Y-102486037D01*
X184004306Y-102464264D01*
X184040477Y-102443516D01*
X184079797Y-102420819D01*
X184092443Y-102413500D01*
X184188950Y-102357727D01*
X184269279Y-102311545D01*
X184334759Y-102274225D01*
X184386715Y-102245040D01*
X184426476Y-102223259D01*
X184455369Y-102208156D01*
X184474721Y-102199001D01*
X184485859Y-102195065D01*
X184489883Y-102195303D01*
X184490107Y-102207900D01*
X184480924Y-102228668D01*
X184480267Y-102229760D01*
X184466794Y-102252282D01*
X184447320Y-102285376D01*
X184425983Y-102322007D01*
X184425313Y-102323164D01*
X184399181Y-102367146D01*
X184368777Y-102416665D01*
X184343232Y-102457023D01*
X184322580Y-102490271D01*
X184307162Y-102517561D01*
X184299701Y-102534005D01*
X184299397Y-102535763D01*
X184293728Y-102546252D01*
X184291547Y-102546684D01*
X184282424Y-102554844D01*
X184268920Y-102575314D01*
X184263704Y-102584784D01*
X184250156Y-102609559D01*
X184240331Y-102625673D01*
X184238534Y-102627964D01*
X184229749Y-102639937D01*
X184221384Y-102653364D01*
X184211597Y-102669507D01*
X184193554Y-102698856D01*
X184169746Y-102737371D01*
X184142665Y-102781013D01*
X184140104Y-102785133D01*
X184113100Y-102829279D01*
X184089603Y-102869035D01*
X184072000Y-102900268D01*
X184062680Y-102918845D01*
X184062330Y-102919753D01*
X184052462Y-102937548D01*
X184044550Y-102942924D01*
X184035559Y-102950732D01*
X184035237Y-102953484D01*
X184029913Y-102966929D01*
X184016064Y-102991319D01*
X183999677Y-103016849D01*
X183980985Y-103046405D01*
X183968106Y-103070217D01*
X183964117Y-103081641D01*
X183957794Y-103095466D01*
X183955120Y-103097017D01*
X183946181Y-103106707D01*
X183929836Y-103129789D01*
X183908945Y-103162117D01*
X183898480Y-103179144D01*
X183876557Y-103213889D01*
X183857869Y-103240800D01*
X183845227Y-103255946D01*
X183842139Y-103257884D01*
X183830260Y-103262030D01*
X183803650Y-103273411D01*
X183765881Y-103290437D01*
X183720528Y-103311519D01*
X183705037Y-103318844D01*
X183658502Y-103340814D01*
X183618934Y-103359266D01*
X183589744Y-103372627D01*
X183574338Y-103379324D01*
X183572854Y-103379804D01*
X183562606Y-103383821D01*
X183538286Y-103394588D01*
X183504199Y-103410180D01*
X183484657Y-103419268D01*
X183427645Y-103445804D01*
X183354891Y-103479479D01*
X183269150Y-103519022D01*
X183173178Y-103563163D01*
X183090357Y-103601173D01*
X182974358Y-103654401D01*
X182870897Y-103701988D01*
X182777427Y-103745145D01*
X182691402Y-103785083D01*
X182610278Y-103823013D01*
X182531508Y-103860146D01*
X182452546Y-103897693D01*
X182370847Y-103936865D01*
X182283865Y-103978873D01*
X182189055Y-104024927D01*
X182083869Y-104076240D01*
X181965763Y-104134021D01*
X181832192Y-104199481D01*
X181820357Y-104205285D01*
X181745184Y-104242094D01*
X181669813Y-104278904D01*
X181597918Y-104313927D01*
X181533174Y-104345375D01*
X181479257Y-104371460D01*
X181439841Y-104390395D01*
X181439357Y-104390626D01*
X181398156Y-104410401D01*
X181342846Y-104437127D01*
X181277558Y-104468798D01*
X181206422Y-104503408D01*
X181133570Y-104538951D01*
X181088837Y-104560829D01*
X181007538Y-104600625D01*
X180916641Y-104645111D01*
X180822623Y-104691117D01*
X180731961Y-104735474D01*
X180651132Y-104775013D01*
X180629814Y-104785439D01*
X180556974Y-104821401D01*
X180500486Y-104850175D01*
X180458212Y-104873001D01*
X180428017Y-104891122D01*
X180407763Y-104905778D01*
X180395313Y-104918209D01*
X180391404Y-104923881D01*
X180377440Y-104944360D01*
X180366934Y-104954398D01*
X180365971Y-104954604D01*
X180357308Y-104962901D01*
X180352708Y-104973437D01*
X180342864Y-104991075D01*
X180323732Y-105016830D01*
X180306680Y-105036937D01*
X180282164Y-105066120D01*
X180261898Y-105093458D01*
X180253553Y-105107004D01*
X180236890Y-105133263D01*
X180217288Y-105157804D01*
X180199133Y-105179916D01*
X180175611Y-105211458D01*
X180156328Y-105239015D01*
X180135364Y-105269434D01*
X180117892Y-105293799D01*
X180108397Y-105305986D01*
X180100704Y-105314938D01*
X180089695Y-105328785D01*
X180073799Y-105349619D01*
X180051446Y-105379534D01*
X180021065Y-105420624D01*
X179981086Y-105474981D01*
X179956616Y-105508324D01*
X179921305Y-105556235D01*
X179887969Y-105601061D01*
X179859446Y-105639017D01*
X179838572Y-105666316D01*
X179831660Y-105675070D01*
X179810146Y-105702498D01*
X179791724Y-105727371D01*
X179788357Y-105732217D01*
X179759418Y-105774614D01*
X179740285Y-105801912D01*
X179729621Y-105816006D01*
X179727606Y-105818204D01*
X179718136Y-105829759D01*
X179697886Y-105856383D01*
X179667925Y-105896639D01*
X179629322Y-105949087D01*
X179583146Y-106012291D01*
X179576511Y-106021404D01*
X179549478Y-106058428D01*
X179526308Y-106089948D01*
X179509981Y-106111921D01*
X179504185Y-106119499D01*
X179493740Y-106133104D01*
X179473090Y-106160537D01*
X179444103Y-106199283D01*
X179408647Y-106246824D01*
X179368591Y-106300646D01*
X179325802Y-106358230D01*
X179282148Y-106417061D01*
X179239496Y-106474623D01*
X179199715Y-106528399D01*
X179164672Y-106575872D01*
X179136236Y-106614527D01*
X179116274Y-106641846D01*
X179109992Y-106650557D01*
X179094951Y-106671120D01*
X179073006Y-106700561D01*
X179048187Y-106733542D01*
X179024523Y-106764723D01*
X179006045Y-106788764D01*
X178998224Y-106798644D01*
X178988736Y-106811462D01*
X178971226Y-106836167D01*
X178949145Y-106867878D01*
X178944603Y-106874460D01*
X178920242Y-106908964D01*
X178897851Y-106939222D01*
X178881835Y-106959303D01*
X178880483Y-106960820D01*
X178863210Y-106982362D01*
X178842570Y-107011502D01*
X178835715Y-107021937D01*
X178817786Y-107048943D01*
X178802839Y-107069808D01*
X178798708Y-107074925D01*
X178791987Y-107082650D01*
X178784582Y-107091640D01*
X178774079Y-107104999D01*
X178758063Y-107125835D01*
X178734122Y-107157252D01*
X178707448Y-107192344D01*
X178647620Y-107271084D01*
X178527509Y-107271084D01*
X178467775Y-107270167D01*
X178426814Y-107267320D01*
X178403153Y-107262403D01*
X178396637Y-107258384D01*
X178363647Y-107218742D01*
X178343614Y-107192916D01*
X178335694Y-107179806D01*
X178335489Y-107178658D01*
X178329519Y-107167327D01*
X178317063Y-107151362D01*
X178296237Y-107125720D01*
X178281963Y-107106627D01*
X178271743Y-107092605D01*
X178251711Y-107065423D01*
X178223988Y-107027933D01*
X178190692Y-106982992D01*
X178153945Y-106933452D01*
X178115864Y-106882168D01*
X178078571Y-106831995D01*
X178044185Y-106785786D01*
X178014825Y-106746397D01*
X177992613Y-106716681D01*
X177979666Y-106699492D01*
X177977779Y-106697044D01*
X177967924Y-106683895D01*
X177950268Y-106659820D01*
X177931646Y-106634186D01*
X177907106Y-106600300D01*
X177887040Y-106572712D01*
X177868345Y-106547216D01*
X177847917Y-106519605D01*
X177822652Y-106485673D01*
X177789446Y-106441215D01*
X177774745Y-106421548D01*
X177742341Y-106378148D01*
X177712962Y-106338699D01*
X177689446Y-106307018D01*
X177674631Y-106286925D01*
X177672785Y-106284388D01*
X177648268Y-106250812D01*
X177616811Y-106208179D01*
X177580452Y-106159206D01*
X177541229Y-106106609D01*
X177501181Y-106053105D01*
X177462346Y-106001411D01*
X177426762Y-105954244D01*
X177396469Y-105914319D01*
X177373503Y-105884354D01*
X177359905Y-105867066D01*
X177357768Y-105864548D01*
X177344274Y-105847477D01*
X177339797Y-105838162D01*
X177333904Y-105826232D01*
X177322017Y-105810454D01*
X177294754Y-105777730D01*
X177275827Y-105753446D01*
X177260073Y-105730855D01*
X177254251Y-105721944D01*
X177238512Y-105698522D01*
X177226428Y-105682134D01*
X177225730Y-105681308D01*
X177216895Y-105669928D01*
X177198749Y-105645804D01*
X177173994Y-105612582D01*
X177145330Y-105573908D01*
X177115458Y-105533429D01*
X177087078Y-105494789D01*
X177062892Y-105461636D01*
X177057337Y-105453970D01*
X177039883Y-105430452D01*
X177017917Y-105401621D01*
X177012137Y-105394152D01*
X176995256Y-105371177D01*
X176985289Y-105355181D01*
X176984149Y-105351986D01*
X176977830Y-105341301D01*
X176962108Y-105322199D01*
X176955839Y-105315284D01*
X176930814Y-105285014D01*
X176907389Y-105251745D01*
X176905351Y-105248473D01*
X176884350Y-105217580D01*
X176861917Y-105189340D01*
X176858978Y-105186086D01*
X176836613Y-105158858D01*
X176814985Y-105128001D01*
X176813666Y-105125896D01*
X176794502Y-105097634D01*
X176775606Y-105073629D01*
X176773629Y-105071444D01*
X176756910Y-105051269D01*
X176735245Y-105022395D01*
X176723230Y-105005404D01*
X176700828Y-104974161D01*
X176679202Y-104945969D01*
X176670311Y-104935269D01*
X176655401Y-104915998D01*
X176648925Y-104903157D01*
X176648917Y-104902925D01*
X176640375Y-104895325D01*
X176617482Y-104881571D01*
X176584335Y-104864029D01*
X176565097Y-104854529D01*
X176530045Y-104837606D01*
X176480967Y-104813909D01*
X176422135Y-104785501D01*
X176357820Y-104754446D01*
X176292293Y-104722804D01*
X176279637Y-104716693D01*
X176220910Y-104688396D01*
X176168651Y-104663332D01*
X176125517Y-104642767D01*
X176094166Y-104627965D01*
X176077256Y-104620192D01*
X176075067Y-104619324D01*
X176065470Y-104615105D01*
X176040319Y-104603316D01*
X176002340Y-104585255D01*
X175954261Y-104562221D01*
X175898809Y-104535512D01*
X175880466Y-104526650D01*
X175814806Y-104494945D01*
X175747701Y-104462616D01*
X175684088Y-104432036D01*
X175628904Y-104405579D01*
X175587197Y-104385671D01*
X175533311Y-104360052D01*
X175470501Y-104330191D01*
X175408194Y-104300571D01*
X175373837Y-104284239D01*
X175319722Y-104258425D01*
X175255450Y-104227631D01*
X175189142Y-104195752D01*
X175129997Y-104167208D01*
X175017510Y-104112856D01*
X174905204Y-104058723D01*
X174797437Y-104006905D01*
X174698568Y-103959499D01*
X174612957Y-103918599D01*
X174601677Y-103913226D01*
X174546440Y-103886882D01*
X174481467Y-103855829D01*
X174415335Y-103824169D01*
X174362917Y-103799029D01*
X174306607Y-103772050D01*
X174247492Y-103743826D01*
X174192638Y-103717726D01*
X174149557Y-103697328D01*
X173940283Y-103597986D01*
X173730280Y-103496896D01*
X173676640Y-103470864D01*
X173617690Y-103442339D01*
X173559301Y-103414312D01*
X173506294Y-103389081D01*
X173463491Y-103368945D01*
X173442960Y-103359465D01*
X173363865Y-103322592D01*
X173297360Y-103289789D01*
X173245067Y-103261918D01*
X173208613Y-103239840D01*
X173190765Y-103225718D01*
X173173298Y-103203205D01*
X173154220Y-103173390D01*
X173149902Y-103165766D01*
X173130913Y-103132434D01*
X173106952Y-103092247D01*
X173080628Y-103049359D01*
X173054551Y-103007925D01*
X173031332Y-102972099D01*
X173013580Y-102946035D01*
X173004659Y-102934578D01*
X172993270Y-102918728D01*
X172991317Y-102912020D01*
X172986103Y-102900974D01*
X172971585Y-102875630D01*
X172949443Y-102838784D01*
X172921362Y-102793233D01*
X172889021Y-102741772D01*
X172886302Y-102737486D01*
X172838511Y-102661989D01*
X172798280Y-102597853D01*
X172762096Y-102539397D01*
X172726447Y-102480944D01*
X172687820Y-102416814D01*
X172683450Y-102409524D01*
X172671528Y-102391451D01*
X172665431Y-102384124D01*
X172657164Y-102372676D01*
X172643893Y-102350552D01*
X172640031Y-102343670D01*
X172624094Y-102317143D01*
X172609858Y-102297072D01*
X172607777Y-102294684D01*
X172596748Y-102276153D01*
X172595077Y-102267802D01*
X172587939Y-102250653D01*
X172579837Y-102241883D01*
X172569449Y-102226697D01*
X172564522Y-102207793D01*
X172566505Y-102193698D01*
X172571200Y-102191084D01*
X172582472Y-102195860D01*
G36*
X173067953Y-110645430D02*
G01*
X173070062Y-110610046D01*
X173075040Y-110582408D01*
X173084087Y-110556233D01*
X173098400Y-110525237D01*
X173100781Y-110520381D01*
X173149078Y-110444292D01*
X173211406Y-110382004D01*
X173285601Y-110335119D01*
X173369497Y-110305237D01*
X173399744Y-110299251D01*
X173485916Y-110294734D01*
X173566894Y-110307993D01*
X173641180Y-110336946D01*
X173707281Y-110379506D01*
X173763701Y-110433588D01*
X173808944Y-110497107D01*
X173841515Y-110567978D01*
X173859917Y-110644116D01*
X173862657Y-110723436D01*
X173848237Y-110803853D01*
X173816657Y-110880533D01*
X173781741Y-110931160D01*
X173733821Y-110981549D01*
X173679379Y-111025708D01*
X173625384Y-111057417D01*
X173574362Y-111074178D01*
X173512173Y-111084931D01*
X173447281Y-111088915D01*
X173388150Y-111085369D01*
X173364655Y-111080860D01*
X173286581Y-111051195D01*
X173214279Y-111004673D01*
X173151909Y-110944692D01*
X173103633Y-110874653D01*
X173097383Y-110862514D01*
X173083703Y-110832881D01*
X173074967Y-110807174D01*
X173070085Y-110779273D01*
X173067965Y-110743053D01*
X173067638Y-110707762D01*
X173152726Y-110707762D01*
X173165948Y-110782137D01*
X173197505Y-110851878D01*
X173232408Y-110898650D01*
X173293222Y-110952618D01*
X173360887Y-110988104D01*
X173433341Y-111004688D01*
X173508524Y-111001945D01*
X173584374Y-110979454D01*
X173597468Y-110973502D01*
X173656439Y-110935060D01*
X173707786Y-110881766D01*
X173746403Y-110818931D01*
X173746756Y-110818167D01*
X173759332Y-110784087D01*
X173765943Y-110746126D01*
X173767845Y-110696637D01*
X173767819Y-110689924D01*
X173761705Y-110618059D01*
X173742961Y-110558059D01*
X173709314Y-110504305D01*
X173679127Y-110470804D01*
X173629758Y-110428437D01*
X173579119Y-110401320D01*
X173520475Y-110386493D01*
X173477544Y-110382198D01*
X173434026Y-110380636D01*
X173401986Y-110383133D01*
X173372751Y-110391113D01*
X173340384Y-110404751D01*
X173276668Y-110440942D01*
X173228029Y-110486046D01*
X173189671Y-110544731D01*
X173183129Y-110557844D01*
X173158300Y-110631936D01*
X173152726Y-110707762D01*
X173067638Y-110707762D01*
X173067517Y-110694845D01*
X173067953Y-110645430D01*
G37*
X173067953Y-110645430D02*
X173070062Y-110610046D01*
X173075040Y-110582408D01*
X173084087Y-110556233D01*
X173098400Y-110525237D01*
X173100781Y-110520381D01*
X173149078Y-110444292D01*
X173211406Y-110382004D01*
X173285601Y-110335119D01*
X173369497Y-110305237D01*
X173399744Y-110299251D01*
X173485916Y-110294734D01*
X173566894Y-110307993D01*
X173641180Y-110336946D01*
X173707281Y-110379506D01*
X173763701Y-110433588D01*
X173808944Y-110497107D01*
X173841515Y-110567978D01*
X173859917Y-110644116D01*
X173862657Y-110723436D01*
X173848237Y-110803853D01*
X173816657Y-110880533D01*
X173781741Y-110931160D01*
X173733821Y-110981549D01*
X173679379Y-111025708D01*
X173625384Y-111057417D01*
X173574362Y-111074178D01*
X173512173Y-111084931D01*
X173447281Y-111088915D01*
X173388150Y-111085369D01*
X173364655Y-111080860D01*
X173286581Y-111051195D01*
X173214279Y-111004673D01*
X173151909Y-110944692D01*
X173103633Y-110874653D01*
X173097383Y-110862514D01*
X173083703Y-110832881D01*
X173074967Y-110807174D01*
X173070085Y-110779273D01*
X173067965Y-110743053D01*
X173067638Y-110707762D01*
X173152726Y-110707762D01*
X173165948Y-110782137D01*
X173197505Y-110851878D01*
X173232408Y-110898650D01*
X173293222Y-110952618D01*
X173360887Y-110988104D01*
X173433341Y-111004688D01*
X173508524Y-111001945D01*
X173584374Y-110979454D01*
X173597468Y-110973502D01*
X173656439Y-110935060D01*
X173707786Y-110881766D01*
X173746403Y-110818931D01*
X173746756Y-110818167D01*
X173759332Y-110784087D01*
X173765943Y-110746126D01*
X173767845Y-110696637D01*
X173767819Y-110689924D01*
X173761705Y-110618059D01*
X173742961Y-110558059D01*
X173709314Y-110504305D01*
X173679127Y-110470804D01*
X173629758Y-110428437D01*
X173579119Y-110401320D01*
X173520475Y-110386493D01*
X173477544Y-110382198D01*
X173434026Y-110380636D01*
X173401986Y-110383133D01*
X173372751Y-110391113D01*
X173340384Y-110404751D01*
X173276668Y-110440942D01*
X173228029Y-110486046D01*
X173189671Y-110544731D01*
X173183129Y-110557844D01*
X173158300Y-110631936D01*
X173152726Y-110707762D01*
X173067638Y-110707762D01*
X173067517Y-110694845D01*
X173067953Y-110645430D01*
D13*
%TO.C,D1*%
X171379200Y-102788000D02*
X170718800Y-102788000D01*
X170718800Y-102788000D02*
X170718800Y-103245200D01*
X170718800Y-102788000D02*
X170718800Y-102178400D01*
X169906000Y-102788000D02*
X169245600Y-102788000D01*
X169159635Y-105797900D02*
X171160365Y-105797900D01*
X170718800Y-102178400D02*
X169906000Y-102788000D01*
X171160365Y-103842100D02*
X169159635Y-103842100D01*
X170718800Y-103245200D02*
X169906000Y-102788000D01*
X169855200Y-102229200D02*
X169855200Y-103245200D01*
D14*
%TO.C,C2*%
X163820000Y-81910000D02*
X163820000Y-81610000D01*
X164720000Y-81910000D02*
X164720000Y-81610000D01*
%TO.C,C1*%
X164970000Y-85770000D02*
X164970000Y-86070000D01*
X164070000Y-85770000D02*
X164070000Y-86070000D01*
%TD*%
M02*
