%TF.GenerationSoftware,KiCad,Pcbnew,(6.0.11)*%
%TF.CreationDate,2023-03-01T16:43:23-07:00*%
%TF.ProjectId,Wirless-Module,5769726c-6573-4732-9d4d-6f64756c652e,rev?*%
%TF.SameCoordinates,Original*%
%TF.FileFunction,Copper,L2,Bot*%
%TF.FilePolarity,Positive*%
%FSLAX46Y46*%
G04 Gerber Fmt 4.6, Leading zero omitted, Abs format (unit mm)*
G04 Created by KiCad (PCBNEW (6.0.11)) date 2023-03-01 16:43:23*
%MOMM*%
%LPD*%
G01*
G04 APERTURE LIST*
%TA.AperFunction,ComponentPad*%
%ADD10C,1.008000*%
%TD*%
%TA.AperFunction,ComponentPad*%
%ADD11R,1.008000X1.008000*%
%TD*%
%TA.AperFunction,ViaPad*%
%ADD12C,0.800000*%
%TD*%
%TA.AperFunction,Conductor*%
%ADD13C,0.250000*%
%TD*%
G04 APERTURE END LIST*
D10*
%TO.P,U1,20,DIO0*%
%TO.N,unconnected-(U1-Pad20)*%
X188839000Y-82171500D03*
%TO.P,U1,19,DIO1*%
%TO.N,unconnected-(U1-Pad19)*%
X188839000Y-84171500D03*
%TO.P,U1,18,SCK*%
%TO.N,XBEE_SCK*%
X188839000Y-86171500D03*
%TO.P,U1,17,SPI_SS*%
%TO.N,XBEE_SS*%
X188839000Y-88171500D03*
%TO.P,U1,16,DIO6*%
%TO.N,unconnected-(U1-Pad16)*%
X188839000Y-90171500D03*
%TO.P,U1,15,DI05*%
%TO.N,unconnected-(U1-Pad15)*%
X188839000Y-92171500D03*
%TO.P,U1,14,VREF*%
%TO.N,unconnected-(U1-Pad14)*%
X188839000Y-94171500D03*
%TO.P,U1,13,~{SLEEP}*%
%TO.N,unconnected-(U1-Pad13)*%
X188839000Y-96171500D03*
%TO.P,U1,12,DI07*%
%TO.N,unconnected-(U1-Pad12)*%
X188839000Y-98171500D03*
%TO.P,U1,11,MOSI*%
%TO.N,XBEE_MOSI*%
X188839000Y-100171500D03*
%TO.P,U1,10,GND*%
%TO.N,Earth*%
X166839000Y-100171500D03*
%TO.P,U1,9,DI8*%
%TO.N,unconnected-(U1-Pad9)*%
X166839000Y-98171500D03*
%TO.P,U1,8,NC*%
%TO.N,unconnected-(U1-Pad8)*%
X166839000Y-96171500D03*
%TO.P,U1,7,PWM1*%
%TO.N,unconnected-(U1-Pad7)*%
X166839000Y-94171500D03*
%TO.P,U1,6,PWM0*%
%TO.N,unconnected-(U1-Pad6)*%
X166839000Y-92171500D03*
%TO.P,U1,5,~{RESET}*%
%TO.N,unconnected-(U1-Pad5)*%
X166839000Y-90171500D03*
%TO.P,U1,4,MISO*%
%TO.N,XBEE_MISO*%
X166839000Y-88171500D03*
%TO.P,U1,3,RX*%
%TO.N,XBEE_RX*%
X166839000Y-86171500D03*
%TO.P,U1,2,TX*%
%TO.N,XBEE_TX*%
X166839000Y-84171500D03*
D11*
%TO.P,U1,1,VCC*%
%TO.N,3.3V*%
X166839000Y-82171500D03*
%TD*%
D12*
%TO.N,Earth*%
X184650000Y-95030000D03*
X171360000Y-95350000D03*
%TO.N,XBEE_MOSI*%
X178110000Y-100180000D03*
%TO.N,XBEE_MISO*%
X177110000Y-88160000D03*
%TD*%
D13*
%TO.N,XBEE_MOSI*%
X188839000Y-100171500D02*
X178118500Y-100171500D01*
X178118500Y-100171500D02*
X178110000Y-100180000D01*
%TO.N,XBEE_MISO*%
X166839000Y-88171500D02*
X177098500Y-88171500D01*
X177098500Y-88171500D02*
X177110000Y-88160000D01*
%TD*%
%TA.AperFunction,Conductor*%
%TO.N,Earth*%
G36*
X192981621Y-70632502D02*
G01*
X193028114Y-70686158D01*
X193039500Y-70738500D01*
X193039500Y-120269500D01*
X193019498Y-120337621D01*
X192965842Y-120384114D01*
X192913500Y-120395500D01*
X162432500Y-120395500D01*
X162364379Y-120375498D01*
X162317886Y-120321842D01*
X162306500Y-120269500D01*
X162306500Y-116187985D01*
X163897354Y-116187985D01*
X163897656Y-116191820D01*
X163915608Y-116419917D01*
X163922870Y-116512195D01*
X163987706Y-116830878D01*
X164090898Y-117139284D01*
X164230905Y-117432816D01*
X164405641Y-117707097D01*
X164408084Y-117710060D01*
X164408085Y-117710062D01*
X164557808Y-117891690D01*
X164612501Y-117958038D01*
X164848402Y-118181899D01*
X165109826Y-118375343D01*
X165251351Y-118455414D01*
X165389519Y-118533586D01*
X165389523Y-118533588D01*
X165392876Y-118535485D01*
X165693332Y-118659938D01*
X165796788Y-118688629D01*
X166003000Y-118745817D01*
X166003008Y-118745819D01*
X166006716Y-118746847D01*
X166328356Y-118794916D01*
X166331654Y-118795060D01*
X166443418Y-118799940D01*
X166443422Y-118799940D01*
X166444794Y-118800000D01*
X166643098Y-118800000D01*
X166885105Y-118785198D01*
X166888888Y-118784497D01*
X166888895Y-118784496D01*
X167088959Y-118747416D01*
X167204872Y-118725933D01*
X167414182Y-118659938D01*
X167511360Y-118629298D01*
X167511363Y-118629297D01*
X167515032Y-118628140D01*
X167518529Y-118626546D01*
X167518535Y-118626544D01*
X167807454Y-118494876D01*
X167807458Y-118494874D01*
X167810962Y-118493277D01*
X168088251Y-118323354D01*
X168091255Y-118320964D01*
X168091260Y-118320961D01*
X168215507Y-118222130D01*
X168342764Y-118120905D01*
X168345458Y-118118164D01*
X168345462Y-118118160D01*
X168568013Y-117891690D01*
X168568017Y-117891685D01*
X168570708Y-117888947D01*
X168768685Y-117630939D01*
X168933742Y-117350727D01*
X169063420Y-117052488D01*
X169155785Y-116740669D01*
X169209461Y-116419917D01*
X169219587Y-116187985D01*
X186122354Y-116187985D01*
X186122656Y-116191820D01*
X186140608Y-116419917D01*
X186147870Y-116512195D01*
X186212706Y-116830878D01*
X186315898Y-117139284D01*
X186455905Y-117432816D01*
X186630641Y-117707097D01*
X186633084Y-117710060D01*
X186633085Y-117710062D01*
X186782808Y-117891690D01*
X186837501Y-117958038D01*
X187073402Y-118181899D01*
X187334826Y-118375343D01*
X187476351Y-118455414D01*
X187614519Y-118533586D01*
X187614523Y-118533588D01*
X187617876Y-118535485D01*
X187918332Y-118659938D01*
X188021788Y-118688629D01*
X188228000Y-118745817D01*
X188228008Y-118745819D01*
X188231716Y-118746847D01*
X188553356Y-118794916D01*
X188556654Y-118795060D01*
X188668418Y-118799940D01*
X188668422Y-118799940D01*
X188669794Y-118800000D01*
X188868098Y-118800000D01*
X189110105Y-118785198D01*
X189113888Y-118784497D01*
X189113895Y-118784496D01*
X189313959Y-118747416D01*
X189429872Y-118725933D01*
X189639182Y-118659938D01*
X189736360Y-118629298D01*
X189736363Y-118629297D01*
X189740032Y-118628140D01*
X189743529Y-118626546D01*
X189743535Y-118626544D01*
X190032454Y-118494876D01*
X190032458Y-118494874D01*
X190035962Y-118493277D01*
X190313251Y-118323354D01*
X190316255Y-118320964D01*
X190316260Y-118320961D01*
X190440507Y-118222130D01*
X190567764Y-118120905D01*
X190570458Y-118118164D01*
X190570462Y-118118160D01*
X190793013Y-117891690D01*
X190793017Y-117891685D01*
X190795708Y-117888947D01*
X190993685Y-117630939D01*
X191158742Y-117350727D01*
X191288420Y-117052488D01*
X191380785Y-116740669D01*
X191434461Y-116419917D01*
X191448646Y-116095015D01*
X191435888Y-115932910D01*
X191423432Y-115774640D01*
X191423432Y-115774637D01*
X191423130Y-115770805D01*
X191358294Y-115452122D01*
X191255102Y-115143716D01*
X191115095Y-114850184D01*
X190940359Y-114575903D01*
X190792970Y-114397106D01*
X190735942Y-114327925D01*
X190735938Y-114327920D01*
X190733499Y-114324962D01*
X190497598Y-114101101D01*
X190236174Y-113907657D01*
X190031281Y-113791734D01*
X189956481Y-113749414D01*
X189956477Y-113749412D01*
X189953124Y-113747515D01*
X189652668Y-113623062D01*
X189549212Y-113594371D01*
X189343000Y-113537183D01*
X189342992Y-113537181D01*
X189339284Y-113536153D01*
X189017644Y-113488084D01*
X189014346Y-113487940D01*
X188902582Y-113483060D01*
X188902578Y-113483060D01*
X188901206Y-113483000D01*
X188702902Y-113483000D01*
X188460895Y-113497802D01*
X188457112Y-113498503D01*
X188457105Y-113498504D01*
X188301012Y-113527434D01*
X188141128Y-113557067D01*
X187956558Y-113615262D01*
X187834640Y-113653702D01*
X187834637Y-113653703D01*
X187830968Y-113654860D01*
X187827471Y-113656454D01*
X187827465Y-113656456D01*
X187538546Y-113788124D01*
X187538542Y-113788126D01*
X187535038Y-113789723D01*
X187257749Y-113959646D01*
X187254745Y-113962036D01*
X187254740Y-113962039D01*
X187130493Y-114060870D01*
X187003236Y-114162095D01*
X187000542Y-114164836D01*
X187000538Y-114164840D01*
X186777987Y-114391310D01*
X186777983Y-114391315D01*
X186775292Y-114394053D01*
X186577315Y-114652061D01*
X186412258Y-114932273D01*
X186282580Y-115230512D01*
X186190215Y-115542331D01*
X186136539Y-115863083D01*
X186122354Y-116187985D01*
X169219587Y-116187985D01*
X169223646Y-116095015D01*
X169210888Y-115932910D01*
X169198432Y-115774640D01*
X169198432Y-115774637D01*
X169198130Y-115770805D01*
X169133294Y-115452122D01*
X169030102Y-115143716D01*
X168890095Y-114850184D01*
X168715359Y-114575903D01*
X168567970Y-114397106D01*
X168510942Y-114327925D01*
X168510938Y-114327920D01*
X168508499Y-114324962D01*
X168272598Y-114101101D01*
X168011174Y-113907657D01*
X167806281Y-113791734D01*
X167731481Y-113749414D01*
X167731477Y-113749412D01*
X167728124Y-113747515D01*
X167427668Y-113623062D01*
X167324212Y-113594371D01*
X167118000Y-113537183D01*
X167117992Y-113537181D01*
X167114284Y-113536153D01*
X166792644Y-113488084D01*
X166789346Y-113487940D01*
X166677582Y-113483060D01*
X166677578Y-113483060D01*
X166676206Y-113483000D01*
X166477902Y-113483000D01*
X166235895Y-113497802D01*
X166232112Y-113498503D01*
X166232105Y-113498504D01*
X166076012Y-113527434D01*
X165916128Y-113557067D01*
X165731558Y-113615262D01*
X165609640Y-113653702D01*
X165609637Y-113653703D01*
X165605968Y-113654860D01*
X165602471Y-113656454D01*
X165602465Y-113656456D01*
X165313546Y-113788124D01*
X165313542Y-113788126D01*
X165310038Y-113789723D01*
X165032749Y-113959646D01*
X165029745Y-113962036D01*
X165029740Y-113962039D01*
X164905493Y-114060870D01*
X164778236Y-114162095D01*
X164775542Y-114164836D01*
X164775538Y-114164840D01*
X164552987Y-114391310D01*
X164552983Y-114391315D01*
X164550292Y-114394053D01*
X164352315Y-114652061D01*
X164187258Y-114932273D01*
X164057580Y-115230512D01*
X163965215Y-115542331D01*
X163911539Y-115863083D01*
X163897354Y-116187985D01*
X162306500Y-116187985D01*
X162306500Y-101043572D01*
X166331758Y-101043572D01*
X166336668Y-101050130D01*
X166426509Y-101100342D01*
X166437746Y-101105251D01*
X166614777Y-101162771D01*
X166626751Y-101165404D01*
X166811592Y-101187445D01*
X166823841Y-101187702D01*
X167009440Y-101173421D01*
X167021520Y-101171290D01*
X167200791Y-101121236D01*
X167212242Y-101116795D01*
X167337484Y-101053532D01*
X167347770Y-101043885D01*
X167345532Y-101037242D01*
X166851812Y-100543522D01*
X166837868Y-100535908D01*
X166836035Y-100536039D01*
X166829420Y-100540290D01*
X166338518Y-101031192D01*
X166331758Y-101043572D01*
X162306500Y-101043572D01*
X162306500Y-100163446D01*
X165822718Y-100163446D01*
X165838293Y-100348928D01*
X165840508Y-100360993D01*
X165891814Y-100539919D01*
X165896332Y-100551331D01*
X165957175Y-100669718D01*
X165966896Y-100679939D01*
X165973695Y-100677595D01*
X166466978Y-100184312D01*
X166473356Y-100172632D01*
X167203408Y-100172632D01*
X167203539Y-100174465D01*
X167207790Y-100181080D01*
X167698596Y-100671886D01*
X167710976Y-100678646D01*
X167717709Y-100673605D01*
X167764938Y-100590468D01*
X167769927Y-100579261D01*
X167828680Y-100402641D01*
X167831399Y-100390673D01*
X167855059Y-100203394D01*
X167855550Y-100196370D01*
X167855778Y-100180000D01*
X177196496Y-100180000D01*
X177216458Y-100369928D01*
X177275473Y-100551556D01*
X177278776Y-100557278D01*
X177278777Y-100557279D01*
X177291583Y-100579460D01*
X177370960Y-100716944D01*
X177375378Y-100721851D01*
X177375379Y-100721852D01*
X177494325Y-100853955D01*
X177498747Y-100858866D01*
X177653248Y-100971118D01*
X177659276Y-100973802D01*
X177659278Y-100973803D01*
X177815983Y-101043572D01*
X177827712Y-101048794D01*
X177921113Y-101068647D01*
X178008056Y-101087128D01*
X178008061Y-101087128D01*
X178014513Y-101088500D01*
X178205487Y-101088500D01*
X178211939Y-101087128D01*
X178211944Y-101087128D01*
X178298887Y-101068647D01*
X178392288Y-101048794D01*
X178404017Y-101043572D01*
X178560722Y-100973803D01*
X178560724Y-100973802D01*
X178566752Y-100971118D01*
X178721253Y-100858866D01*
X178732216Y-100846690D01*
X178792660Y-100809450D01*
X178825852Y-100805000D01*
X187988180Y-100805000D01*
X188056301Y-100825002D01*
X188086926Y-100852736D01*
X188107144Y-100878245D01*
X188111837Y-100882239D01*
X188111838Y-100882240D01*
X188216271Y-100971118D01*
X188258357Y-101006936D01*
X188323909Y-101043572D01*
X188426307Y-101100802D01*
X188426313Y-101100805D01*
X188431685Y-101103807D01*
X188620528Y-101165165D01*
X188817693Y-101188676D01*
X188823828Y-101188204D01*
X188823830Y-101188204D01*
X189009528Y-101173915D01*
X189009533Y-101173914D01*
X189015669Y-101173442D01*
X189021599Y-101171786D01*
X189021601Y-101171786D01*
X189078340Y-101155944D01*
X189206916Y-101120045D01*
X189235293Y-101105711D01*
X189378649Y-101033297D01*
X189378651Y-101033296D01*
X189384150Y-101030518D01*
X189540618Y-100908272D01*
X189570706Y-100873415D01*
X189666333Y-100762630D01*
X189666334Y-100762628D01*
X189670362Y-100757962D01*
X189768440Y-100585313D01*
X189831116Y-100396903D01*
X189856002Y-100199907D01*
X189856399Y-100171500D01*
X189837023Y-99973886D01*
X189779632Y-99783799D01*
X189721086Y-99673690D01*
X189689307Y-99613922D01*
X189689305Y-99613919D01*
X189686413Y-99608480D01*
X189612618Y-99517998D01*
X189564811Y-99459380D01*
X189564809Y-99459378D01*
X189560917Y-99454606D01*
X189481470Y-99388882D01*
X189412672Y-99331967D01*
X189412669Y-99331965D01*
X189407922Y-99328038D01*
X189323968Y-99282644D01*
X189273559Y-99232649D01*
X189258182Y-99163338D01*
X189282718Y-99096716D01*
X189327086Y-99059343D01*
X189360922Y-99042251D01*
X189378649Y-99033297D01*
X189378652Y-99033295D01*
X189384150Y-99030518D01*
X189540618Y-98908272D01*
X189670362Y-98757962D01*
X189687690Y-98727460D01*
X189765393Y-98590676D01*
X189768440Y-98585313D01*
X189831116Y-98396903D01*
X189856002Y-98199907D01*
X189856399Y-98171500D01*
X189837023Y-97973886D01*
X189779632Y-97783799D01*
X189686413Y-97608480D01*
X189560917Y-97454606D01*
X189495080Y-97400141D01*
X189412672Y-97331967D01*
X189412669Y-97331965D01*
X189407922Y-97328038D01*
X189323968Y-97282644D01*
X189273559Y-97232649D01*
X189258182Y-97163338D01*
X189282718Y-97096716D01*
X189327086Y-97059343D01*
X189360922Y-97042251D01*
X189378649Y-97033297D01*
X189378651Y-97033296D01*
X189384150Y-97030518D01*
X189540618Y-96908272D01*
X189670362Y-96757962D01*
X189687690Y-96727460D01*
X189765393Y-96590676D01*
X189768440Y-96585313D01*
X189831116Y-96396903D01*
X189856002Y-96199907D01*
X189856399Y-96171500D01*
X189837023Y-95973886D01*
X189779632Y-95783799D01*
X189686413Y-95608480D01*
X189560917Y-95454606D01*
X189495080Y-95400141D01*
X189412672Y-95331967D01*
X189412669Y-95331965D01*
X189407922Y-95328038D01*
X189323968Y-95282644D01*
X189273559Y-95232649D01*
X189258182Y-95163338D01*
X189282718Y-95096716D01*
X189327086Y-95059343D01*
X189360922Y-95042251D01*
X189378649Y-95033297D01*
X189378651Y-95033296D01*
X189384150Y-95030518D01*
X189540618Y-94908272D01*
X189670362Y-94757962D01*
X189687690Y-94727460D01*
X189765393Y-94590676D01*
X189768440Y-94585313D01*
X189831116Y-94396903D01*
X189856002Y-94199907D01*
X189856399Y-94171500D01*
X189837023Y-93973886D01*
X189779632Y-93783799D01*
X189686413Y-93608480D01*
X189560917Y-93454606D01*
X189495080Y-93400141D01*
X189412672Y-93331967D01*
X189412669Y-93331965D01*
X189407922Y-93328038D01*
X189323968Y-93282644D01*
X189273559Y-93232649D01*
X189258182Y-93163338D01*
X189282718Y-93096716D01*
X189327086Y-93059343D01*
X189360922Y-93042251D01*
X189378649Y-93033297D01*
X189378651Y-93033296D01*
X189384150Y-93030518D01*
X189540618Y-92908272D01*
X189670362Y-92757962D01*
X189687690Y-92727460D01*
X189765393Y-92590676D01*
X189768440Y-92585313D01*
X189831116Y-92396903D01*
X189856002Y-92199907D01*
X189856399Y-92171500D01*
X189837023Y-91973886D01*
X189779632Y-91783799D01*
X189686413Y-91608480D01*
X189560917Y-91454606D01*
X189495080Y-91400141D01*
X189412672Y-91331967D01*
X189412669Y-91331965D01*
X189407922Y-91328038D01*
X189323968Y-91282644D01*
X189273559Y-91232649D01*
X189258182Y-91163338D01*
X189282718Y-91096716D01*
X189327086Y-91059343D01*
X189360922Y-91042251D01*
X189378649Y-91033297D01*
X189378651Y-91033296D01*
X189384150Y-91030518D01*
X189540618Y-90908272D01*
X189670362Y-90757962D01*
X189687690Y-90727460D01*
X189765393Y-90590676D01*
X189768440Y-90585313D01*
X189831116Y-90396903D01*
X189856002Y-90199907D01*
X189856399Y-90171500D01*
X189837023Y-89973886D01*
X189779632Y-89783799D01*
X189686413Y-89608480D01*
X189560917Y-89454606D01*
X189495080Y-89400141D01*
X189412672Y-89331967D01*
X189412669Y-89331965D01*
X189407922Y-89328038D01*
X189323968Y-89282644D01*
X189273559Y-89232649D01*
X189258182Y-89163338D01*
X189282718Y-89096716D01*
X189327086Y-89059343D01*
X189360922Y-89042251D01*
X189378649Y-89033297D01*
X189378651Y-89033296D01*
X189384150Y-89030518D01*
X189540618Y-88908272D01*
X189597176Y-88842749D01*
X189666333Y-88762630D01*
X189666334Y-88762628D01*
X189670362Y-88757962D01*
X189687690Y-88727460D01*
X189765393Y-88590676D01*
X189768440Y-88585313D01*
X189831116Y-88396903D01*
X189856002Y-88199907D01*
X189856399Y-88171500D01*
X189837023Y-87973886D01*
X189779632Y-87783799D01*
X189697204Y-87628774D01*
X189689307Y-87613922D01*
X189689305Y-87613919D01*
X189686413Y-87608480D01*
X189560917Y-87454606D01*
X189495080Y-87400141D01*
X189412672Y-87331967D01*
X189412669Y-87331965D01*
X189407922Y-87328038D01*
X189323968Y-87282644D01*
X189273559Y-87232649D01*
X189258182Y-87163338D01*
X189282718Y-87096716D01*
X189327086Y-87059343D01*
X189360922Y-87042251D01*
X189378649Y-87033297D01*
X189378651Y-87033296D01*
X189384150Y-87030518D01*
X189540618Y-86908272D01*
X189670362Y-86757962D01*
X189687690Y-86727460D01*
X189765393Y-86590676D01*
X189768440Y-86585313D01*
X189831116Y-86396903D01*
X189856002Y-86199907D01*
X189856399Y-86171500D01*
X189837023Y-85973886D01*
X189779632Y-85783799D01*
X189686413Y-85608480D01*
X189560917Y-85454606D01*
X189495080Y-85400141D01*
X189412672Y-85331967D01*
X189412669Y-85331965D01*
X189407922Y-85328038D01*
X189323968Y-85282644D01*
X189273559Y-85232649D01*
X189258182Y-85163338D01*
X189282718Y-85096716D01*
X189327086Y-85059343D01*
X189360922Y-85042251D01*
X189378649Y-85033297D01*
X189378651Y-85033296D01*
X189384150Y-85030518D01*
X189540618Y-84908272D01*
X189670362Y-84757962D01*
X189687690Y-84727460D01*
X189765393Y-84590676D01*
X189768440Y-84585313D01*
X189831116Y-84396903D01*
X189856002Y-84199907D01*
X189856399Y-84171500D01*
X189837023Y-83973886D01*
X189779632Y-83783799D01*
X189686413Y-83608480D01*
X189560917Y-83454606D01*
X189464291Y-83374670D01*
X189412672Y-83331967D01*
X189412669Y-83331965D01*
X189407922Y-83328038D01*
X189323968Y-83282644D01*
X189273559Y-83232649D01*
X189258182Y-83163338D01*
X189282718Y-83096716D01*
X189327086Y-83059343D01*
X189367832Y-83038761D01*
X189378649Y-83033297D01*
X189378651Y-83033296D01*
X189384150Y-83030518D01*
X189540618Y-82908272D01*
X189570706Y-82873415D01*
X189666333Y-82762630D01*
X189666334Y-82762628D01*
X189670362Y-82757962D01*
X189687690Y-82727460D01*
X189765393Y-82590676D01*
X189768440Y-82585313D01*
X189831116Y-82396903D01*
X189856002Y-82199907D01*
X189856399Y-82171500D01*
X189837023Y-81973886D01*
X189779632Y-81783799D01*
X189694018Y-81622783D01*
X189689307Y-81613922D01*
X189689305Y-81613919D01*
X189686413Y-81608480D01*
X189560917Y-81454606D01*
X189495080Y-81400141D01*
X189412672Y-81331967D01*
X189412669Y-81331965D01*
X189407922Y-81328038D01*
X189233258Y-81233597D01*
X189043576Y-81174881D01*
X189037451Y-81174237D01*
X189037450Y-81174237D01*
X188852232Y-81154770D01*
X188852230Y-81154770D01*
X188846103Y-81154126D01*
X188762970Y-81161692D01*
X188654497Y-81171563D01*
X188654494Y-81171564D01*
X188648358Y-81172122D01*
X188642452Y-81173860D01*
X188642448Y-81173861D01*
X188506976Y-81213733D01*
X188457876Y-81228184D01*
X188281910Y-81320177D01*
X188127163Y-81444596D01*
X188123205Y-81449313D01*
X188123203Y-81449315D01*
X188039986Y-81548489D01*
X187999530Y-81596703D01*
X187903873Y-81770704D01*
X187843834Y-81959971D01*
X187821700Y-82157295D01*
X187838315Y-82355160D01*
X187893046Y-82546030D01*
X187983808Y-82722633D01*
X187987634Y-82727460D01*
X188103315Y-82873415D01*
X188103319Y-82873420D01*
X188107144Y-82878245D01*
X188258357Y-83006936D01*
X188355913Y-83061459D01*
X188405617Y-83112152D01*
X188420025Y-83181671D01*
X188394561Y-83247944D01*
X188352817Y-83283107D01*
X188287374Y-83317320D01*
X188287370Y-83317322D01*
X188281910Y-83320177D01*
X188127163Y-83444596D01*
X188123205Y-83449313D01*
X188123203Y-83449315D01*
X188039986Y-83548489D01*
X187999530Y-83596703D01*
X187903873Y-83770704D01*
X187843834Y-83959971D01*
X187821700Y-84157295D01*
X187838315Y-84355160D01*
X187893046Y-84546030D01*
X187983808Y-84722633D01*
X187987634Y-84727460D01*
X188103315Y-84873415D01*
X188103319Y-84873420D01*
X188107144Y-84878245D01*
X188258357Y-85006936D01*
X188355913Y-85061459D01*
X188405617Y-85112152D01*
X188420025Y-85181671D01*
X188394561Y-85247944D01*
X188352817Y-85283107D01*
X188287374Y-85317320D01*
X188287370Y-85317322D01*
X188281910Y-85320177D01*
X188127163Y-85444596D01*
X188123205Y-85449313D01*
X188123203Y-85449315D01*
X188039986Y-85548489D01*
X187999530Y-85596703D01*
X187903873Y-85770704D01*
X187843834Y-85959971D01*
X187821700Y-86157295D01*
X187838315Y-86355160D01*
X187893046Y-86546030D01*
X187983808Y-86722633D01*
X187987634Y-86727460D01*
X188103315Y-86873415D01*
X188103319Y-86873420D01*
X188107144Y-86878245D01*
X188258357Y-87006936D01*
X188355913Y-87061459D01*
X188405617Y-87112152D01*
X188420025Y-87181671D01*
X188394561Y-87247944D01*
X188352817Y-87283107D01*
X188287374Y-87317320D01*
X188287370Y-87317322D01*
X188281910Y-87320177D01*
X188127163Y-87444596D01*
X188123205Y-87449313D01*
X188123203Y-87449315D01*
X188048788Y-87538000D01*
X187999530Y-87596703D01*
X187903873Y-87770704D01*
X187902012Y-87776571D01*
X187902011Y-87776573D01*
X187897847Y-87789699D01*
X187843834Y-87959971D01*
X187821700Y-88157295D01*
X187822216Y-88163439D01*
X187837325Y-88343365D01*
X187838315Y-88355160D01*
X187840014Y-88361084D01*
X187890537Y-88537279D01*
X187893046Y-88546030D01*
X187895865Y-88551515D01*
X187970606Y-88696944D01*
X187983808Y-88722633D01*
X187987634Y-88727460D01*
X188103315Y-88873415D01*
X188103319Y-88873420D01*
X188107144Y-88878245D01*
X188258357Y-89006936D01*
X188355913Y-89061459D01*
X188405617Y-89112152D01*
X188420025Y-89181671D01*
X188394561Y-89247944D01*
X188352817Y-89283107D01*
X188287374Y-89317320D01*
X188287370Y-89317322D01*
X188281910Y-89320177D01*
X188127163Y-89444596D01*
X188123205Y-89449313D01*
X188123203Y-89449315D01*
X188039986Y-89548489D01*
X187999530Y-89596703D01*
X187903873Y-89770704D01*
X187843834Y-89959971D01*
X187821700Y-90157295D01*
X187838315Y-90355160D01*
X187893046Y-90546030D01*
X187983808Y-90722633D01*
X187987634Y-90727460D01*
X188103315Y-90873415D01*
X188103319Y-90873420D01*
X188107144Y-90878245D01*
X188258357Y-91006936D01*
X188355913Y-91061459D01*
X188405617Y-91112152D01*
X188420025Y-91181671D01*
X188394561Y-91247944D01*
X188352817Y-91283107D01*
X188287374Y-91317320D01*
X188287370Y-91317322D01*
X188281910Y-91320177D01*
X188127163Y-91444596D01*
X188123205Y-91449313D01*
X188123203Y-91449315D01*
X188039986Y-91548489D01*
X187999530Y-91596703D01*
X187903873Y-91770704D01*
X187843834Y-91959971D01*
X187821700Y-92157295D01*
X187838315Y-92355160D01*
X187893046Y-92546030D01*
X187983808Y-92722633D01*
X187987634Y-92727460D01*
X188103315Y-92873415D01*
X188103319Y-92873420D01*
X188107144Y-92878245D01*
X188258357Y-93006936D01*
X188355913Y-93061459D01*
X188405617Y-93112152D01*
X188420025Y-93181671D01*
X188394561Y-93247944D01*
X188352817Y-93283107D01*
X188287374Y-93317320D01*
X188287370Y-93317322D01*
X188281910Y-93320177D01*
X188127163Y-93444596D01*
X188123205Y-93449313D01*
X188123203Y-93449315D01*
X188039986Y-93548489D01*
X187999530Y-93596703D01*
X187903873Y-93770704D01*
X187843834Y-93959971D01*
X187821700Y-94157295D01*
X187838315Y-94355160D01*
X187893046Y-94546030D01*
X187983808Y-94722633D01*
X187987634Y-94727460D01*
X188103315Y-94873415D01*
X188103319Y-94873420D01*
X188107144Y-94878245D01*
X188258357Y-95006936D01*
X188355913Y-95061459D01*
X188405617Y-95112152D01*
X188420025Y-95181671D01*
X188394561Y-95247944D01*
X188352817Y-95283107D01*
X188287374Y-95317320D01*
X188287370Y-95317322D01*
X188281910Y-95320177D01*
X188127163Y-95444596D01*
X188123205Y-95449313D01*
X188123203Y-95449315D01*
X188039986Y-95548489D01*
X187999530Y-95596703D01*
X187903873Y-95770704D01*
X187843834Y-95959971D01*
X187821700Y-96157295D01*
X187838315Y-96355160D01*
X187893046Y-96546030D01*
X187983808Y-96722633D01*
X187987634Y-96727460D01*
X188103315Y-96873415D01*
X188103319Y-96873420D01*
X188107144Y-96878245D01*
X188258357Y-97006936D01*
X188355913Y-97061459D01*
X188405617Y-97112152D01*
X188420025Y-97181671D01*
X188394561Y-97247944D01*
X188352817Y-97283107D01*
X188287374Y-97317320D01*
X188287370Y-97317322D01*
X188281910Y-97320177D01*
X188127163Y-97444596D01*
X188123205Y-97449313D01*
X188123203Y-97449315D01*
X188039986Y-97548489D01*
X187999530Y-97596703D01*
X187903873Y-97770704D01*
X187843834Y-97959971D01*
X187821700Y-98157295D01*
X187838315Y-98355160D01*
X187893046Y-98546030D01*
X187983808Y-98722633D01*
X187987634Y-98727460D01*
X188103315Y-98873415D01*
X188103319Y-98873420D01*
X188107144Y-98878245D01*
X188258357Y-99006936D01*
X188355913Y-99061459D01*
X188405617Y-99112152D01*
X188420025Y-99181671D01*
X188394561Y-99247944D01*
X188352817Y-99283107D01*
X188287374Y-99317320D01*
X188287370Y-99317322D01*
X188281910Y-99320177D01*
X188127163Y-99444596D01*
X188118764Y-99454606D01*
X188086555Y-99492991D01*
X188027445Y-99532318D01*
X187990033Y-99538000D01*
X178809532Y-99538000D01*
X178741411Y-99517998D01*
X178725495Y-99505845D01*
X178721253Y-99501134D01*
X178710046Y-99492991D01*
X178572094Y-99392763D01*
X178572093Y-99392762D01*
X178566752Y-99388882D01*
X178560724Y-99386198D01*
X178560722Y-99386197D01*
X178398319Y-99313891D01*
X178398318Y-99313891D01*
X178392288Y-99311206D01*
X178298888Y-99291353D01*
X178211944Y-99272872D01*
X178211939Y-99272872D01*
X178205487Y-99271500D01*
X178014513Y-99271500D01*
X178008061Y-99272872D01*
X178008056Y-99272872D01*
X177921112Y-99291353D01*
X177827712Y-99311206D01*
X177821682Y-99313891D01*
X177821681Y-99313891D01*
X177659278Y-99386197D01*
X177659276Y-99386198D01*
X177653248Y-99388882D01*
X177498747Y-99501134D01*
X177494326Y-99506044D01*
X177494325Y-99506045D01*
X177483563Y-99517998D01*
X177370960Y-99643056D01*
X177312686Y-99743990D01*
X177278784Y-99802710D01*
X177275473Y-99808444D01*
X177216458Y-99990072D01*
X177196496Y-100180000D01*
X167855778Y-100180000D01*
X167855848Y-100175005D01*
X167855555Y-100168013D01*
X167837131Y-99980118D01*
X167834748Y-99968080D01*
X167780949Y-99789891D01*
X167776275Y-99778550D01*
X167720520Y-99673690D01*
X167710660Y-99663609D01*
X167703533Y-99666177D01*
X167211022Y-100158688D01*
X167203408Y-100172632D01*
X166473356Y-100172632D01*
X166474592Y-100170368D01*
X166474461Y-100168535D01*
X166470210Y-100161920D01*
X165979175Y-99670885D01*
X165966795Y-99664125D01*
X165960407Y-99668907D01*
X165907302Y-99765503D01*
X165902471Y-99776775D01*
X165846188Y-99954202D01*
X165843638Y-99966196D01*
X165822889Y-100151177D01*
X165822718Y-100163446D01*
X162306500Y-100163446D01*
X162306500Y-98157295D01*
X165821700Y-98157295D01*
X165838315Y-98355160D01*
X165893046Y-98546030D01*
X165983808Y-98722633D01*
X165987634Y-98727460D01*
X166103315Y-98873415D01*
X166103319Y-98873420D01*
X166107144Y-98878245D01*
X166258357Y-99006936D01*
X166263733Y-99009940D01*
X166263735Y-99009942D01*
X166356433Y-99061750D01*
X166406139Y-99112444D01*
X166420546Y-99181964D01*
X166395082Y-99248237D01*
X166353336Y-99283400D01*
X166341003Y-99289847D01*
X166330854Y-99299636D01*
X166333307Y-99306597D01*
X166826188Y-99799478D01*
X166840132Y-99807092D01*
X166841965Y-99806961D01*
X166848580Y-99802710D01*
X167339786Y-99311504D01*
X167346546Y-99299124D01*
X167341887Y-99292901D01*
X167323426Y-99282919D01*
X167273017Y-99232925D01*
X167257639Y-99163614D01*
X167282175Y-99096991D01*
X167326542Y-99059618D01*
X167384150Y-99030518D01*
X167540618Y-98908272D01*
X167670362Y-98757962D01*
X167687690Y-98727460D01*
X167765393Y-98590676D01*
X167768440Y-98585313D01*
X167831116Y-98396903D01*
X167856002Y-98199907D01*
X167856399Y-98171500D01*
X167837023Y-97973886D01*
X167779632Y-97783799D01*
X167686413Y-97608480D01*
X167560917Y-97454606D01*
X167495080Y-97400141D01*
X167412672Y-97331967D01*
X167412669Y-97331965D01*
X167407922Y-97328038D01*
X167323968Y-97282644D01*
X167273559Y-97232649D01*
X167258182Y-97163338D01*
X167282718Y-97096716D01*
X167327086Y-97059343D01*
X167360922Y-97042251D01*
X167378649Y-97033297D01*
X167378651Y-97033296D01*
X167384150Y-97030518D01*
X167540618Y-96908272D01*
X167670362Y-96757962D01*
X167687690Y-96727460D01*
X167765393Y-96590676D01*
X167768440Y-96585313D01*
X167831116Y-96396903D01*
X167856002Y-96199907D01*
X167856399Y-96171500D01*
X167837023Y-95973886D01*
X167779632Y-95783799D01*
X167686413Y-95608480D01*
X167560917Y-95454606D01*
X167495080Y-95400141D01*
X167412672Y-95331967D01*
X167412669Y-95331965D01*
X167407922Y-95328038D01*
X167323968Y-95282644D01*
X167273559Y-95232649D01*
X167258182Y-95163338D01*
X167282718Y-95096716D01*
X167327086Y-95059343D01*
X167360922Y-95042251D01*
X167378649Y-95033297D01*
X167378651Y-95033296D01*
X167384150Y-95030518D01*
X167540618Y-94908272D01*
X167670362Y-94757962D01*
X167687690Y-94727460D01*
X167765393Y-94590676D01*
X167768440Y-94585313D01*
X167831116Y-94396903D01*
X167856002Y-94199907D01*
X167856399Y-94171500D01*
X167837023Y-93973886D01*
X167779632Y-93783799D01*
X167686413Y-93608480D01*
X167560917Y-93454606D01*
X167495080Y-93400141D01*
X167412672Y-93331967D01*
X167412669Y-93331965D01*
X167407922Y-93328038D01*
X167323968Y-93282644D01*
X167273559Y-93232649D01*
X167258182Y-93163338D01*
X167282718Y-93096716D01*
X167327086Y-93059343D01*
X167360922Y-93042251D01*
X167378649Y-93033297D01*
X167378651Y-93033296D01*
X167384150Y-93030518D01*
X167540618Y-92908272D01*
X167670362Y-92757962D01*
X167687690Y-92727460D01*
X167765393Y-92590676D01*
X167768440Y-92585313D01*
X167831116Y-92396903D01*
X167856002Y-92199907D01*
X167856399Y-92171500D01*
X167837023Y-91973886D01*
X167779632Y-91783799D01*
X167686413Y-91608480D01*
X167560917Y-91454606D01*
X167495080Y-91400141D01*
X167412672Y-91331967D01*
X167412669Y-91331965D01*
X167407922Y-91328038D01*
X167323968Y-91282644D01*
X167273559Y-91232649D01*
X167258182Y-91163338D01*
X167282718Y-91096716D01*
X167327086Y-91059343D01*
X167360922Y-91042251D01*
X167378649Y-91033297D01*
X167378651Y-91033296D01*
X167384150Y-91030518D01*
X167540618Y-90908272D01*
X167670362Y-90757962D01*
X167687690Y-90727460D01*
X167765393Y-90590676D01*
X167768440Y-90585313D01*
X167831116Y-90396903D01*
X167856002Y-90199907D01*
X167856399Y-90171500D01*
X167837023Y-89973886D01*
X167779632Y-89783799D01*
X167686413Y-89608480D01*
X167560917Y-89454606D01*
X167495080Y-89400141D01*
X167412672Y-89331967D01*
X167412669Y-89331965D01*
X167407922Y-89328038D01*
X167323968Y-89282644D01*
X167273559Y-89232649D01*
X167258182Y-89163338D01*
X167282718Y-89096716D01*
X167327086Y-89059343D01*
X167360922Y-89042251D01*
X167378649Y-89033297D01*
X167378651Y-89033296D01*
X167384150Y-89030518D01*
X167540618Y-88908272D01*
X167592066Y-88848669D01*
X167651719Y-88810172D01*
X167687447Y-88805000D01*
X176413800Y-88805000D01*
X176481921Y-88825002D01*
X176495821Y-88835616D01*
X176498747Y-88838866D01*
X176653248Y-88951118D01*
X176659276Y-88953802D01*
X176659278Y-88953803D01*
X176785367Y-89009941D01*
X176827712Y-89028794D01*
X176921112Y-89048647D01*
X177008056Y-89067128D01*
X177008061Y-89067128D01*
X177014513Y-89068500D01*
X177205487Y-89068500D01*
X177211939Y-89067128D01*
X177211944Y-89067128D01*
X177298887Y-89048647D01*
X177392288Y-89028794D01*
X177434633Y-89009941D01*
X177560722Y-88953803D01*
X177560724Y-88953802D01*
X177566752Y-88951118D01*
X177721253Y-88838866D01*
X177794099Y-88757962D01*
X177844621Y-88701852D01*
X177844622Y-88701851D01*
X177849040Y-88696944D01*
X177933004Y-88551515D01*
X177941223Y-88537279D01*
X177941224Y-88537278D01*
X177944527Y-88531556D01*
X178003542Y-88349928D01*
X178023504Y-88160000D01*
X178022576Y-88151170D01*
X178004232Y-87976635D01*
X178004232Y-87976633D01*
X178003542Y-87970072D01*
X177944527Y-87788444D01*
X177849040Y-87623056D01*
X177754446Y-87517998D01*
X177725675Y-87486045D01*
X177725671Y-87486041D01*
X177721253Y-87481134D01*
X177566752Y-87368882D01*
X177560724Y-87366198D01*
X177560722Y-87366197D01*
X177398319Y-87293891D01*
X177398318Y-87293891D01*
X177392288Y-87291206D01*
X177298888Y-87271353D01*
X177211944Y-87252872D01*
X177211939Y-87252872D01*
X177205487Y-87251500D01*
X177014513Y-87251500D01*
X177008061Y-87252872D01*
X177008056Y-87252872D01*
X176921112Y-87271353D01*
X176827712Y-87291206D01*
X176821682Y-87293891D01*
X176821681Y-87293891D01*
X176659278Y-87366197D01*
X176659276Y-87366198D01*
X176653248Y-87368882D01*
X176647907Y-87372762D01*
X176647906Y-87372763D01*
X176528689Y-87459380D01*
X176498747Y-87481134D01*
X176485083Y-87496310D01*
X176424639Y-87533549D01*
X176391446Y-87538000D01*
X167688760Y-87538000D01*
X167620639Y-87517998D01*
X167591120Y-87491638D01*
X167560917Y-87454606D01*
X167495080Y-87400141D01*
X167412672Y-87331967D01*
X167412669Y-87331965D01*
X167407922Y-87328038D01*
X167323968Y-87282644D01*
X167273559Y-87232649D01*
X167258182Y-87163338D01*
X167282718Y-87096716D01*
X167327086Y-87059343D01*
X167360922Y-87042251D01*
X167378649Y-87033297D01*
X167378651Y-87033296D01*
X167384150Y-87030518D01*
X167540618Y-86908272D01*
X167670362Y-86757962D01*
X167687690Y-86727460D01*
X167765393Y-86590676D01*
X167768440Y-86585313D01*
X167831116Y-86396903D01*
X167856002Y-86199907D01*
X167856399Y-86171500D01*
X167837023Y-85973886D01*
X167779632Y-85783799D01*
X167686413Y-85608480D01*
X167560917Y-85454606D01*
X167495080Y-85400141D01*
X167412672Y-85331967D01*
X167412669Y-85331965D01*
X167407922Y-85328038D01*
X167323968Y-85282644D01*
X167273559Y-85232649D01*
X167258182Y-85163338D01*
X167282718Y-85096716D01*
X167327086Y-85059343D01*
X167360922Y-85042251D01*
X167378649Y-85033297D01*
X167378651Y-85033296D01*
X167384150Y-85030518D01*
X167540618Y-84908272D01*
X167670362Y-84757962D01*
X167687690Y-84727460D01*
X167765393Y-84590676D01*
X167768440Y-84585313D01*
X167831116Y-84396903D01*
X167856002Y-84199907D01*
X167856399Y-84171500D01*
X167837023Y-83973886D01*
X167779632Y-83783799D01*
X167686413Y-83608480D01*
X167560917Y-83454606D01*
X167464291Y-83374670D01*
X167424552Y-83315836D01*
X167422930Y-83244858D01*
X167459940Y-83184270D01*
X167500376Y-83159603D01*
X167581297Y-83129267D01*
X167589705Y-83126115D01*
X167706261Y-83038761D01*
X167793615Y-82922205D01*
X167844745Y-82785816D01*
X167851500Y-82723634D01*
X167851500Y-81619366D01*
X167844745Y-81557184D01*
X167793615Y-81420795D01*
X167706261Y-81304239D01*
X167589705Y-81216885D01*
X167453316Y-81165755D01*
X167391134Y-81159000D01*
X166286866Y-81159000D01*
X166224684Y-81165755D01*
X166088295Y-81216885D01*
X165971739Y-81304239D01*
X165884385Y-81420795D01*
X165833255Y-81557184D01*
X165826500Y-81619366D01*
X165826500Y-82723634D01*
X165833255Y-82785816D01*
X165884385Y-82922205D01*
X165971739Y-83038761D01*
X166088295Y-83126115D01*
X166096703Y-83129267D01*
X166177900Y-83159707D01*
X166234665Y-83202349D01*
X166259364Y-83268911D01*
X166244156Y-83338260D01*
X166212623Y-83375885D01*
X166127163Y-83444596D01*
X166123205Y-83449313D01*
X166123203Y-83449315D01*
X166039986Y-83548489D01*
X165999530Y-83596703D01*
X165903873Y-83770704D01*
X165843834Y-83959971D01*
X165821700Y-84157295D01*
X165838315Y-84355160D01*
X165893046Y-84546030D01*
X165983808Y-84722633D01*
X165987634Y-84727460D01*
X166103315Y-84873415D01*
X166103319Y-84873420D01*
X166107144Y-84878245D01*
X166258357Y-85006936D01*
X166355913Y-85061459D01*
X166405617Y-85112152D01*
X166420025Y-85181671D01*
X166394561Y-85247944D01*
X166352817Y-85283107D01*
X166287374Y-85317320D01*
X166287370Y-85317322D01*
X166281910Y-85320177D01*
X166127163Y-85444596D01*
X166123205Y-85449313D01*
X166123203Y-85449315D01*
X166039986Y-85548489D01*
X165999530Y-85596703D01*
X165903873Y-85770704D01*
X165843834Y-85959971D01*
X165821700Y-86157295D01*
X165838315Y-86355160D01*
X165893046Y-86546030D01*
X165983808Y-86722633D01*
X165987634Y-86727460D01*
X166103315Y-86873415D01*
X166103319Y-86873420D01*
X166107144Y-86878245D01*
X166258357Y-87006936D01*
X166355913Y-87061459D01*
X166405617Y-87112152D01*
X166420025Y-87181671D01*
X166394561Y-87247944D01*
X166352817Y-87283107D01*
X166287374Y-87317320D01*
X166287370Y-87317322D01*
X166281910Y-87320177D01*
X166127163Y-87444596D01*
X166123205Y-87449313D01*
X166123203Y-87449315D01*
X166048788Y-87538000D01*
X165999530Y-87596703D01*
X165903873Y-87770704D01*
X165902012Y-87776571D01*
X165902011Y-87776573D01*
X165897847Y-87789699D01*
X165843834Y-87959971D01*
X165821700Y-88157295D01*
X165822216Y-88163439D01*
X165837325Y-88343365D01*
X165838315Y-88355160D01*
X165840014Y-88361084D01*
X165890537Y-88537279D01*
X165893046Y-88546030D01*
X165895865Y-88551515D01*
X165970606Y-88696944D01*
X165983808Y-88722633D01*
X165987634Y-88727460D01*
X166103315Y-88873415D01*
X166103319Y-88873420D01*
X166107144Y-88878245D01*
X166258357Y-89006936D01*
X166355913Y-89061459D01*
X166405617Y-89112152D01*
X166420025Y-89181671D01*
X166394561Y-89247944D01*
X166352817Y-89283107D01*
X166287374Y-89317320D01*
X166287370Y-89317322D01*
X166281910Y-89320177D01*
X166127163Y-89444596D01*
X166123205Y-89449313D01*
X166123203Y-89449315D01*
X166039986Y-89548489D01*
X165999530Y-89596703D01*
X165903873Y-89770704D01*
X165843834Y-89959971D01*
X165821700Y-90157295D01*
X165838315Y-90355160D01*
X165893046Y-90546030D01*
X165983808Y-90722633D01*
X165987634Y-90727460D01*
X166103315Y-90873415D01*
X166103319Y-90873420D01*
X166107144Y-90878245D01*
X166258357Y-91006936D01*
X166355913Y-91061459D01*
X166405617Y-91112152D01*
X166420025Y-91181671D01*
X166394561Y-91247944D01*
X166352817Y-91283107D01*
X166287374Y-91317320D01*
X166287370Y-91317322D01*
X166281910Y-91320177D01*
X166127163Y-91444596D01*
X166123205Y-91449313D01*
X166123203Y-91449315D01*
X166039986Y-91548489D01*
X165999530Y-91596703D01*
X165903873Y-91770704D01*
X165843834Y-91959971D01*
X165821700Y-92157295D01*
X165838315Y-92355160D01*
X165893046Y-92546030D01*
X165983808Y-92722633D01*
X165987634Y-92727460D01*
X166103315Y-92873415D01*
X166103319Y-92873420D01*
X166107144Y-92878245D01*
X166258357Y-93006936D01*
X166355913Y-93061459D01*
X166405617Y-93112152D01*
X166420025Y-93181671D01*
X166394561Y-93247944D01*
X166352817Y-93283107D01*
X166287374Y-93317320D01*
X166287370Y-93317322D01*
X166281910Y-93320177D01*
X166127163Y-93444596D01*
X166123205Y-93449313D01*
X166123203Y-93449315D01*
X166039986Y-93548489D01*
X165999530Y-93596703D01*
X165903873Y-93770704D01*
X165843834Y-93959971D01*
X165821700Y-94157295D01*
X165838315Y-94355160D01*
X165893046Y-94546030D01*
X165983808Y-94722633D01*
X165987634Y-94727460D01*
X166103315Y-94873415D01*
X166103319Y-94873420D01*
X166107144Y-94878245D01*
X166258357Y-95006936D01*
X166355913Y-95061459D01*
X166405617Y-95112152D01*
X166420025Y-95181671D01*
X166394561Y-95247944D01*
X166352817Y-95283107D01*
X166287374Y-95317320D01*
X166287370Y-95317322D01*
X166281910Y-95320177D01*
X166127163Y-95444596D01*
X166123205Y-95449313D01*
X166123203Y-95449315D01*
X166039986Y-95548489D01*
X165999530Y-95596703D01*
X165903873Y-95770704D01*
X165843834Y-95959971D01*
X165821700Y-96157295D01*
X165838315Y-96355160D01*
X165893046Y-96546030D01*
X165983808Y-96722633D01*
X165987634Y-96727460D01*
X166103315Y-96873415D01*
X166103319Y-96873420D01*
X166107144Y-96878245D01*
X166258357Y-97006936D01*
X166355913Y-97061459D01*
X166405617Y-97112152D01*
X166420025Y-97181671D01*
X166394561Y-97247944D01*
X166352817Y-97283107D01*
X166287374Y-97317320D01*
X166287370Y-97317322D01*
X166281910Y-97320177D01*
X166127163Y-97444596D01*
X166123205Y-97449313D01*
X166123203Y-97449315D01*
X166039986Y-97548489D01*
X165999530Y-97596703D01*
X165903873Y-97770704D01*
X165843834Y-97959971D01*
X165821700Y-98157295D01*
X162306500Y-98157295D01*
X162306500Y-74912985D01*
X163897354Y-74912985D01*
X163897656Y-74916820D01*
X163915608Y-75144917D01*
X163922870Y-75237195D01*
X163987706Y-75555878D01*
X164090898Y-75864284D01*
X164230905Y-76157816D01*
X164405641Y-76432097D01*
X164408084Y-76435060D01*
X164408085Y-76435062D01*
X164557808Y-76616690D01*
X164612501Y-76683038D01*
X164848402Y-76906899D01*
X165109826Y-77100343D01*
X165251351Y-77180414D01*
X165389519Y-77258586D01*
X165389523Y-77258588D01*
X165392876Y-77260485D01*
X165693332Y-77384938D01*
X165796788Y-77413629D01*
X166003000Y-77470817D01*
X166003008Y-77470819D01*
X166006716Y-77471847D01*
X166328356Y-77519916D01*
X166331654Y-77520060D01*
X166443418Y-77524940D01*
X166443422Y-77524940D01*
X166444794Y-77525000D01*
X166643098Y-77525000D01*
X166885105Y-77510198D01*
X166888888Y-77509497D01*
X166888895Y-77509496D01*
X167088959Y-77472416D01*
X167204872Y-77450933D01*
X167414182Y-77384938D01*
X167511360Y-77354298D01*
X167511363Y-77354297D01*
X167515032Y-77353140D01*
X167518529Y-77351546D01*
X167518535Y-77351544D01*
X167807454Y-77219876D01*
X167807458Y-77219874D01*
X167810962Y-77218277D01*
X168088251Y-77048354D01*
X168091255Y-77045964D01*
X168091260Y-77045961D01*
X168215507Y-76947130D01*
X168342764Y-76845905D01*
X168345458Y-76843164D01*
X168345462Y-76843160D01*
X168568013Y-76616690D01*
X168568017Y-76616685D01*
X168570708Y-76613947D01*
X168768685Y-76355939D01*
X168933742Y-76075727D01*
X169063420Y-75777488D01*
X169155785Y-75465669D01*
X169209461Y-75144917D01*
X169219587Y-74912985D01*
X186122354Y-74912985D01*
X186122656Y-74916820D01*
X186140608Y-75144917D01*
X186147870Y-75237195D01*
X186212706Y-75555878D01*
X186315898Y-75864284D01*
X186455905Y-76157816D01*
X186630641Y-76432097D01*
X186633084Y-76435060D01*
X186633085Y-76435062D01*
X186782808Y-76616690D01*
X186837501Y-76683038D01*
X187073402Y-76906899D01*
X187334826Y-77100343D01*
X187476351Y-77180414D01*
X187614519Y-77258586D01*
X187614523Y-77258588D01*
X187617876Y-77260485D01*
X187918332Y-77384938D01*
X188021788Y-77413629D01*
X188228000Y-77470817D01*
X188228008Y-77470819D01*
X188231716Y-77471847D01*
X188553356Y-77519916D01*
X188556654Y-77520060D01*
X188668418Y-77524940D01*
X188668422Y-77524940D01*
X188669794Y-77525000D01*
X188868098Y-77525000D01*
X189110105Y-77510198D01*
X189113888Y-77509497D01*
X189113895Y-77509496D01*
X189313959Y-77472416D01*
X189429872Y-77450933D01*
X189639182Y-77384938D01*
X189736360Y-77354298D01*
X189736363Y-77354297D01*
X189740032Y-77353140D01*
X189743529Y-77351546D01*
X189743535Y-77351544D01*
X190032454Y-77219876D01*
X190032458Y-77219874D01*
X190035962Y-77218277D01*
X190313251Y-77048354D01*
X190316255Y-77045964D01*
X190316260Y-77045961D01*
X190440507Y-76947130D01*
X190567764Y-76845905D01*
X190570458Y-76843164D01*
X190570462Y-76843160D01*
X190793013Y-76616690D01*
X190793017Y-76616685D01*
X190795708Y-76613947D01*
X190993685Y-76355939D01*
X191158742Y-76075727D01*
X191288420Y-75777488D01*
X191380785Y-75465669D01*
X191434461Y-75144917D01*
X191448646Y-74820015D01*
X191435888Y-74657910D01*
X191423432Y-74499640D01*
X191423432Y-74499637D01*
X191423130Y-74495805D01*
X191358294Y-74177122D01*
X191255102Y-73868716D01*
X191115095Y-73575184D01*
X190940359Y-73300903D01*
X190792970Y-73122106D01*
X190735942Y-73052925D01*
X190735938Y-73052920D01*
X190733499Y-73049962D01*
X190497598Y-72826101D01*
X190236174Y-72632657D01*
X190031281Y-72516734D01*
X189956481Y-72474414D01*
X189956477Y-72474412D01*
X189953124Y-72472515D01*
X189652668Y-72348062D01*
X189549212Y-72319371D01*
X189343000Y-72262183D01*
X189342992Y-72262181D01*
X189339284Y-72261153D01*
X189017644Y-72213084D01*
X189014346Y-72212940D01*
X188902582Y-72208060D01*
X188902578Y-72208060D01*
X188901206Y-72208000D01*
X188702902Y-72208000D01*
X188460895Y-72222802D01*
X188457112Y-72223503D01*
X188457105Y-72223504D01*
X188301011Y-72252435D01*
X188141128Y-72282067D01*
X187956558Y-72340262D01*
X187834640Y-72378702D01*
X187834637Y-72378703D01*
X187830968Y-72379860D01*
X187827471Y-72381454D01*
X187827465Y-72381456D01*
X187538546Y-72513124D01*
X187538542Y-72513126D01*
X187535038Y-72514723D01*
X187257749Y-72684646D01*
X187254745Y-72687036D01*
X187254740Y-72687039D01*
X187130493Y-72785870D01*
X187003236Y-72887095D01*
X187000542Y-72889836D01*
X187000538Y-72889840D01*
X186777987Y-73116310D01*
X186777983Y-73116315D01*
X186775292Y-73119053D01*
X186577315Y-73377061D01*
X186412258Y-73657273D01*
X186282580Y-73955512D01*
X186190215Y-74267331D01*
X186136539Y-74588083D01*
X186122354Y-74912985D01*
X169219587Y-74912985D01*
X169223646Y-74820015D01*
X169210888Y-74657910D01*
X169198432Y-74499640D01*
X169198432Y-74499637D01*
X169198130Y-74495805D01*
X169133294Y-74177122D01*
X169030102Y-73868716D01*
X168890095Y-73575184D01*
X168715359Y-73300903D01*
X168567970Y-73122106D01*
X168510942Y-73052925D01*
X168510938Y-73052920D01*
X168508499Y-73049962D01*
X168272598Y-72826101D01*
X168011174Y-72632657D01*
X167806281Y-72516734D01*
X167731481Y-72474414D01*
X167731477Y-72474412D01*
X167728124Y-72472515D01*
X167427668Y-72348062D01*
X167324212Y-72319371D01*
X167118000Y-72262183D01*
X167117992Y-72262181D01*
X167114284Y-72261153D01*
X166792644Y-72213084D01*
X166789346Y-72212940D01*
X166677582Y-72208060D01*
X166677578Y-72208060D01*
X166676206Y-72208000D01*
X166477902Y-72208000D01*
X166235895Y-72222802D01*
X166232112Y-72223503D01*
X166232105Y-72223504D01*
X166076011Y-72252435D01*
X165916128Y-72282067D01*
X165731558Y-72340262D01*
X165609640Y-72378702D01*
X165609637Y-72378703D01*
X165605968Y-72379860D01*
X165602471Y-72381454D01*
X165602465Y-72381456D01*
X165313546Y-72513124D01*
X165313542Y-72513126D01*
X165310038Y-72514723D01*
X165032749Y-72684646D01*
X165029745Y-72687036D01*
X165029740Y-72687039D01*
X164905493Y-72785870D01*
X164778236Y-72887095D01*
X164775542Y-72889836D01*
X164775538Y-72889840D01*
X164552987Y-73116310D01*
X164552983Y-73116315D01*
X164550292Y-73119053D01*
X164352315Y-73377061D01*
X164187258Y-73657273D01*
X164057580Y-73955512D01*
X163965215Y-74267331D01*
X163911539Y-74588083D01*
X163897354Y-74912985D01*
X162306500Y-74912985D01*
X162306500Y-70738500D01*
X162326502Y-70670379D01*
X162380158Y-70623886D01*
X162432500Y-70612500D01*
X192913500Y-70612500D01*
X192981621Y-70632502D01*
G37*
%TD.AperFunction*%
%TD*%
M02*
