M48
; DRILL file {KiCad (6.0.11)} date Wed Mar  1 16:43:25 2023
; FORMAT={-:-/ absolute / inch / decimal}
; #@! TF.CreationDate,2023-03-01T16:43:25-07:00
; #@! TF.GenerationSoftware,Kicad,Pcbnew,(6.0.11)
; #@! TF.FileFunction,Plated,1,2,PTH
FMAT,2
INCH
; #@! TA.AperFunction,Plated,PTH,ViaDrill
T1C0.0157
; #@! TA.AperFunction,Plated,PTH,ComponentDrill
T2C0.0197
%
G90
G05
T1
X6.7465Y-3.7539
X6.9728Y-3.4709
X7.0122Y-3.9441
X7.2697Y-3.7413
T2
X6.5685Y-3.2351
X6.5685Y-3.3138
X6.5685Y-3.3926
X6.5685Y-3.4713
X6.5685Y-3.5501
X6.5685Y-3.6288
X6.5685Y-3.7075
X6.5685Y-3.7863
X6.5685Y-3.865
X6.5685Y-3.9438
X7.4346Y-3.2351
X7.4346Y-3.3138
X7.4346Y-3.3926
X7.4346Y-3.4713
X7.4346Y-3.5501
X7.4346Y-3.6288
X7.4346Y-3.7075
X7.4346Y-3.7863
X7.4346Y-3.865
X7.4346Y-3.9438
T0
M30
