%TF.GenerationSoftware,KiCad,Pcbnew,(6.0.11)*%
%TF.CreationDate,2023-03-01T16:43:23-07:00*%
%TF.ProjectId,Wirless-Module,5769726c-6573-4732-9d4d-6f64756c652e,rev?*%
%TF.SameCoordinates,Original*%
%TF.FileFunction,Copper,L1,Top*%
%TF.FilePolarity,Positive*%
%FSLAX46Y46*%
G04 Gerber Fmt 4.6, Leading zero omitted, Abs format (unit mm)*
G04 Created by KiCad (PCBNEW (6.0.11)) date 2023-03-01 16:43:23*
%MOMM*%
%LPD*%
G01*
G04 APERTURE LIST*
%TA.AperFunction,ComponentPad*%
%ADD10C,1.008000*%
%TD*%
%TA.AperFunction,ComponentPad*%
%ADD11R,1.008000X1.008000*%
%TD*%
%TA.AperFunction,SMDPad,CuDef*%
%ADD12R,1.020000X0.940000*%
%TD*%
%TA.AperFunction,SMDPad,CuDef*%
%ADD13R,0.600000X1.500000*%
%TD*%
%TA.AperFunction,SMDPad,CuDef*%
%ADD14R,1.200000X1.800000*%
%TD*%
%TA.AperFunction,SMDPad,CuDef*%
%ADD15R,0.965200X1.295400*%
%TD*%
%TA.AperFunction,SMDPad,CuDef*%
%ADD16R,1.000000X1.100000*%
%TD*%
%TA.AperFunction,ViaPad*%
%ADD17C,0.800000*%
%TD*%
%TA.AperFunction,Conductor*%
%ADD18C,0.381000*%
%TD*%
%TA.AperFunction,Conductor*%
%ADD19C,0.762000*%
%TD*%
%TA.AperFunction,Conductor*%
%ADD20C,0.250000*%
%TD*%
G04 APERTURE END LIST*
D10*
%TO.P,U1,20,DIO0*%
%TO.N,unconnected-(U1-Pad20)*%
X188839000Y-82171500D03*
%TO.P,U1,19,DIO1*%
%TO.N,unconnected-(U1-Pad19)*%
X188839000Y-84171500D03*
%TO.P,U1,18,SCK*%
%TO.N,XBEE_SCK*%
X188839000Y-86171500D03*
%TO.P,U1,17,SPI_SS*%
%TO.N,XBEE_SS*%
X188839000Y-88171500D03*
%TO.P,U1,16,DIO6*%
%TO.N,unconnected-(U1-Pad16)*%
X188839000Y-90171500D03*
%TO.P,U1,15,DI05*%
%TO.N,unconnected-(U1-Pad15)*%
X188839000Y-92171500D03*
%TO.P,U1,14,VREF*%
%TO.N,unconnected-(U1-Pad14)*%
X188839000Y-94171500D03*
%TO.P,U1,13,~{SLEEP}*%
%TO.N,unconnected-(U1-Pad13)*%
X188839000Y-96171500D03*
%TO.P,U1,12,DI07*%
%TO.N,unconnected-(U1-Pad12)*%
X188839000Y-98171500D03*
%TO.P,U1,11,MOSI*%
%TO.N,XBEE_MOSI*%
X188839000Y-100171500D03*
%TO.P,U1,10,GND*%
%TO.N,Earth*%
X166839000Y-100171500D03*
%TO.P,U1,9,DI8*%
%TO.N,unconnected-(U1-Pad9)*%
X166839000Y-98171500D03*
%TO.P,U1,8,NC*%
%TO.N,unconnected-(U1-Pad8)*%
X166839000Y-96171500D03*
%TO.P,U1,7,PWM1*%
%TO.N,unconnected-(U1-Pad7)*%
X166839000Y-94171500D03*
%TO.P,U1,6,PWM0*%
%TO.N,unconnected-(U1-Pad6)*%
X166839000Y-92171500D03*
%TO.P,U1,5,~{RESET}*%
%TO.N,unconnected-(U1-Pad5)*%
X166839000Y-90171500D03*
%TO.P,U1,4,MISO*%
%TO.N,XBEE_MISO*%
X166839000Y-88171500D03*
%TO.P,U1,3,RX*%
%TO.N,XBEE_RX*%
X166839000Y-86171500D03*
%TO.P,U1,2,TX*%
%TO.N,XBEE_TX*%
X166839000Y-84171500D03*
D11*
%TO.P,U1,1,VCC*%
%TO.N,3.3V*%
X166839000Y-82171500D03*
%TD*%
D12*
%TO.P,R1,1*%
%TO.N,Earth*%
X165820000Y-106040000D03*
%TO.P,R1,2*%
%TO.N,Net-(D1-Pad1)*%
X165820000Y-104460000D03*
%TD*%
D13*
%TO.P,P1,1,1*%
%TO.N,3.3V*%
X174110000Y-113590000D03*
%TO.P,P1,2,2*%
%TO.N,XBEE_RX*%
X175110000Y-113590000D03*
%TO.P,P1,3,3*%
%TO.N,XBEE_TX*%
X176110000Y-113590000D03*
%TO.P,P1,4,4*%
%TO.N,XBEE_MISO*%
X177110000Y-113590000D03*
%TO.P,P1,5,5*%
%TO.N,XBEE_MOSI*%
X178110000Y-113590000D03*
%TO.P,P1,6,6*%
%TO.N,XBEE_SCK*%
X179110000Y-113590000D03*
%TO.P,P1,7,7*%
%TO.N,XBEE_SS*%
X180110000Y-113590000D03*
%TO.P,P1,8,8*%
%TO.N,Earth*%
X181110000Y-113590000D03*
D14*
%TO.P,P1,S1*%
%TO.N,N/C*%
X182410000Y-117490000D03*
%TO.P,P1,S2*%
X172810000Y-117490000D03*
%TD*%
D15*
%TO.P,D1,1,1*%
%TO.N,Net-(D1-Pad1)*%
X168636000Y-104820000D03*
%TO.P,D1,2,2*%
%TO.N,3.3V*%
X171684000Y-104820000D03*
%TD*%
D16*
%TO.P,C2,1*%
%TO.N,3.3V*%
X164270000Y-82610000D03*
%TO.P,C2,2*%
%TO.N,Earth*%
X164270000Y-80910000D03*
%TD*%
%TO.P,C1,1*%
%TO.N,3.3V*%
X164520000Y-85070000D03*
%TO.P,C1,2*%
%TO.N,Earth*%
X164520000Y-86770000D03*
%TD*%
D17*
%TO.N,Earth*%
X184650000Y-95030000D03*
X171360000Y-95350000D03*
%TO.N,XBEE_MOSI*%
X178110000Y-100180000D03*
%TO.N,XBEE_MISO*%
X177110000Y-88160000D03*
%TD*%
D18*
%TO.N,Net-(D1-Pad1)*%
X168636000Y-104820000D02*
X166280000Y-104820000D01*
X166280000Y-104820000D02*
X165980000Y-104520000D01*
D19*
%TO.N,3.3V*%
X166839000Y-82171500D02*
X164758500Y-82171500D01*
X164758500Y-82171500D02*
X164620000Y-82310000D01*
X164270000Y-83790000D02*
X164270000Y-84880000D01*
X164270000Y-82610000D02*
X164270000Y-83790000D01*
X164270000Y-83790000D02*
X162840000Y-83790000D01*
X162840000Y-83790000D02*
X162790000Y-83840000D01*
X164270000Y-84880000D02*
X164300000Y-84910000D01*
X165520000Y-109840000D02*
X171730000Y-109840000D01*
X171684000Y-104820000D02*
X171684000Y-109794000D01*
X171730000Y-109840000D02*
X172730000Y-109840000D01*
X171684000Y-109794000D02*
X171730000Y-109840000D01*
X162790000Y-83840000D02*
X162790000Y-107110000D01*
X162790000Y-107110000D02*
X165520000Y-109840000D01*
X172730000Y-109840000D02*
X174110000Y-111220000D01*
X174110000Y-111220000D02*
X174110000Y-112870000D01*
D20*
%TO.N,XBEE_MOSI*%
X178110000Y-113590000D02*
X178110000Y-100180000D01*
%TO.N,XBEE_SS*%
X180110000Y-91460000D02*
X183380000Y-88190000D01*
X180110000Y-113590000D02*
X180110000Y-91460000D01*
X183380000Y-88190000D02*
X188840000Y-88190000D01*
%TO.N,XBEE_SCK*%
X179110000Y-89990000D02*
X182950000Y-86150000D01*
X179110000Y-113590000D02*
X179110000Y-89990000D01*
X182950000Y-86150000D02*
X188920000Y-86150000D01*
%TO.N,XBEE_MISO*%
X177110000Y-113590000D02*
X177110000Y-88160000D01*
%TO.N,XBEE_TX*%
X176110000Y-88820000D02*
X171470000Y-84180000D01*
X176110000Y-113590000D02*
X176110000Y-88820000D01*
X171470000Y-84180000D02*
X167080000Y-84180000D01*
%TO.N,XBEE_RX*%
X175110000Y-89470000D02*
X171760000Y-86120000D01*
X175110000Y-113590000D02*
X175110000Y-89470000D01*
X171760000Y-86120000D02*
X166800000Y-86120000D01*
%TD*%
%TA.AperFunction,Conductor*%
%TO.N,Earth*%
G36*
X192981621Y-70632502D02*
G01*
X193028114Y-70686158D01*
X193039500Y-70738500D01*
X193039500Y-120269500D01*
X193019498Y-120337621D01*
X192965842Y-120384114D01*
X192913500Y-120395500D01*
X162432500Y-120395500D01*
X162364379Y-120375498D01*
X162317886Y-120321842D01*
X162306500Y-120269500D01*
X162306500Y-116187985D01*
X163897354Y-116187985D01*
X163897656Y-116191820D01*
X163920930Y-116487540D01*
X163922870Y-116512195D01*
X163987706Y-116830878D01*
X164090898Y-117139284D01*
X164230905Y-117432816D01*
X164405641Y-117707097D01*
X164408084Y-117710060D01*
X164408085Y-117710062D01*
X164557808Y-117891690D01*
X164612501Y-117958038D01*
X164848402Y-118181899D01*
X165109826Y-118375343D01*
X165214769Y-118434717D01*
X165389519Y-118533586D01*
X165389523Y-118533588D01*
X165392876Y-118535485D01*
X165693332Y-118659938D01*
X165796788Y-118688629D01*
X166003000Y-118745817D01*
X166003008Y-118745819D01*
X166006716Y-118746847D01*
X166328356Y-118794916D01*
X166331654Y-118795060D01*
X166443418Y-118799940D01*
X166443422Y-118799940D01*
X166444794Y-118800000D01*
X166643098Y-118800000D01*
X166885105Y-118785198D01*
X166888888Y-118784497D01*
X166888895Y-118784496D01*
X167044989Y-118755565D01*
X167204872Y-118725933D01*
X167414182Y-118659938D01*
X167511360Y-118629298D01*
X167511363Y-118629297D01*
X167515032Y-118628140D01*
X167518529Y-118626546D01*
X167518535Y-118626544D01*
X167807454Y-118494876D01*
X167807458Y-118494874D01*
X167810962Y-118493277D01*
X167895404Y-118441531D01*
X168084973Y-118325363D01*
X168084976Y-118325361D01*
X168088251Y-118323354D01*
X168091255Y-118320964D01*
X168091260Y-118320961D01*
X168215507Y-118222130D01*
X168342764Y-118120905D01*
X168345458Y-118118164D01*
X168345462Y-118118160D01*
X168568013Y-117891690D01*
X168568017Y-117891685D01*
X168570708Y-117888947D01*
X168768685Y-117630939D01*
X168933742Y-117350727D01*
X169063420Y-117052488D01*
X169155785Y-116740669D01*
X169209461Y-116419917D01*
X169223646Y-116095015D01*
X169210888Y-115932910D01*
X169198432Y-115774640D01*
X169198432Y-115774637D01*
X169198130Y-115770805D01*
X169133294Y-115452122D01*
X169030102Y-115143716D01*
X168890095Y-114850184D01*
X168715359Y-114575903D01*
X168567970Y-114397106D01*
X168510942Y-114327925D01*
X168510938Y-114327920D01*
X168508499Y-114324962D01*
X168272598Y-114101101D01*
X168011174Y-113907657D01*
X167806281Y-113791734D01*
X167731481Y-113749414D01*
X167731477Y-113749412D01*
X167728124Y-113747515D01*
X167716925Y-113742876D01*
X167499713Y-113652904D01*
X167427668Y-113623062D01*
X167324212Y-113594371D01*
X167118000Y-113537183D01*
X167117992Y-113537181D01*
X167114284Y-113536153D01*
X166792644Y-113488084D01*
X166789346Y-113487940D01*
X166677582Y-113483060D01*
X166677578Y-113483060D01*
X166676206Y-113483000D01*
X166477902Y-113483000D01*
X166235895Y-113497802D01*
X166232112Y-113498503D01*
X166232105Y-113498504D01*
X166076012Y-113527434D01*
X165916128Y-113557067D01*
X165731558Y-113615262D01*
X165609640Y-113653702D01*
X165609637Y-113653703D01*
X165605968Y-113654860D01*
X165602471Y-113656454D01*
X165602465Y-113656456D01*
X165313546Y-113788124D01*
X165313542Y-113788126D01*
X165310038Y-113789723D01*
X165306759Y-113791733D01*
X165306756Y-113791734D01*
X165226166Y-113841120D01*
X165032749Y-113959646D01*
X165029745Y-113962036D01*
X165029740Y-113962039D01*
X164905493Y-114060870D01*
X164778236Y-114162095D01*
X164775542Y-114164836D01*
X164775538Y-114164840D01*
X164552987Y-114391310D01*
X164552983Y-114391315D01*
X164550292Y-114394053D01*
X164352315Y-114652061D01*
X164187258Y-114932273D01*
X164057580Y-115230512D01*
X163965215Y-115542331D01*
X163911539Y-115863083D01*
X163897354Y-116187985D01*
X162306500Y-116187985D01*
X162306500Y-108188633D01*
X162326502Y-108120512D01*
X162380158Y-108074019D01*
X162450432Y-108063915D01*
X162515012Y-108093409D01*
X162521595Y-108099538D01*
X164834511Y-110412454D01*
X164847348Y-110427482D01*
X164855331Y-110438470D01*
X164860233Y-110442883D01*
X164860234Y-110442885D01*
X164905063Y-110483249D01*
X164909847Y-110487790D01*
X164923994Y-110501937D01*
X164926559Y-110504014D01*
X164939554Y-110514537D01*
X164944575Y-110518825D01*
X164989381Y-110559170D01*
X164989385Y-110559173D01*
X164994285Y-110563585D01*
X164999995Y-110566881D01*
X164999998Y-110566884D01*
X165006045Y-110570375D01*
X165022330Y-110581568D01*
X165032875Y-110590107D01*
X165092480Y-110620477D01*
X165098276Y-110623624D01*
X165156215Y-110657075D01*
X165169125Y-110661270D01*
X165187384Y-110668833D01*
X165199476Y-110674994D01*
X165264138Y-110692320D01*
X165270386Y-110694172D01*
X165334044Y-110714855D01*
X165347536Y-110716273D01*
X165366980Y-110719877D01*
X165373705Y-110721679D01*
X165373710Y-110721680D01*
X165380085Y-110723388D01*
X165386675Y-110723733D01*
X165386679Y-110723734D01*
X165446880Y-110726889D01*
X165453455Y-110727406D01*
X165473380Y-110729500D01*
X165493414Y-110729500D01*
X165500008Y-110729673D01*
X165560218Y-110732829D01*
X165560223Y-110732829D01*
X165566810Y-110733174D01*
X165573325Y-110732142D01*
X165573327Y-110732142D01*
X165580214Y-110731051D01*
X165599925Y-110729500D01*
X171703407Y-110729500D01*
X171710001Y-110729673D01*
X171770218Y-110732829D01*
X171770222Y-110732829D01*
X171776810Y-110733174D01*
X171783325Y-110732142D01*
X171783327Y-110732142D01*
X171790214Y-110731051D01*
X171809925Y-110729500D01*
X172309367Y-110729500D01*
X172377488Y-110749502D01*
X172398462Y-110766405D01*
X173183595Y-111551538D01*
X173217621Y-111613850D01*
X173220500Y-111640633D01*
X173220500Y-112916620D01*
X173235145Y-113055956D01*
X173237185Y-113062234D01*
X173237185Y-113062235D01*
X173292925Y-113233785D01*
X173292130Y-113234043D01*
X173301500Y-113278130D01*
X173301500Y-113652904D01*
X173281498Y-113721025D01*
X173270725Y-113735416D01*
X173266753Y-113740000D01*
X173260000Y-113740000D01*
X173260000Y-115955500D01*
X173239998Y-116023621D01*
X173186342Y-116070114D01*
X173134000Y-116081500D01*
X172161866Y-116081500D01*
X172099684Y-116088255D01*
X171963295Y-116139385D01*
X171846739Y-116226739D01*
X171759385Y-116343295D01*
X171708255Y-116479684D01*
X171701500Y-116541866D01*
X171701500Y-118438134D01*
X171708255Y-118500316D01*
X171759385Y-118636705D01*
X171846739Y-118753261D01*
X171963295Y-118840615D01*
X172099684Y-118891745D01*
X172161866Y-118898500D01*
X173134000Y-118898500D01*
X173202121Y-118918502D01*
X173248614Y-118972158D01*
X173260000Y-119024500D01*
X173260000Y-119390000D01*
X181960000Y-119390000D01*
X181960000Y-119024500D01*
X181980002Y-118956379D01*
X182033658Y-118909886D01*
X182086000Y-118898500D01*
X183058134Y-118898500D01*
X183120316Y-118891745D01*
X183256705Y-118840615D01*
X183373261Y-118753261D01*
X183460615Y-118636705D01*
X183511745Y-118500316D01*
X183518500Y-118438134D01*
X183518500Y-116541866D01*
X183511745Y-116479684D01*
X183460615Y-116343295D01*
X183373261Y-116226739D01*
X183321552Y-116187985D01*
X186122354Y-116187985D01*
X186122656Y-116191820D01*
X186145930Y-116487540D01*
X186147870Y-116512195D01*
X186212706Y-116830878D01*
X186315898Y-117139284D01*
X186455905Y-117432816D01*
X186630641Y-117707097D01*
X186633084Y-117710060D01*
X186633085Y-117710062D01*
X186782808Y-117891690D01*
X186837501Y-117958038D01*
X187073402Y-118181899D01*
X187334826Y-118375343D01*
X187439769Y-118434717D01*
X187614519Y-118533586D01*
X187614523Y-118533588D01*
X187617876Y-118535485D01*
X187918332Y-118659938D01*
X188021788Y-118688629D01*
X188228000Y-118745817D01*
X188228008Y-118745819D01*
X188231716Y-118746847D01*
X188553356Y-118794916D01*
X188556654Y-118795060D01*
X188668418Y-118799940D01*
X188668422Y-118799940D01*
X188669794Y-118800000D01*
X188868098Y-118800000D01*
X189110105Y-118785198D01*
X189113888Y-118784497D01*
X189113895Y-118784496D01*
X189269989Y-118755565D01*
X189429872Y-118725933D01*
X189639182Y-118659938D01*
X189736360Y-118629298D01*
X189736363Y-118629297D01*
X189740032Y-118628140D01*
X189743529Y-118626546D01*
X189743535Y-118626544D01*
X190032454Y-118494876D01*
X190032458Y-118494874D01*
X190035962Y-118493277D01*
X190120404Y-118441531D01*
X190309973Y-118325363D01*
X190309976Y-118325361D01*
X190313251Y-118323354D01*
X190316255Y-118320964D01*
X190316260Y-118320961D01*
X190440507Y-118222130D01*
X190567764Y-118120905D01*
X190570458Y-118118164D01*
X190570462Y-118118160D01*
X190793013Y-117891690D01*
X190793017Y-117891685D01*
X190795708Y-117888947D01*
X190993685Y-117630939D01*
X191158742Y-117350727D01*
X191288420Y-117052488D01*
X191380785Y-116740669D01*
X191434461Y-116419917D01*
X191448646Y-116095015D01*
X191435888Y-115932910D01*
X191423432Y-115774640D01*
X191423432Y-115774637D01*
X191423130Y-115770805D01*
X191358294Y-115452122D01*
X191255102Y-115143716D01*
X191115095Y-114850184D01*
X190940359Y-114575903D01*
X190792970Y-114397106D01*
X190735942Y-114327925D01*
X190735938Y-114327920D01*
X190733499Y-114324962D01*
X190497598Y-114101101D01*
X190236174Y-113907657D01*
X190031281Y-113791734D01*
X189956481Y-113749414D01*
X189956477Y-113749412D01*
X189953124Y-113747515D01*
X189941925Y-113742876D01*
X189724713Y-113652904D01*
X189652668Y-113623062D01*
X189549212Y-113594371D01*
X189343000Y-113537183D01*
X189342992Y-113537181D01*
X189339284Y-113536153D01*
X189017644Y-113488084D01*
X189014346Y-113487940D01*
X188902582Y-113483060D01*
X188902578Y-113483060D01*
X188901206Y-113483000D01*
X188702902Y-113483000D01*
X188460895Y-113497802D01*
X188457112Y-113498503D01*
X188457105Y-113498504D01*
X188301012Y-113527434D01*
X188141128Y-113557067D01*
X187956558Y-113615262D01*
X187834640Y-113653702D01*
X187834637Y-113653703D01*
X187830968Y-113654860D01*
X187827471Y-113656454D01*
X187827465Y-113656456D01*
X187538546Y-113788124D01*
X187538542Y-113788126D01*
X187535038Y-113789723D01*
X187531759Y-113791733D01*
X187531756Y-113791734D01*
X187451166Y-113841120D01*
X187257749Y-113959646D01*
X187254745Y-113962036D01*
X187254740Y-113962039D01*
X187130493Y-114060870D01*
X187003236Y-114162095D01*
X187000542Y-114164836D01*
X187000538Y-114164840D01*
X186777987Y-114391310D01*
X186777983Y-114391315D01*
X186775292Y-114394053D01*
X186577315Y-114652061D01*
X186412258Y-114932273D01*
X186282580Y-115230512D01*
X186190215Y-115542331D01*
X186136539Y-115863083D01*
X186122354Y-116187985D01*
X183321552Y-116187985D01*
X183256705Y-116139385D01*
X183120316Y-116088255D01*
X183058134Y-116081500D01*
X182086000Y-116081500D01*
X182017879Y-116061498D01*
X181971386Y-116007842D01*
X181960000Y-115955500D01*
X181960000Y-113740000D01*
X181415000Y-113740000D01*
X181415000Y-113748273D01*
X181382883Y-113807094D01*
X181320571Y-113841120D01*
X181293786Y-113844000D01*
X181044500Y-113844000D01*
X180976379Y-113823998D01*
X180929886Y-113770342D01*
X180918500Y-113718000D01*
X180918500Y-113317885D01*
X181364000Y-113317885D01*
X181368475Y-113333124D01*
X181369865Y-113334329D01*
X181377548Y-113336000D01*
X181899884Y-113336000D01*
X181915123Y-113331525D01*
X181916328Y-113330135D01*
X181917999Y-113322452D01*
X181917999Y-112795331D01*
X181917629Y-112788510D01*
X181912105Y-112737648D01*
X181908479Y-112722396D01*
X181863324Y-112601946D01*
X181854786Y-112586351D01*
X181778285Y-112484276D01*
X181765724Y-112471715D01*
X181663649Y-112395214D01*
X181648054Y-112386676D01*
X181527606Y-112341522D01*
X181512351Y-112337895D01*
X181461486Y-112332369D01*
X181454672Y-112332000D01*
X181382115Y-112332000D01*
X181366876Y-112336475D01*
X181365671Y-112337865D01*
X181364000Y-112345548D01*
X181364000Y-113317885D01*
X180918500Y-113317885D01*
X180918500Y-112791866D01*
X180911745Y-112729684D01*
X180908973Y-112722288D01*
X180908971Y-112722282D01*
X180864018Y-112602371D01*
X180856000Y-112558142D01*
X180856000Y-112350116D01*
X180851525Y-112334877D01*
X180850135Y-112333672D01*
X180842718Y-112332059D01*
X180780406Y-112298035D01*
X180746380Y-112235723D01*
X180743500Y-112208938D01*
X180743500Y-91774594D01*
X180763502Y-91706473D01*
X180780405Y-91685499D01*
X183605499Y-88860405D01*
X183667811Y-88826379D01*
X183694594Y-88823500D01*
X188002843Y-88823500D01*
X188070964Y-88843502D01*
X188101590Y-88871238D01*
X188107144Y-88878245D01*
X188258357Y-89006936D01*
X188355913Y-89061459D01*
X188405617Y-89112152D01*
X188420025Y-89181671D01*
X188394561Y-89247944D01*
X188352817Y-89283107D01*
X188287374Y-89317320D01*
X188287370Y-89317322D01*
X188281910Y-89320177D01*
X188127163Y-89444596D01*
X188123205Y-89449313D01*
X188123203Y-89449315D01*
X188092129Y-89486348D01*
X187999530Y-89596703D01*
X187903873Y-89770704D01*
X187902012Y-89776571D01*
X187902011Y-89776573D01*
X187875106Y-89861389D01*
X187843834Y-89959971D01*
X187821700Y-90157295D01*
X187838315Y-90355160D01*
X187893046Y-90546030D01*
X187983808Y-90722633D01*
X187987634Y-90727460D01*
X188103315Y-90873415D01*
X188103319Y-90873420D01*
X188107144Y-90878245D01*
X188258357Y-91006936D01*
X188355913Y-91061459D01*
X188405617Y-91112152D01*
X188420025Y-91181671D01*
X188394561Y-91247944D01*
X188352817Y-91283107D01*
X188287374Y-91317320D01*
X188287370Y-91317322D01*
X188281910Y-91320177D01*
X188127163Y-91444596D01*
X188123205Y-91449313D01*
X188123203Y-91449315D01*
X188039986Y-91548489D01*
X187999530Y-91596703D01*
X187903873Y-91770704D01*
X187843834Y-91959971D01*
X187821700Y-92157295D01*
X187838315Y-92355160D01*
X187893046Y-92546030D01*
X187983808Y-92722633D01*
X187987634Y-92727460D01*
X188103315Y-92873415D01*
X188103319Y-92873420D01*
X188107144Y-92878245D01*
X188258357Y-93006936D01*
X188355913Y-93061459D01*
X188405617Y-93112152D01*
X188420025Y-93181671D01*
X188394561Y-93247944D01*
X188352817Y-93283107D01*
X188287374Y-93317320D01*
X188287370Y-93317322D01*
X188281910Y-93320177D01*
X188127163Y-93444596D01*
X188123205Y-93449313D01*
X188123203Y-93449315D01*
X188039986Y-93548489D01*
X187999530Y-93596703D01*
X187903873Y-93770704D01*
X187843834Y-93959971D01*
X187821700Y-94157295D01*
X187838315Y-94355160D01*
X187893046Y-94546030D01*
X187983808Y-94722633D01*
X187987634Y-94727460D01*
X188103315Y-94873415D01*
X188103319Y-94873420D01*
X188107144Y-94878245D01*
X188258357Y-95006936D01*
X188355913Y-95061459D01*
X188405617Y-95112152D01*
X188420025Y-95181671D01*
X188394561Y-95247944D01*
X188352817Y-95283107D01*
X188287374Y-95317320D01*
X188287370Y-95317322D01*
X188281910Y-95320177D01*
X188127163Y-95444596D01*
X188123205Y-95449313D01*
X188123203Y-95449315D01*
X188039986Y-95548489D01*
X187999530Y-95596703D01*
X187903873Y-95770704D01*
X187843834Y-95959971D01*
X187821700Y-96157295D01*
X187838315Y-96355160D01*
X187893046Y-96546030D01*
X187983808Y-96722633D01*
X187987634Y-96727460D01*
X188103315Y-96873415D01*
X188103319Y-96873420D01*
X188107144Y-96878245D01*
X188258357Y-97006936D01*
X188355913Y-97061459D01*
X188405617Y-97112152D01*
X188420025Y-97181671D01*
X188394561Y-97247944D01*
X188352817Y-97283107D01*
X188287374Y-97317320D01*
X188287370Y-97317322D01*
X188281910Y-97320177D01*
X188127163Y-97444596D01*
X188123205Y-97449313D01*
X188123203Y-97449315D01*
X188039986Y-97548489D01*
X187999530Y-97596703D01*
X187903873Y-97770704D01*
X187843834Y-97959971D01*
X187821700Y-98157295D01*
X187838315Y-98355160D01*
X187893046Y-98546030D01*
X187983808Y-98722633D01*
X187987634Y-98727460D01*
X188103315Y-98873415D01*
X188103319Y-98873420D01*
X188107144Y-98878245D01*
X188258357Y-99006936D01*
X188355913Y-99061459D01*
X188405617Y-99112152D01*
X188420025Y-99181671D01*
X188394561Y-99247944D01*
X188352817Y-99283107D01*
X188287374Y-99317320D01*
X188287370Y-99317322D01*
X188281910Y-99320177D01*
X188127163Y-99444596D01*
X188123205Y-99449313D01*
X188123203Y-99449315D01*
X188039986Y-99548489D01*
X187999530Y-99596703D01*
X187903873Y-99770704D01*
X187902012Y-99776571D01*
X187902011Y-99776573D01*
X187892330Y-99807092D01*
X187843834Y-99959971D01*
X187821700Y-100157295D01*
X187822216Y-100163439D01*
X187837792Y-100348928D01*
X187838315Y-100355160D01*
X187840014Y-100361084D01*
X187891294Y-100539919D01*
X187893046Y-100546030D01*
X187910227Y-100579460D01*
X187960662Y-100677595D01*
X187983808Y-100722633D01*
X187987634Y-100727460D01*
X188103315Y-100873415D01*
X188103319Y-100873420D01*
X188107144Y-100878245D01*
X188258357Y-101006936D01*
X188323909Y-101043572D01*
X188426307Y-101100802D01*
X188426313Y-101100805D01*
X188431685Y-101103807D01*
X188620528Y-101165165D01*
X188817693Y-101188676D01*
X188823828Y-101188204D01*
X188823830Y-101188204D01*
X189009528Y-101173915D01*
X189009533Y-101173914D01*
X189015669Y-101173442D01*
X189021599Y-101171786D01*
X189021601Y-101171786D01*
X189078340Y-101155944D01*
X189206916Y-101120045D01*
X189235293Y-101105711D01*
X189378649Y-101033297D01*
X189378651Y-101033296D01*
X189384150Y-101030518D01*
X189540618Y-100908272D01*
X189670362Y-100757962D01*
X189687690Y-100727460D01*
X189765393Y-100590676D01*
X189768440Y-100585313D01*
X189831116Y-100396903D01*
X189856002Y-100199907D01*
X189856399Y-100171500D01*
X189837023Y-99973886D01*
X189779632Y-99783799D01*
X189721086Y-99673690D01*
X189689307Y-99613922D01*
X189689305Y-99613919D01*
X189686413Y-99608480D01*
X189560917Y-99454606D01*
X189432897Y-99348699D01*
X189412672Y-99331967D01*
X189412669Y-99331965D01*
X189407922Y-99328038D01*
X189323968Y-99282644D01*
X189273559Y-99232649D01*
X189258182Y-99163338D01*
X189282718Y-99096716D01*
X189327086Y-99059343D01*
X189360922Y-99042251D01*
X189378649Y-99033297D01*
X189378652Y-99033295D01*
X189384150Y-99030518D01*
X189540618Y-98908272D01*
X189670362Y-98757962D01*
X189687690Y-98727460D01*
X189765393Y-98590676D01*
X189768440Y-98585313D01*
X189831116Y-98396903D01*
X189856002Y-98199907D01*
X189856399Y-98171500D01*
X189837023Y-97973886D01*
X189779632Y-97783799D01*
X189686413Y-97608480D01*
X189560917Y-97454606D01*
X189495080Y-97400141D01*
X189412672Y-97331967D01*
X189412669Y-97331965D01*
X189407922Y-97328038D01*
X189323968Y-97282644D01*
X189273559Y-97232649D01*
X189258182Y-97163338D01*
X189282718Y-97096716D01*
X189327086Y-97059343D01*
X189360922Y-97042251D01*
X189378649Y-97033297D01*
X189378651Y-97033296D01*
X189384150Y-97030518D01*
X189540618Y-96908272D01*
X189670362Y-96757962D01*
X189687690Y-96727460D01*
X189765393Y-96590676D01*
X189768440Y-96585313D01*
X189831116Y-96396903D01*
X189856002Y-96199907D01*
X189856399Y-96171500D01*
X189837023Y-95973886D01*
X189779632Y-95783799D01*
X189686413Y-95608480D01*
X189560917Y-95454606D01*
X189495080Y-95400141D01*
X189412672Y-95331967D01*
X189412669Y-95331965D01*
X189407922Y-95328038D01*
X189323968Y-95282644D01*
X189273559Y-95232649D01*
X189258182Y-95163338D01*
X189282718Y-95096716D01*
X189327086Y-95059343D01*
X189360922Y-95042251D01*
X189378649Y-95033297D01*
X189378651Y-95033296D01*
X189384150Y-95030518D01*
X189540618Y-94908272D01*
X189670362Y-94757962D01*
X189687690Y-94727460D01*
X189765393Y-94590676D01*
X189768440Y-94585313D01*
X189831116Y-94396903D01*
X189856002Y-94199907D01*
X189856399Y-94171500D01*
X189837023Y-93973886D01*
X189779632Y-93783799D01*
X189686413Y-93608480D01*
X189560917Y-93454606D01*
X189495080Y-93400141D01*
X189412672Y-93331967D01*
X189412669Y-93331965D01*
X189407922Y-93328038D01*
X189323968Y-93282644D01*
X189273559Y-93232649D01*
X189258182Y-93163338D01*
X189282718Y-93096716D01*
X189327086Y-93059343D01*
X189360922Y-93042251D01*
X189378649Y-93033297D01*
X189378651Y-93033296D01*
X189384150Y-93030518D01*
X189540618Y-92908272D01*
X189670362Y-92757962D01*
X189687690Y-92727460D01*
X189765393Y-92590676D01*
X189768440Y-92585313D01*
X189831116Y-92396903D01*
X189856002Y-92199907D01*
X189856399Y-92171500D01*
X189837023Y-91973886D01*
X189779632Y-91783799D01*
X189686413Y-91608480D01*
X189560917Y-91454606D01*
X189495080Y-91400141D01*
X189412672Y-91331967D01*
X189412669Y-91331965D01*
X189407922Y-91328038D01*
X189323968Y-91282644D01*
X189273559Y-91232649D01*
X189258182Y-91163338D01*
X189282718Y-91096716D01*
X189327086Y-91059343D01*
X189360922Y-91042251D01*
X189378649Y-91033297D01*
X189378651Y-91033296D01*
X189384150Y-91030518D01*
X189540618Y-90908272D01*
X189670362Y-90757962D01*
X189687690Y-90727460D01*
X189739990Y-90635394D01*
X189768440Y-90585313D01*
X189831116Y-90396903D01*
X189856002Y-90199907D01*
X189856399Y-90171500D01*
X189837023Y-89973886D01*
X189779632Y-89783799D01*
X189720311Y-89672232D01*
X189689307Y-89613922D01*
X189689305Y-89613919D01*
X189686413Y-89608480D01*
X189593321Y-89494337D01*
X189564811Y-89459380D01*
X189564809Y-89459378D01*
X189560917Y-89454606D01*
X189495080Y-89400141D01*
X189412672Y-89331967D01*
X189412669Y-89331965D01*
X189407922Y-89328038D01*
X189323968Y-89282644D01*
X189273559Y-89232649D01*
X189258182Y-89163338D01*
X189282718Y-89096716D01*
X189327086Y-89059343D01*
X189360922Y-89042251D01*
X189378649Y-89033297D01*
X189378651Y-89033296D01*
X189384150Y-89030518D01*
X189540618Y-88908272D01*
X189670362Y-88757962D01*
X189687690Y-88727460D01*
X189765393Y-88590676D01*
X189768440Y-88585313D01*
X189831116Y-88396903D01*
X189856002Y-88199907D01*
X189856399Y-88171500D01*
X189837023Y-87973886D01*
X189779632Y-87783799D01*
X189745640Y-87719870D01*
X189689307Y-87613922D01*
X189689305Y-87613919D01*
X189686413Y-87608480D01*
X189560917Y-87454606D01*
X189495080Y-87400141D01*
X189412672Y-87331967D01*
X189412669Y-87331965D01*
X189407922Y-87328038D01*
X189323968Y-87282644D01*
X189273559Y-87232649D01*
X189258182Y-87163338D01*
X189282718Y-87096716D01*
X189327086Y-87059343D01*
X189370233Y-87037548D01*
X189378649Y-87033297D01*
X189378651Y-87033296D01*
X189384150Y-87030518D01*
X189540618Y-86908272D01*
X189570707Y-86873414D01*
X189666333Y-86762630D01*
X189666334Y-86762628D01*
X189670362Y-86757962D01*
X189687690Y-86727460D01*
X189765393Y-86590676D01*
X189768440Y-86585313D01*
X189831116Y-86396903D01*
X189856002Y-86199907D01*
X189856209Y-86185104D01*
X189856350Y-86175023D01*
X189856350Y-86175019D01*
X189856399Y-86171500D01*
X189837023Y-85973886D01*
X189779632Y-85783799D01*
X189747397Y-85723173D01*
X189689307Y-85613922D01*
X189689305Y-85613919D01*
X189686413Y-85608480D01*
X189623651Y-85531526D01*
X189564811Y-85459380D01*
X189564809Y-85459378D01*
X189560917Y-85454606D01*
X189414787Y-85333717D01*
X189412672Y-85331967D01*
X189412669Y-85331965D01*
X189407922Y-85328038D01*
X189323968Y-85282644D01*
X189273559Y-85232649D01*
X189258182Y-85163338D01*
X189282718Y-85096716D01*
X189327086Y-85059343D01*
X189360922Y-85042251D01*
X189378649Y-85033297D01*
X189378651Y-85033296D01*
X189384150Y-85030518D01*
X189540618Y-84908272D01*
X189584729Y-84857169D01*
X189666333Y-84762630D01*
X189666334Y-84762628D01*
X189670362Y-84757962D01*
X189687690Y-84727460D01*
X189765393Y-84590676D01*
X189768440Y-84585313D01*
X189831116Y-84396903D01*
X189856002Y-84199907D01*
X189856399Y-84171500D01*
X189837023Y-83973886D01*
X189779632Y-83783799D01*
X189775790Y-83776573D01*
X189689307Y-83613922D01*
X189689305Y-83613919D01*
X189686413Y-83608480D01*
X189633025Y-83543020D01*
X189564811Y-83459380D01*
X189564809Y-83459378D01*
X189560917Y-83454606D01*
X189464291Y-83374670D01*
X189412672Y-83331967D01*
X189412669Y-83331965D01*
X189407922Y-83328038D01*
X189323968Y-83282644D01*
X189273559Y-83232649D01*
X189258182Y-83163338D01*
X189282718Y-83096716D01*
X189327086Y-83059343D01*
X189367832Y-83038761D01*
X189378649Y-83033297D01*
X189378651Y-83033296D01*
X189384150Y-83030518D01*
X189540618Y-82908272D01*
X189547476Y-82900327D01*
X189666333Y-82762630D01*
X189666334Y-82762628D01*
X189670362Y-82757962D01*
X189687690Y-82727460D01*
X189765393Y-82590676D01*
X189768440Y-82585313D01*
X189831116Y-82396903D01*
X189856002Y-82199907D01*
X189856399Y-82171500D01*
X189837023Y-81973886D01*
X189779632Y-81783799D01*
X189735057Y-81699966D01*
X189689307Y-81613922D01*
X189689305Y-81613919D01*
X189686413Y-81608480D01*
X189644577Y-81557184D01*
X189564811Y-81459380D01*
X189564809Y-81459378D01*
X189560917Y-81454606D01*
X189439819Y-81354425D01*
X189412672Y-81331967D01*
X189412669Y-81331965D01*
X189407922Y-81328038D01*
X189233258Y-81233597D01*
X189043576Y-81174881D01*
X189037451Y-81174237D01*
X189037450Y-81174237D01*
X188852232Y-81154770D01*
X188852230Y-81154770D01*
X188846103Y-81154126D01*
X188762970Y-81161692D01*
X188654497Y-81171563D01*
X188654494Y-81171564D01*
X188648358Y-81172122D01*
X188642452Y-81173860D01*
X188642448Y-81173861D01*
X188525293Y-81208342D01*
X188457876Y-81228184D01*
X188281910Y-81320177D01*
X188127163Y-81444596D01*
X188123205Y-81449313D01*
X188123203Y-81449315D01*
X188084964Y-81494887D01*
X187999530Y-81596703D01*
X187903873Y-81770704D01*
X187902012Y-81776571D01*
X187902011Y-81776573D01*
X187890362Y-81813295D01*
X187843834Y-81959971D01*
X187821700Y-82157295D01*
X187838315Y-82355160D01*
X187893046Y-82546030D01*
X187983808Y-82722633D01*
X187987634Y-82727460D01*
X188103315Y-82873415D01*
X188103319Y-82873420D01*
X188107144Y-82878245D01*
X188111837Y-82882239D01*
X188111838Y-82882240D01*
X188216607Y-82971404D01*
X188258357Y-83006936D01*
X188355913Y-83061459D01*
X188405617Y-83112152D01*
X188420025Y-83181671D01*
X188394561Y-83247944D01*
X188352817Y-83283107D01*
X188287374Y-83317320D01*
X188287370Y-83317322D01*
X188281910Y-83320177D01*
X188127163Y-83444596D01*
X188123205Y-83449313D01*
X188123203Y-83449315D01*
X188112471Y-83462105D01*
X187999530Y-83596703D01*
X187903873Y-83770704D01*
X187902012Y-83776571D01*
X187902011Y-83776573D01*
X187897847Y-83789699D01*
X187843834Y-83959971D01*
X187821700Y-84157295D01*
X187838315Y-84355160D01*
X187856202Y-84417540D01*
X187872760Y-84475283D01*
X187893046Y-84546030D01*
X187983808Y-84722633D01*
X187987634Y-84727460D01*
X188103315Y-84873415D01*
X188103319Y-84873420D01*
X188107144Y-84878245D01*
X188258357Y-85006936D01*
X188355913Y-85061459D01*
X188405617Y-85112152D01*
X188420025Y-85181671D01*
X188394561Y-85247944D01*
X188352817Y-85283107D01*
X188287374Y-85317320D01*
X188287370Y-85317322D01*
X188281910Y-85320177D01*
X188277110Y-85324037D01*
X188277109Y-85324037D01*
X188244754Y-85350051D01*
X188127163Y-85444596D01*
X188123204Y-85449314D01*
X188123203Y-85449315D01*
X188104594Y-85471492D01*
X188045483Y-85510818D01*
X188008073Y-85516500D01*
X183028767Y-85516500D01*
X183017584Y-85515973D01*
X183010091Y-85514298D01*
X183002165Y-85514547D01*
X183002164Y-85514547D01*
X182942014Y-85516438D01*
X182938055Y-85516500D01*
X182910144Y-85516500D01*
X182906210Y-85516997D01*
X182906209Y-85516997D01*
X182906144Y-85517005D01*
X182894307Y-85517938D01*
X182862049Y-85518952D01*
X182858030Y-85519078D01*
X182850111Y-85519327D01*
X182830657Y-85524979D01*
X182811300Y-85528987D01*
X182799070Y-85530532D01*
X182799069Y-85530532D01*
X182791203Y-85531526D01*
X182783832Y-85534445D01*
X182783830Y-85534445D01*
X182750088Y-85547804D01*
X182738858Y-85551649D01*
X182704017Y-85561771D01*
X182704016Y-85561771D01*
X182696407Y-85563982D01*
X182689588Y-85568015D01*
X182689583Y-85568017D01*
X182678972Y-85574293D01*
X182661224Y-85582988D01*
X182642383Y-85590448D01*
X182635967Y-85595110D01*
X182635966Y-85595110D01*
X182606613Y-85616436D01*
X182596693Y-85622952D01*
X182565465Y-85641420D01*
X182565462Y-85641422D01*
X182558638Y-85645458D01*
X182544317Y-85659779D01*
X182529284Y-85672619D01*
X182512893Y-85684528D01*
X182507842Y-85690634D01*
X182484702Y-85718605D01*
X182476712Y-85727384D01*
X178717747Y-89486348D01*
X178709461Y-89493888D01*
X178702982Y-89498000D01*
X178697557Y-89503777D01*
X178656357Y-89547651D01*
X178653602Y-89550493D01*
X178633865Y-89570230D01*
X178631385Y-89573427D01*
X178623682Y-89582447D01*
X178593414Y-89614679D01*
X178589595Y-89621625D01*
X178589593Y-89621628D01*
X178583652Y-89632434D01*
X178572801Y-89648953D01*
X178560386Y-89664959D01*
X178557241Y-89672228D01*
X178557238Y-89672232D01*
X178542826Y-89705537D01*
X178537609Y-89716187D01*
X178516305Y-89754940D01*
X178514334Y-89762615D01*
X178514334Y-89762616D01*
X178511267Y-89774562D01*
X178504863Y-89793266D01*
X178496819Y-89811855D01*
X178495580Y-89819678D01*
X178495577Y-89819688D01*
X178489901Y-89855524D01*
X178487495Y-89867144D01*
X178476500Y-89909970D01*
X178476500Y-89930224D01*
X178474949Y-89949934D01*
X178471780Y-89969943D01*
X178472526Y-89977835D01*
X178475941Y-90013961D01*
X178476500Y-90025819D01*
X178476500Y-99173508D01*
X178456498Y-99241629D01*
X178402842Y-99288122D01*
X178332568Y-99298226D01*
X178324303Y-99296755D01*
X178211944Y-99272872D01*
X178211939Y-99272872D01*
X178205487Y-99271500D01*
X178014513Y-99271500D01*
X178008061Y-99272872D01*
X178008056Y-99272872D01*
X177895697Y-99296755D01*
X177824906Y-99291353D01*
X177768273Y-99248536D01*
X177743780Y-99181898D01*
X177743500Y-99173508D01*
X177743500Y-88862524D01*
X177763502Y-88794403D01*
X177775858Y-88778221D01*
X177849040Y-88696944D01*
X177933004Y-88551515D01*
X177941223Y-88537279D01*
X177941224Y-88537278D01*
X177944527Y-88531556D01*
X178003542Y-88349928D01*
X178023504Y-88160000D01*
X178009294Y-88024802D01*
X178004232Y-87976635D01*
X178004232Y-87976633D01*
X178003542Y-87970072D01*
X177944527Y-87788444D01*
X177935798Y-87773324D01*
X177893338Y-87699782D01*
X177849040Y-87623056D01*
X177820758Y-87591645D01*
X177725675Y-87486045D01*
X177725674Y-87486044D01*
X177721253Y-87481134D01*
X177566752Y-87368882D01*
X177560724Y-87366198D01*
X177560722Y-87366197D01*
X177398319Y-87293891D01*
X177398318Y-87293891D01*
X177392288Y-87291206D01*
X177298888Y-87271353D01*
X177211944Y-87252872D01*
X177211939Y-87252872D01*
X177205487Y-87251500D01*
X177014513Y-87251500D01*
X177008061Y-87252872D01*
X177008056Y-87252872D01*
X176921112Y-87271353D01*
X176827712Y-87291206D01*
X176821682Y-87293891D01*
X176821681Y-87293891D01*
X176659278Y-87366197D01*
X176659276Y-87366198D01*
X176653248Y-87368882D01*
X176498747Y-87481134D01*
X176494326Y-87486044D01*
X176494325Y-87486045D01*
X176399243Y-87591645D01*
X176370960Y-87623056D01*
X176326662Y-87699782D01*
X176284203Y-87773324D01*
X176275473Y-87788444D01*
X176265163Y-87820175D01*
X176225092Y-87878778D01*
X176159695Y-87906416D01*
X176089738Y-87894310D01*
X176056236Y-87870332D01*
X174052693Y-85866788D01*
X171973652Y-83787747D01*
X171966112Y-83779461D01*
X171962000Y-83772982D01*
X171912348Y-83726356D01*
X171909507Y-83723602D01*
X171889770Y-83703865D01*
X171886573Y-83701385D01*
X171877551Y-83693680D01*
X171851100Y-83668841D01*
X171845321Y-83663414D01*
X171838375Y-83659595D01*
X171838372Y-83659593D01*
X171827566Y-83653652D01*
X171811047Y-83642801D01*
X171810583Y-83642441D01*
X171795041Y-83630386D01*
X171787772Y-83627241D01*
X171787768Y-83627238D01*
X171754463Y-83612826D01*
X171743813Y-83607609D01*
X171705060Y-83586305D01*
X171685437Y-83581267D01*
X171666734Y-83574863D01*
X171655420Y-83569967D01*
X171655419Y-83569967D01*
X171648145Y-83566819D01*
X171640322Y-83565580D01*
X171640312Y-83565577D01*
X171604476Y-83559901D01*
X171592856Y-83557495D01*
X171557711Y-83548472D01*
X171557710Y-83548472D01*
X171550030Y-83546500D01*
X171529776Y-83546500D01*
X171510065Y-83544949D01*
X171497886Y-83543020D01*
X171490057Y-83541780D01*
X171482165Y-83542526D01*
X171446039Y-83545941D01*
X171434181Y-83546500D01*
X167695693Y-83546500D01*
X167627572Y-83526498D01*
X167598050Y-83500135D01*
X167564816Y-83459386D01*
X167564813Y-83459383D01*
X167560917Y-83454606D01*
X167556168Y-83450677D01*
X167464291Y-83374670D01*
X167424552Y-83315836D01*
X167422930Y-83244858D01*
X167459940Y-83184270D01*
X167500376Y-83159603D01*
X167581297Y-83129267D01*
X167589705Y-83126115D01*
X167706261Y-83038761D01*
X167793615Y-82922205D01*
X167844745Y-82785816D01*
X167851500Y-82723634D01*
X167851500Y-81619366D01*
X167844745Y-81557184D01*
X167793615Y-81420795D01*
X167706261Y-81304239D01*
X167589705Y-81216885D01*
X167453316Y-81165755D01*
X167391134Y-81159000D01*
X166286866Y-81159000D01*
X166224684Y-81165755D01*
X166088295Y-81216885D01*
X166062087Y-81236527D01*
X166035002Y-81256826D01*
X165968496Y-81281674D01*
X165959437Y-81282000D01*
X165401651Y-81282000D01*
X165333530Y-81261998D01*
X165287037Y-81208342D01*
X165280755Y-81191498D01*
X165273525Y-81166876D01*
X165272135Y-81165671D01*
X165264452Y-81164000D01*
X163280116Y-81164000D01*
X163264877Y-81168475D01*
X163263672Y-81169865D01*
X163262001Y-81177548D01*
X163262001Y-81504669D01*
X163262371Y-81511490D01*
X163267895Y-81562352D01*
X163271521Y-81577604D01*
X163316679Y-81698061D01*
X163317174Y-81698966D01*
X163317393Y-81699966D01*
X163319828Y-81706462D01*
X163318890Y-81706814D01*
X163332343Y-81768323D01*
X163319162Y-81813212D01*
X163319385Y-81813295D01*
X163318244Y-81816337D01*
X163318242Y-81816344D01*
X163268255Y-81949684D01*
X163261500Y-82011866D01*
X163261500Y-82774500D01*
X163241498Y-82842621D01*
X163187842Y-82889114D01*
X163135500Y-82900500D01*
X162919925Y-82900500D01*
X162900214Y-82898949D01*
X162893327Y-82897858D01*
X162893325Y-82897858D01*
X162886810Y-82896826D01*
X162880222Y-82897171D01*
X162880218Y-82897171D01*
X162820001Y-82900327D01*
X162813407Y-82900500D01*
X162793380Y-82900500D01*
X162790109Y-82900844D01*
X162790105Y-82900844D01*
X162773461Y-82902593D01*
X162766887Y-82903110D01*
X162706684Y-82906265D01*
X162706682Y-82906265D01*
X162700085Y-82906611D01*
X162686972Y-82910125D01*
X162667530Y-82913728D01*
X162666288Y-82913858D01*
X162660615Y-82914454D01*
X162660611Y-82914455D01*
X162654044Y-82915145D01*
X162610199Y-82929391D01*
X162590418Y-82935818D01*
X162584094Y-82937691D01*
X162519476Y-82955006D01*
X162507384Y-82961167D01*
X162489125Y-82968730D01*
X162483675Y-82970501D01*
X162476211Y-82972926D01*
X162475716Y-82971404D01*
X162413375Y-82979759D01*
X162349080Y-82949649D01*
X162311270Y-82889558D01*
X162306500Y-82855219D01*
X162306500Y-80637885D01*
X163262000Y-80637885D01*
X163266475Y-80653124D01*
X163267865Y-80654329D01*
X163275548Y-80656000D01*
X163997885Y-80656000D01*
X164013124Y-80651525D01*
X164014329Y-80650135D01*
X164016000Y-80642452D01*
X164016000Y-80637885D01*
X164524000Y-80637885D01*
X164528475Y-80653124D01*
X164529865Y-80654329D01*
X164537548Y-80656000D01*
X165259884Y-80656000D01*
X165275123Y-80651525D01*
X165276328Y-80650135D01*
X165277999Y-80642452D01*
X165277999Y-80315331D01*
X165277629Y-80308510D01*
X165272105Y-80257648D01*
X165268479Y-80242396D01*
X165223324Y-80121946D01*
X165214786Y-80106351D01*
X165138285Y-80004276D01*
X165125724Y-79991715D01*
X165023649Y-79915214D01*
X165008054Y-79906676D01*
X164887606Y-79861522D01*
X164872351Y-79857895D01*
X164821486Y-79852369D01*
X164814672Y-79852000D01*
X164542115Y-79852000D01*
X164526876Y-79856475D01*
X164525671Y-79857865D01*
X164524000Y-79865548D01*
X164524000Y-80637885D01*
X164016000Y-80637885D01*
X164016000Y-79870116D01*
X164011525Y-79854877D01*
X164010135Y-79853672D01*
X164002452Y-79852001D01*
X163725331Y-79852001D01*
X163718510Y-79852371D01*
X163667648Y-79857895D01*
X163652396Y-79861521D01*
X163531946Y-79906676D01*
X163516351Y-79915214D01*
X163414276Y-79991715D01*
X163401715Y-80004276D01*
X163325214Y-80106351D01*
X163316676Y-80121946D01*
X163271522Y-80242394D01*
X163267895Y-80257649D01*
X163262369Y-80308514D01*
X163262000Y-80315328D01*
X163262000Y-80637885D01*
X162306500Y-80637885D01*
X162306500Y-74912985D01*
X163897354Y-74912985D01*
X163897656Y-74916820D01*
X163915608Y-75144917D01*
X163922870Y-75237195D01*
X163987706Y-75555878D01*
X164090898Y-75864284D01*
X164230905Y-76157816D01*
X164405641Y-76432097D01*
X164408084Y-76435060D01*
X164408085Y-76435062D01*
X164557808Y-76616690D01*
X164612501Y-76683038D01*
X164848402Y-76906899D01*
X165109826Y-77100343D01*
X165251351Y-77180414D01*
X165389519Y-77258586D01*
X165389523Y-77258588D01*
X165392876Y-77260485D01*
X165693332Y-77384938D01*
X165796788Y-77413629D01*
X166003000Y-77470817D01*
X166003008Y-77470819D01*
X166006716Y-77471847D01*
X166328356Y-77519916D01*
X166331654Y-77520060D01*
X166443418Y-77524940D01*
X166443422Y-77524940D01*
X166444794Y-77525000D01*
X166643098Y-77525000D01*
X166885105Y-77510198D01*
X166888888Y-77509497D01*
X166888895Y-77509496D01*
X167088959Y-77472416D01*
X167204872Y-77450933D01*
X167414182Y-77384938D01*
X167511360Y-77354298D01*
X167511363Y-77354297D01*
X167515032Y-77353140D01*
X167518529Y-77351546D01*
X167518535Y-77351544D01*
X167807454Y-77219876D01*
X167807458Y-77219874D01*
X167810962Y-77218277D01*
X168088251Y-77048354D01*
X168091255Y-77045964D01*
X168091260Y-77045961D01*
X168215507Y-76947130D01*
X168342764Y-76845905D01*
X168345458Y-76843164D01*
X168345462Y-76843160D01*
X168568013Y-76616690D01*
X168568017Y-76616685D01*
X168570708Y-76613947D01*
X168768685Y-76355939D01*
X168933742Y-76075727D01*
X169063420Y-75777488D01*
X169155785Y-75465669D01*
X169209461Y-75144917D01*
X169219587Y-74912985D01*
X186122354Y-74912985D01*
X186122656Y-74916820D01*
X186140608Y-75144917D01*
X186147870Y-75237195D01*
X186212706Y-75555878D01*
X186315898Y-75864284D01*
X186455905Y-76157816D01*
X186630641Y-76432097D01*
X186633084Y-76435060D01*
X186633085Y-76435062D01*
X186782808Y-76616690D01*
X186837501Y-76683038D01*
X187073402Y-76906899D01*
X187334826Y-77100343D01*
X187476351Y-77180414D01*
X187614519Y-77258586D01*
X187614523Y-77258588D01*
X187617876Y-77260485D01*
X187918332Y-77384938D01*
X188021788Y-77413629D01*
X188228000Y-77470817D01*
X188228008Y-77470819D01*
X188231716Y-77471847D01*
X188553356Y-77519916D01*
X188556654Y-77520060D01*
X188668418Y-77524940D01*
X188668422Y-77524940D01*
X188669794Y-77525000D01*
X188868098Y-77525000D01*
X189110105Y-77510198D01*
X189113888Y-77509497D01*
X189113895Y-77509496D01*
X189313959Y-77472416D01*
X189429872Y-77450933D01*
X189639182Y-77384938D01*
X189736360Y-77354298D01*
X189736363Y-77354297D01*
X189740032Y-77353140D01*
X189743529Y-77351546D01*
X189743535Y-77351544D01*
X190032454Y-77219876D01*
X190032458Y-77219874D01*
X190035962Y-77218277D01*
X190313251Y-77048354D01*
X190316255Y-77045964D01*
X190316260Y-77045961D01*
X190440507Y-76947130D01*
X190567764Y-76845905D01*
X190570458Y-76843164D01*
X190570462Y-76843160D01*
X190793013Y-76616690D01*
X190793017Y-76616685D01*
X190795708Y-76613947D01*
X190993685Y-76355939D01*
X191158742Y-76075727D01*
X191288420Y-75777488D01*
X191380785Y-75465669D01*
X191434461Y-75144917D01*
X191448646Y-74820015D01*
X191435888Y-74657910D01*
X191423432Y-74499640D01*
X191423432Y-74499637D01*
X191423130Y-74495805D01*
X191358294Y-74177122D01*
X191255102Y-73868716D01*
X191115095Y-73575184D01*
X190940359Y-73300903D01*
X190792970Y-73122106D01*
X190735942Y-73052925D01*
X190735938Y-73052920D01*
X190733499Y-73049962D01*
X190497598Y-72826101D01*
X190236174Y-72632657D01*
X190031281Y-72516734D01*
X189956481Y-72474414D01*
X189956477Y-72474412D01*
X189953124Y-72472515D01*
X189652668Y-72348062D01*
X189549212Y-72319371D01*
X189343000Y-72262183D01*
X189342992Y-72262181D01*
X189339284Y-72261153D01*
X189017644Y-72213084D01*
X189014346Y-72212940D01*
X188902582Y-72208060D01*
X188902578Y-72208060D01*
X188901206Y-72208000D01*
X188702902Y-72208000D01*
X188460895Y-72222802D01*
X188457112Y-72223503D01*
X188457105Y-72223504D01*
X188301011Y-72252435D01*
X188141128Y-72282067D01*
X187956558Y-72340262D01*
X187834640Y-72378702D01*
X187834637Y-72378703D01*
X187830968Y-72379860D01*
X187827471Y-72381454D01*
X187827465Y-72381456D01*
X187538546Y-72513124D01*
X187538542Y-72513126D01*
X187535038Y-72514723D01*
X187257749Y-72684646D01*
X187254745Y-72687036D01*
X187254740Y-72687039D01*
X187130493Y-72785870D01*
X187003236Y-72887095D01*
X187000542Y-72889836D01*
X187000538Y-72889840D01*
X186777987Y-73116310D01*
X186777983Y-73116315D01*
X186775292Y-73119053D01*
X186577315Y-73377061D01*
X186412258Y-73657273D01*
X186282580Y-73955512D01*
X186190215Y-74267331D01*
X186136539Y-74588083D01*
X186122354Y-74912985D01*
X169219587Y-74912985D01*
X169223646Y-74820015D01*
X169210888Y-74657910D01*
X169198432Y-74499640D01*
X169198432Y-74499637D01*
X169198130Y-74495805D01*
X169133294Y-74177122D01*
X169030102Y-73868716D01*
X168890095Y-73575184D01*
X168715359Y-73300903D01*
X168567970Y-73122106D01*
X168510942Y-73052925D01*
X168510938Y-73052920D01*
X168508499Y-73049962D01*
X168272598Y-72826101D01*
X168011174Y-72632657D01*
X167806281Y-72516734D01*
X167731481Y-72474414D01*
X167731477Y-72474412D01*
X167728124Y-72472515D01*
X167427668Y-72348062D01*
X167324212Y-72319371D01*
X167118000Y-72262183D01*
X167117992Y-72262181D01*
X167114284Y-72261153D01*
X166792644Y-72213084D01*
X166789346Y-72212940D01*
X166677582Y-72208060D01*
X166677578Y-72208060D01*
X166676206Y-72208000D01*
X166477902Y-72208000D01*
X166235895Y-72222802D01*
X166232112Y-72223503D01*
X166232105Y-72223504D01*
X166076011Y-72252435D01*
X165916128Y-72282067D01*
X165731558Y-72340262D01*
X165609640Y-72378702D01*
X165609637Y-72378703D01*
X165605968Y-72379860D01*
X165602471Y-72381454D01*
X165602465Y-72381456D01*
X165313546Y-72513124D01*
X165313542Y-72513126D01*
X165310038Y-72514723D01*
X165032749Y-72684646D01*
X165029745Y-72687036D01*
X165029740Y-72687039D01*
X164905493Y-72785870D01*
X164778236Y-72887095D01*
X164775542Y-72889836D01*
X164775538Y-72889840D01*
X164552987Y-73116310D01*
X164552983Y-73116315D01*
X164550292Y-73119053D01*
X164352315Y-73377061D01*
X164187258Y-73657273D01*
X164057580Y-73955512D01*
X163965215Y-74267331D01*
X163911539Y-74588083D01*
X163897354Y-74912985D01*
X162306500Y-74912985D01*
X162306500Y-70738500D01*
X162326502Y-70670379D01*
X162380158Y-70623886D01*
X162432500Y-70612500D01*
X192913500Y-70612500D01*
X192981621Y-70632502D01*
G37*
%TD.AperFunction*%
%TA.AperFunction,Conductor*%
G36*
X166027558Y-83081002D02*
G01*
X166034998Y-83086171D01*
X166088295Y-83126115D01*
X166096703Y-83129267D01*
X166177900Y-83159707D01*
X166234665Y-83202349D01*
X166259364Y-83268911D01*
X166244156Y-83338260D01*
X166212623Y-83375885D01*
X166127163Y-83444596D01*
X166123205Y-83449313D01*
X166123203Y-83449315D01*
X166112471Y-83462105D01*
X165999530Y-83596703D01*
X165903873Y-83770704D01*
X165902012Y-83776571D01*
X165902011Y-83776573D01*
X165897847Y-83789699D01*
X165843834Y-83959971D01*
X165821700Y-84157295D01*
X165838315Y-84355160D01*
X165856202Y-84417540D01*
X165872760Y-84475283D01*
X165893046Y-84546030D01*
X165983808Y-84722633D01*
X165987634Y-84727460D01*
X166103315Y-84873415D01*
X166103319Y-84873420D01*
X166107144Y-84878245D01*
X166258357Y-85006936D01*
X166355913Y-85061459D01*
X166405617Y-85112152D01*
X166420025Y-85181671D01*
X166394561Y-85247944D01*
X166352817Y-85283107D01*
X166287374Y-85317320D01*
X166287370Y-85317322D01*
X166281910Y-85320177D01*
X166277110Y-85324037D01*
X166277109Y-85324037D01*
X166244754Y-85350051D01*
X166127163Y-85444596D01*
X166123205Y-85449313D01*
X166123203Y-85449315D01*
X166055054Y-85530532D01*
X165999530Y-85596703D01*
X165903873Y-85770704D01*
X165902012Y-85776571D01*
X165902011Y-85776573D01*
X165875541Y-85860017D01*
X165843834Y-85959971D01*
X165821700Y-86157295D01*
X165838315Y-86355160D01*
X165893046Y-86546030D01*
X165983808Y-86722633D01*
X165987634Y-86727460D01*
X166103315Y-86873415D01*
X166103319Y-86873420D01*
X166107144Y-86878245D01*
X166258357Y-87006936D01*
X166355913Y-87061459D01*
X166405617Y-87112152D01*
X166420025Y-87181671D01*
X166394561Y-87247944D01*
X166352817Y-87283107D01*
X166287374Y-87317320D01*
X166287370Y-87317322D01*
X166281910Y-87320177D01*
X166127163Y-87444596D01*
X166123205Y-87449313D01*
X166123203Y-87449315D01*
X166039986Y-87548489D01*
X165999530Y-87596703D01*
X165903873Y-87770704D01*
X165902012Y-87776571D01*
X165902011Y-87776573D01*
X165879164Y-87848596D01*
X165843834Y-87959971D01*
X165821700Y-88157295D01*
X165822216Y-88163439D01*
X165837325Y-88343365D01*
X165838315Y-88355160D01*
X165840014Y-88361084D01*
X165890537Y-88537279D01*
X165893046Y-88546030D01*
X165895865Y-88551515D01*
X165970606Y-88696944D01*
X165983808Y-88722633D01*
X165987634Y-88727460D01*
X166103315Y-88873415D01*
X166103319Y-88873420D01*
X166107144Y-88878245D01*
X166258357Y-89006936D01*
X166355913Y-89061459D01*
X166405617Y-89112152D01*
X166420025Y-89181671D01*
X166394561Y-89247944D01*
X166352817Y-89283107D01*
X166287374Y-89317320D01*
X166287370Y-89317322D01*
X166281910Y-89320177D01*
X166127163Y-89444596D01*
X166123205Y-89449313D01*
X166123203Y-89449315D01*
X166092129Y-89486348D01*
X165999530Y-89596703D01*
X165903873Y-89770704D01*
X165902012Y-89776571D01*
X165902011Y-89776573D01*
X165875106Y-89861389D01*
X165843834Y-89959971D01*
X165821700Y-90157295D01*
X165838315Y-90355160D01*
X165893046Y-90546030D01*
X165983808Y-90722633D01*
X165987634Y-90727460D01*
X166103315Y-90873415D01*
X166103319Y-90873420D01*
X166107144Y-90878245D01*
X166258357Y-91006936D01*
X166355913Y-91061459D01*
X166405617Y-91112152D01*
X166420025Y-91181671D01*
X166394561Y-91247944D01*
X166352817Y-91283107D01*
X166287374Y-91317320D01*
X166287370Y-91317322D01*
X166281910Y-91320177D01*
X166127163Y-91444596D01*
X166123205Y-91449313D01*
X166123203Y-91449315D01*
X166039986Y-91548489D01*
X165999530Y-91596703D01*
X165903873Y-91770704D01*
X165843834Y-91959971D01*
X165821700Y-92157295D01*
X165838315Y-92355160D01*
X165893046Y-92546030D01*
X165983808Y-92722633D01*
X165987634Y-92727460D01*
X166103315Y-92873415D01*
X166103319Y-92873420D01*
X166107144Y-92878245D01*
X166258357Y-93006936D01*
X166355913Y-93061459D01*
X166405617Y-93112152D01*
X166420025Y-93181671D01*
X166394561Y-93247944D01*
X166352817Y-93283107D01*
X166287374Y-93317320D01*
X166287370Y-93317322D01*
X166281910Y-93320177D01*
X166127163Y-93444596D01*
X166123205Y-93449313D01*
X166123203Y-93449315D01*
X166039986Y-93548489D01*
X165999530Y-93596703D01*
X165903873Y-93770704D01*
X165843834Y-93959971D01*
X165821700Y-94157295D01*
X165838315Y-94355160D01*
X165893046Y-94546030D01*
X165983808Y-94722633D01*
X165987634Y-94727460D01*
X166103315Y-94873415D01*
X166103319Y-94873420D01*
X166107144Y-94878245D01*
X166258357Y-95006936D01*
X166355913Y-95061459D01*
X166405617Y-95112152D01*
X166420025Y-95181671D01*
X166394561Y-95247944D01*
X166352817Y-95283107D01*
X166287374Y-95317320D01*
X166287370Y-95317322D01*
X166281910Y-95320177D01*
X166127163Y-95444596D01*
X166123205Y-95449313D01*
X166123203Y-95449315D01*
X166039986Y-95548489D01*
X165999530Y-95596703D01*
X165903873Y-95770704D01*
X165843834Y-95959971D01*
X165821700Y-96157295D01*
X165838315Y-96355160D01*
X165893046Y-96546030D01*
X165983808Y-96722633D01*
X165987634Y-96727460D01*
X166103315Y-96873415D01*
X166103319Y-96873420D01*
X166107144Y-96878245D01*
X166258357Y-97006936D01*
X166355913Y-97061459D01*
X166405617Y-97112152D01*
X166420025Y-97181671D01*
X166394561Y-97247944D01*
X166352817Y-97283107D01*
X166287374Y-97317320D01*
X166287370Y-97317322D01*
X166281910Y-97320177D01*
X166127163Y-97444596D01*
X166123205Y-97449313D01*
X166123203Y-97449315D01*
X166039986Y-97548489D01*
X165999530Y-97596703D01*
X165903873Y-97770704D01*
X165843834Y-97959971D01*
X165821700Y-98157295D01*
X165838315Y-98355160D01*
X165893046Y-98546030D01*
X165983808Y-98722633D01*
X165987634Y-98727460D01*
X166103315Y-98873415D01*
X166103319Y-98873420D01*
X166107144Y-98878245D01*
X166258357Y-99006936D01*
X166263733Y-99009940D01*
X166263735Y-99009942D01*
X166356433Y-99061750D01*
X166406139Y-99112444D01*
X166420546Y-99181964D01*
X166395082Y-99248237D01*
X166353336Y-99283400D01*
X166341003Y-99289847D01*
X166330854Y-99299636D01*
X166333307Y-99306597D01*
X166826188Y-99799478D01*
X166840132Y-99807092D01*
X166841965Y-99806961D01*
X166848580Y-99802710D01*
X167339786Y-99311504D01*
X167346546Y-99299124D01*
X167341887Y-99292901D01*
X167323426Y-99282919D01*
X167273017Y-99232925D01*
X167257639Y-99163614D01*
X167282175Y-99096991D01*
X167326542Y-99059618D01*
X167384150Y-99030518D01*
X167540618Y-98908272D01*
X167670362Y-98757962D01*
X167687690Y-98727460D01*
X167765393Y-98590676D01*
X167768440Y-98585313D01*
X167831116Y-98396903D01*
X167856002Y-98199907D01*
X167856399Y-98171500D01*
X167837023Y-97973886D01*
X167779632Y-97783799D01*
X167686413Y-97608480D01*
X167560917Y-97454606D01*
X167495080Y-97400141D01*
X167412672Y-97331967D01*
X167412669Y-97331965D01*
X167407922Y-97328038D01*
X167323968Y-97282644D01*
X167273559Y-97232649D01*
X167258182Y-97163338D01*
X167282718Y-97096716D01*
X167327086Y-97059343D01*
X167360922Y-97042251D01*
X167378649Y-97033297D01*
X167378651Y-97033296D01*
X167384150Y-97030518D01*
X167540618Y-96908272D01*
X167670362Y-96757962D01*
X167687690Y-96727460D01*
X167765393Y-96590676D01*
X167768440Y-96585313D01*
X167831116Y-96396903D01*
X167856002Y-96199907D01*
X167856399Y-96171500D01*
X167837023Y-95973886D01*
X167779632Y-95783799D01*
X167686413Y-95608480D01*
X167560917Y-95454606D01*
X167495080Y-95400141D01*
X167412672Y-95331967D01*
X167412669Y-95331965D01*
X167407922Y-95328038D01*
X167323968Y-95282644D01*
X167273559Y-95232649D01*
X167258182Y-95163338D01*
X167282718Y-95096716D01*
X167327086Y-95059343D01*
X167360922Y-95042251D01*
X167378649Y-95033297D01*
X167378651Y-95033296D01*
X167384150Y-95030518D01*
X167540618Y-94908272D01*
X167670362Y-94757962D01*
X167687690Y-94727460D01*
X167765393Y-94590676D01*
X167768440Y-94585313D01*
X167831116Y-94396903D01*
X167856002Y-94199907D01*
X167856399Y-94171500D01*
X167837023Y-93973886D01*
X167779632Y-93783799D01*
X167686413Y-93608480D01*
X167560917Y-93454606D01*
X167495080Y-93400141D01*
X167412672Y-93331967D01*
X167412669Y-93331965D01*
X167407922Y-93328038D01*
X167323968Y-93282644D01*
X167273559Y-93232649D01*
X167258182Y-93163338D01*
X167282718Y-93096716D01*
X167327086Y-93059343D01*
X167360922Y-93042251D01*
X167378649Y-93033297D01*
X167378651Y-93033296D01*
X167384150Y-93030518D01*
X167540618Y-92908272D01*
X167670362Y-92757962D01*
X167687690Y-92727460D01*
X167765393Y-92590676D01*
X167768440Y-92585313D01*
X167831116Y-92396903D01*
X167856002Y-92199907D01*
X167856399Y-92171500D01*
X167837023Y-91973886D01*
X167779632Y-91783799D01*
X167686413Y-91608480D01*
X167560917Y-91454606D01*
X167495080Y-91400141D01*
X167412672Y-91331967D01*
X167412669Y-91331965D01*
X167407922Y-91328038D01*
X167323968Y-91282644D01*
X167273559Y-91232649D01*
X167258182Y-91163338D01*
X167282718Y-91096716D01*
X167327086Y-91059343D01*
X167360922Y-91042251D01*
X167378649Y-91033297D01*
X167378651Y-91033296D01*
X167384150Y-91030518D01*
X167540618Y-90908272D01*
X167670362Y-90757962D01*
X167687690Y-90727460D01*
X167739990Y-90635394D01*
X167768440Y-90585313D01*
X167831116Y-90396903D01*
X167856002Y-90199907D01*
X167856399Y-90171500D01*
X167837023Y-89973886D01*
X167779632Y-89783799D01*
X167720311Y-89672232D01*
X167689307Y-89613922D01*
X167689305Y-89613919D01*
X167686413Y-89608480D01*
X167593321Y-89494337D01*
X167564811Y-89459380D01*
X167564809Y-89459378D01*
X167560917Y-89454606D01*
X167495080Y-89400141D01*
X167412672Y-89331967D01*
X167412669Y-89331965D01*
X167407922Y-89328038D01*
X167323968Y-89282644D01*
X167273559Y-89232649D01*
X167258182Y-89163338D01*
X167282718Y-89096716D01*
X167327086Y-89059343D01*
X167360922Y-89042251D01*
X167378649Y-89033297D01*
X167378651Y-89033296D01*
X167384150Y-89030518D01*
X167540618Y-88908272D01*
X167670362Y-88757962D01*
X167687690Y-88727460D01*
X167765393Y-88590676D01*
X167768440Y-88585313D01*
X167831116Y-88396903D01*
X167856002Y-88199907D01*
X167856399Y-88171500D01*
X167837023Y-87973886D01*
X167779632Y-87783799D01*
X167745640Y-87719870D01*
X167689307Y-87613922D01*
X167689305Y-87613919D01*
X167686413Y-87608480D01*
X167560917Y-87454606D01*
X167495080Y-87400141D01*
X167412672Y-87331967D01*
X167412669Y-87331965D01*
X167407922Y-87328038D01*
X167323968Y-87282644D01*
X167273559Y-87232649D01*
X167258182Y-87163338D01*
X167282718Y-87096716D01*
X167327086Y-87059343D01*
X167370233Y-87037548D01*
X167378649Y-87033297D01*
X167378651Y-87033296D01*
X167384150Y-87030518D01*
X167540618Y-86908272D01*
X167636521Y-86797167D01*
X167696171Y-86758672D01*
X167731900Y-86753500D01*
X171445406Y-86753500D01*
X171513527Y-86773502D01*
X171534501Y-86790405D01*
X174439595Y-89695499D01*
X174473621Y-89757811D01*
X174476500Y-89784594D01*
X174476500Y-110024367D01*
X174456498Y-110092488D01*
X174402842Y-110138981D01*
X174332568Y-110149085D01*
X174267988Y-110119591D01*
X174261405Y-110113462D01*
X173415489Y-109267546D01*
X173402652Y-109252518D01*
X173394669Y-109241530D01*
X173344937Y-109196751D01*
X173340153Y-109192210D01*
X173326006Y-109178063D01*
X173310446Y-109165463D01*
X173305425Y-109161175D01*
X173260619Y-109120830D01*
X173260615Y-109120827D01*
X173255715Y-109116415D01*
X173250005Y-109113119D01*
X173250002Y-109113116D01*
X173243955Y-109109625D01*
X173227670Y-109098432D01*
X173217125Y-109089893D01*
X173157520Y-109059523D01*
X173151724Y-109056376D01*
X173145975Y-109053057D01*
X173093785Y-109022925D01*
X173080875Y-109018730D01*
X173062616Y-109011167D01*
X173050524Y-109005006D01*
X172985906Y-108987691D01*
X172979582Y-108985818D01*
X172970981Y-108983023D01*
X172915956Y-108965145D01*
X172909389Y-108964455D01*
X172909385Y-108964454D01*
X172903712Y-108963858D01*
X172902470Y-108963728D01*
X172883028Y-108960125D01*
X172869915Y-108956611D01*
X172863318Y-108956265D01*
X172863316Y-108956265D01*
X172803113Y-108953110D01*
X172796539Y-108952593D01*
X172779895Y-108950844D01*
X172779891Y-108950844D01*
X172776620Y-108950500D01*
X172756593Y-108950500D01*
X172749999Y-108950327D01*
X172692906Y-108947335D01*
X172625925Y-108923796D01*
X172582304Y-108867780D01*
X172573500Y-108821508D01*
X172573500Y-105814709D01*
X172593502Y-105746588D01*
X172598674Y-105739144D01*
X172611829Y-105721591D01*
X172617215Y-105714405D01*
X172668345Y-105578016D01*
X172675100Y-105515834D01*
X172675100Y-104124166D01*
X172668345Y-104061984D01*
X172617215Y-103925595D01*
X172529861Y-103809039D01*
X172413305Y-103721685D01*
X172276916Y-103670555D01*
X172214734Y-103663800D01*
X171153266Y-103663800D01*
X171091084Y-103670555D01*
X170954695Y-103721685D01*
X170838139Y-103809039D01*
X170750785Y-103925595D01*
X170699655Y-104061984D01*
X170692900Y-104124166D01*
X170692900Y-105515834D01*
X170699655Y-105578016D01*
X170750785Y-105714405D01*
X170756171Y-105721591D01*
X170769326Y-105739144D01*
X170794174Y-105805650D01*
X170794500Y-105814709D01*
X170794500Y-108824500D01*
X170774498Y-108892621D01*
X170720842Y-108939114D01*
X170668500Y-108950500D01*
X165940633Y-108950500D01*
X165872512Y-108930498D01*
X165851538Y-108913595D01*
X163716405Y-106778462D01*
X163682379Y-106716150D01*
X163679500Y-106689367D01*
X163679500Y-106554669D01*
X164802001Y-106554669D01*
X164802371Y-106561490D01*
X164807895Y-106612352D01*
X164811521Y-106627604D01*
X164856676Y-106748054D01*
X164865214Y-106763649D01*
X164941715Y-106865724D01*
X164954276Y-106878285D01*
X165056351Y-106954786D01*
X165071946Y-106963324D01*
X165192394Y-107008478D01*
X165207649Y-107012105D01*
X165258514Y-107017631D01*
X165265328Y-107018000D01*
X165547885Y-107018000D01*
X165563124Y-107013525D01*
X165564329Y-107012135D01*
X165566000Y-107004452D01*
X165566000Y-106999884D01*
X166074000Y-106999884D01*
X166078475Y-107015123D01*
X166079865Y-107016328D01*
X166087548Y-107017999D01*
X166374669Y-107017999D01*
X166381490Y-107017629D01*
X166432352Y-107012105D01*
X166447604Y-107008479D01*
X166568054Y-106963324D01*
X166583649Y-106954786D01*
X166685724Y-106878285D01*
X166698285Y-106865724D01*
X166774786Y-106763649D01*
X166783324Y-106748054D01*
X166828478Y-106627606D01*
X166832105Y-106612351D01*
X166837631Y-106561486D01*
X166838000Y-106554672D01*
X166838000Y-106312115D01*
X166833525Y-106296876D01*
X166832135Y-106295671D01*
X166824452Y-106294000D01*
X166092115Y-106294000D01*
X166076876Y-106298475D01*
X166075671Y-106299865D01*
X166074000Y-106307548D01*
X166074000Y-106999884D01*
X165566000Y-106999884D01*
X165566000Y-106312115D01*
X165561525Y-106296876D01*
X165560135Y-106295671D01*
X165552452Y-106294000D01*
X164820116Y-106294000D01*
X164804877Y-106298475D01*
X164803672Y-106299865D01*
X164802001Y-106307548D01*
X164802001Y-106554669D01*
X163679500Y-106554669D01*
X163679500Y-104978134D01*
X164801500Y-104978134D01*
X164808255Y-105040316D01*
X164859385Y-105176705D01*
X164864768Y-105183887D01*
X164868124Y-105190017D01*
X164883293Y-105259374D01*
X164868124Y-105311035D01*
X164856677Y-105331942D01*
X164811522Y-105452394D01*
X164807895Y-105467649D01*
X164802369Y-105518514D01*
X164802000Y-105525328D01*
X164802000Y-105767885D01*
X164806475Y-105783124D01*
X164807865Y-105784329D01*
X164815548Y-105786000D01*
X166819884Y-105786000D01*
X166835123Y-105781525D01*
X166836328Y-105780135D01*
X166837999Y-105772452D01*
X166837999Y-105645000D01*
X166858001Y-105576879D01*
X166911657Y-105530386D01*
X166963999Y-105519000D01*
X167542203Y-105519000D01*
X167610324Y-105539002D01*
X167656817Y-105592658D01*
X167660185Y-105600770D01*
X167702785Y-105714405D01*
X167790139Y-105830961D01*
X167906695Y-105918315D01*
X168043084Y-105969445D01*
X168105266Y-105976200D01*
X169166734Y-105976200D01*
X169228916Y-105969445D01*
X169365305Y-105918315D01*
X169481861Y-105830961D01*
X169569215Y-105714405D01*
X169620345Y-105578016D01*
X169627100Y-105515834D01*
X169627100Y-104124166D01*
X169620345Y-104061984D01*
X169569215Y-103925595D01*
X169481861Y-103809039D01*
X169365305Y-103721685D01*
X169228916Y-103670555D01*
X169166734Y-103663800D01*
X168105266Y-103663800D01*
X168043084Y-103670555D01*
X167906695Y-103721685D01*
X167790139Y-103809039D01*
X167702785Y-103925595D01*
X167699633Y-103934003D01*
X167660185Y-104039230D01*
X167617543Y-104095994D01*
X167550982Y-104120694D01*
X167542203Y-104121000D01*
X166964500Y-104121000D01*
X166896379Y-104100998D01*
X166849886Y-104047342D01*
X166838500Y-103995000D01*
X166838500Y-103941866D01*
X166831745Y-103879684D01*
X166780615Y-103743295D01*
X166693261Y-103626739D01*
X166576705Y-103539385D01*
X166440316Y-103488255D01*
X166378134Y-103481500D01*
X165261866Y-103481500D01*
X165199684Y-103488255D01*
X165063295Y-103539385D01*
X164946739Y-103626739D01*
X164859385Y-103743295D01*
X164808255Y-103879684D01*
X164801500Y-103941866D01*
X164801500Y-104978134D01*
X163679500Y-104978134D01*
X163679500Y-101043572D01*
X166331758Y-101043572D01*
X166336668Y-101050130D01*
X166426509Y-101100342D01*
X166437746Y-101105251D01*
X166614777Y-101162771D01*
X166626751Y-101165404D01*
X166811592Y-101187445D01*
X166823841Y-101187702D01*
X167009440Y-101173421D01*
X167021520Y-101171290D01*
X167200791Y-101121236D01*
X167212242Y-101116795D01*
X167337484Y-101053532D01*
X167347770Y-101043885D01*
X167345532Y-101037242D01*
X166851812Y-100543522D01*
X166837868Y-100535908D01*
X166836035Y-100536039D01*
X166829420Y-100540290D01*
X166338518Y-101031192D01*
X166331758Y-101043572D01*
X163679500Y-101043572D01*
X163679500Y-100163446D01*
X165822718Y-100163446D01*
X165838293Y-100348928D01*
X165840508Y-100360993D01*
X165891814Y-100539919D01*
X165896332Y-100551331D01*
X165957175Y-100669718D01*
X165966896Y-100679939D01*
X165973695Y-100677595D01*
X166466978Y-100184312D01*
X166473356Y-100172632D01*
X167203408Y-100172632D01*
X167203539Y-100174465D01*
X167207790Y-100181080D01*
X167698596Y-100671886D01*
X167710976Y-100678646D01*
X167717709Y-100673605D01*
X167764938Y-100590468D01*
X167769927Y-100579261D01*
X167828680Y-100402641D01*
X167831399Y-100390673D01*
X167855059Y-100203394D01*
X167855550Y-100196370D01*
X167855848Y-100175005D01*
X167855555Y-100168013D01*
X167837131Y-99980118D01*
X167834748Y-99968080D01*
X167780949Y-99789891D01*
X167776275Y-99778550D01*
X167720520Y-99673690D01*
X167710660Y-99663609D01*
X167703533Y-99666177D01*
X167211022Y-100158688D01*
X167203408Y-100172632D01*
X166473356Y-100172632D01*
X166474592Y-100170368D01*
X166474461Y-100168535D01*
X166470210Y-100161920D01*
X165979175Y-99670885D01*
X165966795Y-99664125D01*
X165960407Y-99668907D01*
X165907302Y-99765503D01*
X165902471Y-99776775D01*
X165846188Y-99954202D01*
X165843638Y-99966196D01*
X165822889Y-100151177D01*
X165822718Y-100163446D01*
X163679500Y-100163446D01*
X163679500Y-87916717D01*
X163699502Y-87848596D01*
X163753158Y-87802103D01*
X163823432Y-87791999D01*
X163849730Y-87798735D01*
X163902395Y-87818478D01*
X163917649Y-87822105D01*
X163968514Y-87827631D01*
X163975328Y-87828000D01*
X164247885Y-87828000D01*
X164263124Y-87823525D01*
X164264329Y-87822135D01*
X164266000Y-87814452D01*
X164266000Y-87809884D01*
X164774000Y-87809884D01*
X164778475Y-87825123D01*
X164779865Y-87826328D01*
X164787548Y-87827999D01*
X165064669Y-87827999D01*
X165071490Y-87827629D01*
X165122352Y-87822105D01*
X165137604Y-87818479D01*
X165258054Y-87773324D01*
X165273649Y-87764786D01*
X165375724Y-87688285D01*
X165388285Y-87675724D01*
X165464786Y-87573649D01*
X165473324Y-87558054D01*
X165518478Y-87437606D01*
X165522105Y-87422351D01*
X165527631Y-87371486D01*
X165528000Y-87364672D01*
X165528000Y-87042115D01*
X165523525Y-87026876D01*
X165522135Y-87025671D01*
X165514452Y-87024000D01*
X164792115Y-87024000D01*
X164776876Y-87028475D01*
X164775671Y-87029865D01*
X164774000Y-87037548D01*
X164774000Y-87809884D01*
X164266000Y-87809884D01*
X164266000Y-86642000D01*
X164286002Y-86573879D01*
X164339658Y-86527386D01*
X164392000Y-86516000D01*
X165509884Y-86516000D01*
X165525123Y-86511525D01*
X165526328Y-86510135D01*
X165527999Y-86502452D01*
X165527999Y-86175331D01*
X165527629Y-86168510D01*
X165522105Y-86117648D01*
X165518479Y-86102396D01*
X165473321Y-85981939D01*
X165472826Y-85981034D01*
X165472607Y-85980034D01*
X165470172Y-85973538D01*
X165471110Y-85973186D01*
X165457657Y-85911677D01*
X165470838Y-85866788D01*
X165470615Y-85866705D01*
X165471756Y-85863663D01*
X165471758Y-85863656D01*
X165521745Y-85730316D01*
X165528500Y-85668134D01*
X165528500Y-84471866D01*
X165521745Y-84409684D01*
X165470615Y-84273295D01*
X165383261Y-84156739D01*
X165359567Y-84138981D01*
X165273887Y-84074767D01*
X165273884Y-84074765D01*
X165266705Y-84069385D01*
X165241270Y-84059850D01*
X165184505Y-84017208D01*
X165159806Y-83950646D01*
X165159500Y-83941868D01*
X165159500Y-83530226D01*
X165179502Y-83462105D01*
X165184674Y-83454661D01*
X165215229Y-83413891D01*
X165220615Y-83406705D01*
X165271745Y-83270316D01*
X165278500Y-83208134D01*
X165278500Y-83187000D01*
X165298502Y-83118879D01*
X165352158Y-83072386D01*
X165404500Y-83061000D01*
X165959437Y-83061000D01*
X166027558Y-83081002D01*
G37*
%TD.AperFunction*%
%TD*%
M02*
